<?xml version="1.0" encoding="UTF-8"?>
<svg id="Layer_2" data-name="Layer 2" xmlns="http://www.w3.org/2000/svg" viewBox="0 0 408.46 1101.92">
  <defs>
    <style>
      .cls-1 {
        fill: #000;
      }

      .cls-1, .cls-2, .cls-3, .cls-4, .cls-5, .cls-6, .cls-7 {
        stroke-miterlimit: 10;
      }

      .cls-1, .cls-3, .cls-4 {
        stroke: #020202;
      }

      .cls-1, .cls-3, .cls-4, .cls-7 {
        stroke-width: .25px;
      }

      .cls-2, .cls-4, .cls-8 {
        fill: #b5b5b5;
      }

      .cls-2, .cls-5, .cls-6, .cls-7 {
        stroke: #000;
      }

      .cls-3, .cls-5, .cls-6, .cls-7 {
        fill: none;
      }

      .cls-6 {
        stroke-width: .1px;
      }

      .cls-8 {
        stroke-width: 0px;
      }
    </style>
  </defs>
  <g id="roadsAndPaths">
    <path class="cls-5" d="M114,729.98c14.89-.66,15.67,1.87,15.43,13.1,1.11,70.97,1.24,142.52-.38,213.44"/>
    <path class="cls-5" d="M5.09,7.08c134.14-1.9,268.28-1.89,402.5-2v2.5"/>
    <path class="cls-5" d="M200.88,588.43c-4.89,6.76-4.66,13.17-3.43,20.67,2.02,12.41,3,25,4.7,37.47,1.58,15.95,4.19,34.24,21.02,40.86,14.51,8.47,32.33,2.85,40.97-11.3,7.01-6.54,6.52-14.6,5.5-23.06-2.01-16.65-3.79-33.32-5.53-50-.9-11.26-5.77-20.16-13.79-25.76-3.02-2.11-8.82-6.42-13.23-6.79-5.28-.45-11.83-.33-15.43.89-8.84,3.01-15.51,8.53-20.78,17.01Z"/>
    <line class="cls-5" x1="294.59" y1="200.12" x2="162.09" y2="201.08"/>
    <path class="cls-5" d="M322.09,247.08v-35.4c0-7-5.01-9.04-12-8.53-5.78.43-10.58.88-15.5-3.03-.69-4.87-1.89-18.96-2.66-23.86-.32-2.02-1.1-4.5-4.76-4.75l-158.09-.38c-10.77.58-15.21,5.82-15.21,15.9l1.51,60.94"/>
    <path class="cls-5" d="M407.59,14.08c-79.14.33-158.55-4.44-237.5,1.37-43.52,1.07-87.8-3.06-131,1.13"/>
    <path class="cls-5" d="M373.59,920.58h-20.39l-6.06-6.49c-.98-.95-2.26-1.52-3.62-1.61l-16.43-.9"/>
    <path class="cls-5" d="M373.59,14.08c-4.39,156.33-.95,229.38-2.52,331-.74,16.47-8.02,36.75-8.02,36.75"/>
    <path class="cls-5" d="M329.09,248.08c.17,34.67.5,104.8.5,104.8"/>
    <path class="cls-5" d="M163.09,249.08c.49,33.18.85,66.35,2.5,99.5"/>
    <path class="cls-5" d="M370.59,96.08c-72.14-1.58-146.43,3.41-217.5-2.5"/>
    <path class="cls-5" d="M220.42,1004.63c-3.1,4.54-5.97,8.75-8.83,12.95"/>
    <path class="cls-5" d="M350.35,599.08c-7.94,4.28-54.61,5.5-54.61,5.5"/>
    <path class="cls-5" d="M31.09,980.02c-.17,29.17-.33,59.39-.5,88.56"/>
    <path class="cls-5" d="M371.59,48.08h-18.68c1.08,7.2,12.47,36.38-.32,35.48-18.89-.49-37.72-.96-56.5,1.52"/>
    <path class="cls-5" d="M295.59,581.58c9.64-.28,26.63-1.06,33.24-1.51,1.7-.12,3.04-1.5,3.09-3.21.28-9.09.08-38.44-.33-49.54-.09-2.55-2.14-4.59-4.7-4.66-6.85-.21-20.5.41-26.8.44-4.54.02-5.96,1.36-5.98,5.99-1.02,30.23,2.39,103.55,5.7,133.88.92,8.41,7.74,14.95,16.19,15.51l48.54-.67"/>
    <line class="cls-5" x1="2.09" y1="302.08" x2="12.03" y2="302.08"/>
    <path class="cls-5" d="M219.92,685.91c-6.02,9.84-7.92,21.81-10.77,32.68-2.99,15.29-8.26,30.78-7.2,46.48"/>
    <path class="cls-5" d="M157.09,96.08v151.25"/>
    <path class="cls-5" d="M289.26,423.08h62.83l-.48,10.31c-.07,1.49-1.29,2.68-2.78,2.7l-59.53.99"/>
    <path class="cls-5" d="M363.05,381.83s-53.62-.27-79.96-.75"/>
    <path class="cls-5" d="M206.59,1078.58c-40.32-.22-80.34-.67-120.66-1.5-1.47,2.07-3.4,4.78-4.84,6.81v16.19"/>
    <path class="cls-5" d="M355.64,409.58l3.39-12.99s-45.49.29-68.94-1.01"/>
    <path class="cls-5" d="M352.09,423.08l3.55-13.5c-23.38-.27-71.61-.64-94.75-.64.47-4.45.88-8.43,1.4-13.36h18.3"/>
    <path class="cls-5" d="M280.59,386.08c-25.49-.98-50.99-1.91-76.5-1.98-14.67-.27-9.04,18.08-9.5,27.48"/>
    <path class="cls-5" d="M141.09,72.58c4.41,4.41,8.83,8.83,13.46,13.46-.34,3.38-.42,7.35-4.67,9.16-.43,21.39-.86,42.39-1.28,63.39"/>
    <path class="cls-5" d="M307.91,603.95c.67,20.42,1.52,42.96,2.18,63.38"/>
    <path class="cls-5" d="M373.59,975.33c-23.92-1.66-79.04-.45-79.04-.45-2.57,2.52-7.46,10.2-7.53,14.24-.04,2.83,6.98,9.34,8.03,11.84,1.35,3.22.34,19.23,2.88,22.24,3.45,4.09,14.65,7.35,14.65,7.35,1.12,32.32-34.16,11.23-31.56-10.48.63-11.65.76-23.33,1.06-35,.16-6.12,4.95-10.64,12.47-10.2"/>
    <path class="cls-5" d="M373.05,801.46s-8.4-6.01-8.44-6.05c0,0,0-1.36-.02-1.36-17.44-.97-34.88-1.93-52.32-2.9-12.94,0-19.18,4.98-19.18,17.92-.08,25.33.35,50.68-.51,76-.14,5.04,3.9,9.74,9.52,9.92,20.86.84,63.15-1.67,63.15-1.67h0"/>
    <path class="cls-5" d="M408.09,332.31c-10.5,9.32-42.87,57.57-46.1,106.5l-1.32,66.77,3.87,172.22c-.3,60.31.55,182.31,1.55,242.78,0,0-.24,49.58-1.27,54.57-.85,29.3.31,80.58,1.03,108.5l7.73,2.43c.88-160.25-1.81-417.44-4.29-579.51l.89-68.17c2.43-26.81,14.94-68.81,37.89-93.32"/>
    <path class="cls-5" d="M113.45,719.18l21.84-1.97c4.15-.66,2.41-14.54-1.58-15.86-2.01-.67-21.62,1.23-21.62,1.23"/>
    <path class="cls-5" d="M361.09,47.33c1.15-18.7-1.76-16.48-18.5-16.21-18.32,1.96-35.05,1.66-53.69,2.91.74,20.81,1.47,41.05,2.19,61.3"/>
    <path class="cls-5" d="M225.81,780.34c0,10.01-.7,50.61,0,58.75"/>
    <path class="cls-5" d="M13.58,244.41c-.94,18.9.11,46.84-1.56,58.16.03,23.76.35,73.05.56,97.01"/>
    <path class="cls-5" d="M286.09,28.58c-32.87-3.25-66.07.79-98.97-1.87-15.96-.54-20.21,13.67-31.65,22.49v22.87h19.12"/>
    <path class="cls-5" d="M307.09,523.07v58.34"/>
    <path class="cls-5" d="M318.59,522.65c.33,18.5.17,39.89.5,58.39"/>
    <path class="cls-5" d="M49.07,980.1c-.02,26.63,12.15,9.96,13.02,23.97-1.23,13.43,7,15.42,17.17,15.04"/>
    <path class="cls-5" d="M93.09,127.74c7.18,4.89,4.73,12.9,7.6,19.77,6.94,14.66-4.54,18.7,14.4,31.07"/>
    <path class="cls-5" d="M292.58,884.18c-7.14,4.85-21.06,57.64-23.41,59.49"/>
    <path class="cls-5" d="M344.59,974.58s-.83,51.06-1,52.71"/>
    <path class="cls-5" d="M372.12,205.09l-34.73-.21c-2.89.46-4.79,3.45-4.77,6.37v35.83"/>
    <path class="cls-5" d="M191.15,768.77c.22-2.05,1.92-3.61,3.98-3.66,8.27-.19,29.06.31,40.46,0,7.52.45,5.16,9.89,5.5,14.97,0,0-.38,29.69-.98,44-.14,6.99-3.12,13.77-13.82,14.85-2.96.3-19.3,13.92-24.66,17.68-3.64,2.55-11.29.24-11.71-4.47-1.25-14.11.26-71.53.26-71.53l.98-11.84Z"/>
    <path class="cls-5" d="M161.31,558.06c9.34,7.42-3.2,24.11-3.55,34.05-.4,5.71-.08,21.52-.08,21.52,3.17,14,7.45,30.91,10.3,44.97,2.21,16.47.72,33.37,1.11,49.98"/>
    <path class="cls-5" d="M293.73,352.08l.52-36.62c0-4.33-12.45-3.38-12.16-3.38"/>
    <path class="cls-5" d="M319.59,603.36c.9,20.68,2.51,43.46,3.41,64.14"/>
    <path class="cls-5" d="M59.59,34.08c.3,13.15-2.13,25.87-.94,39,14.56.04,28.14.11,42.44-.5"/>
    <path class="cls-5" d="M282.09,249.08v85.26c-10.68,2.37-20.74,1.14-31.04,4.6-4.67.84-9.86-.62-14.46,1.64"/>
    <path class="cls-5" d="M157.68,613.63l-21.29.45c-2.29,0-6.7,3.17-6.77,5.91l.97,13.04c0,1.07-.76,1.99-1.81,2.18-9.43,1.74-20.29,3.84-30.23,5.66"/>
    <path class="cls-5" d="M184.65,546.61c5.4-3.41,9.55-9.96,16.96-8.64,1.39.22,3.53-.44,4.39-1.47,3.42-4.29,8.63-4.8,13.08-6.93,4.76-7.07,12.92-5.38,19.57-7.31,4.62-1.34,7.09.8,6.41,5.82-.86,6.39.11,11.88,3.77,17.67,5.02,8.3,6.89,18.54,11.26,27.33"/>
    <path class="cls-5" d="M403.59,257.58c-12.98,9.53-3.52,21.64,2.83,31.12.35-.21.7-.41,1.05-.62v6.16c-1.55,1.85-2.99,3.57-4.38,5.23,0,16.34-1.3,19.2-9.5,21.11-4.46-4.45-4.78-21.63.03-27.1,3.05,1.64,6.26,3.37,9.47,5.1"/>
    <path class="cls-5" d="M234.59,307.08c15.23-1.97,30.67-.66,46-1"/>
    <line class="cls-5" x1="283.09" y1="352.08" x2="370.21" y2="353.57"/>
    <path class="cls-5" d="M101.09,34.08c0,10.17-.07,20.33.04,30.5.04,3.47-1.33,7.41,2.46,10-1.78,11.66,8.53,13.21,10,20"/>
    <path class="cls-5" d="M114.09,34.08c-.33,12.75-.67,25.5-1,38.25"/>
    <path class="cls-5" d="M128.09,34.08v38.25"/>
    <path class="cls-5" d="M87.09,34.08c-.33,12.75-.67,25.5-1,38.25"/>
    <path class="cls-5" d="M73.09,34.08c.33,12.75.67,25.5,1,38.25"/>
    <path class="cls-5" d="M5.09,15.08c34.32.17,26.74-4.31,52.64,18.38h82.86v38.63c-11.55,2.33-24.49-.02-36.5,1.75"/>
    <line class="cls-5" x1="365.26" y1="956.58" x2="314.59" y2="956.58"/>
    <path class="cls-5" d="M62.07,389.08h8.53s-.27,19.51.06,29.5c-.09,8.16,8.71,6.22,14.43,6.54,9.69.93,17.53-12.61,20.66-14.82.87-.62,2.21-.36,2.34.89,0,0-.26,14.98-.32,16.56-.04,1.09.91,1.95,2,1.97,0,0,25.39-.25,26.25.02s4.75,7.64,9.57,8.35"/>
    <line class="cls-5" x1="370.59" y1="220.08" x2="332.96" y2="220.08"/>
    <line class="cls-5" x1="370.59" y1="233.08" x2="332.96" y2="232.05"/>
    <path class="cls-5" d="M280.59,267.58c-12.64-5.92-27.53-4.76-38.5,3.5"/>
    <path class="cls-5" d="M149.59,95.08c-37.18.79-109.14,1.14-112.71.94"/>
    <path class="cls-5" d="M288.09,43.58h-24v13.75"/>
    <line class="cls-5" x1="310.09" y1="203.15" x2="309.59" y2="239.58"/>
    <path class="cls-5" d="M236.59,357.58h-21.03c-.62,5.26-1.13,9.59-1.71,14.5,18.26-.33,36.09.71,54.24-.5"/>
    <path class="cls-5" d="M353.2,920.58c-3.38,1.31-2.79,36-2.79,36"/>
    <line class="cls-5" x1="237.56" y1="534.01" x2="237.09" y2="570.52"/>
    <line class="cls-5" x1="407.59" y1="752.08" x2="364" y2="752.08"/>
    <path class="cls-5" d="M194.09,539.58c1.38,6.65-2.3,52.14,2.65,60.52"/>
    <polyline class="cls-5" points="170.09 780.33 170.09 765.52 151.09 765.52"/>
    <line class="cls-5" x1="371.11" y1="340.33" x2="337.59" y2="340.33"/>
    <path class="cls-5" d="M287.81,504.62c-12.25,11.02-1.58,13.35,7.53,19.46"/>
    <polyline class="cls-5" points="367.24 366.18 290.6 367.08 289.26 423.08 289.39 491.63 328.59 492.58"/>
    <line class="cls-5" x1="371.18" y1="326.33" x2="338.59" y2="326.58"/>
    <path class="cls-5" d="M280.59,357.08c-14.33.17-28.67.33-43,.5"/>
    <path class="cls-5" d="M268.59,410.58c.52,15.76.32,44.99.39,51.05,0,.69.37,1.34.95,1.71l5.99,3.7"/>
    <path class="cls-5" d="M327.45,465.84c-9.57.02-27.82.21-37.36.67l-14.17.54s-75.77-1.37-112.66-1.37c-1.49,0-2.74-1.12-2.91-2.6l-2.26-22.5s3.29-.22,5.5-.6c.76-.13,1.32-.79,1.36-1.55.33-5.62.63-10.75.94-16.1,4.95-1.54,5.75-5.23,5.22-9.75-1.41-11.3-2.5-22.6-2.03-34"/>
    <path class="cls-5" d="M350.59,450.58c-20.09,1.25-60.5.5-60.5.5"/>
    <line class="cls-5" x1="324.59" y1="479.58" x2="290.09" y2="479.08"/>
    <path class="cls-5" d="M408.09,1095.4c-17.34-2.36-42.23-3.62-42.23-3.62-30.51-1.17-53.27-8.13-53.27-8.13-16.58-3.63-47.18-17.39-61-27.24l-56.15-39.98c-14.36-10.48-48.29-24.86-65.35-29.86-25.48-7.48-36.95-7.04-49.9-6.33l-79.65-.37.51-6.93,80.04-.37c68.09-1.31,124.17,41.7,177.99,78.01,31.43,22.14,62.35,30.7,106.77,33.06l7.73,2.43c11.33,1.33,34.5,4,34.5,4"/>
    <path class="cls-5" d="M237.09,384.33v-44.37c-5.09-.43-9.78-.82-14.97-1.25-1.99-5.58-7.22-3.23-11.55-3.63-5.71,5.37-2.75,21.1,5.02,23.51"/>
    <path class="cls-5" d="M407.59,236.58v-3c-9.37,4.67-10.64,18.17,0,27v4"/>
    <path class="cls-5" d="M240.59,271.58c5.37,6.12,3.04,14.93,1.05,22.01-.69,3.83-3.94,7.21-2.05,11.49"/>
    <line class="cls-5" x1="371.16" y1="299.05" x2="341.59" y2="299.58"/>
    <path class="cls-5" d="M35.36,258.95c7.32,4.49,27.32,10.42,27.35,14.59-3.15,3.19-18.24-6.54-26.91-7.8"/>
    <path class="cls-5" d="M35.86,138.27c-1.79-.96-8.43-4.4-10.26-5.62l-22.26-.52c.1,5.88.66,93.71,1.31,106.56.17,3.38,3.1,6.16,6.46,5.82,21.99-3.23,80.86,3.92,104.27,3.46l256.21-.89"/>
    <path class="cls-5" d="M36.37.01c1.04,68.92-1.16,192.96-1.02,262.64,1.02,59.42,2.11,228.32,2.42,289.36,1.53,14.98,6.31,21.22,7.49,24.53,2.86,7.98,26.96,53.94,29.4,59.51s12.33,39.96,14.47,55.7c4.06,121.94,2.68,252.96-3.2,385.32l-4.84,6.81-3.45-6.81c1.14-75.14,4.49-121.89,4.45-206,.85-53.19,1.54-106.35-.91-159.5-1.08-24.33-4.95-49.32-15.31-71.4-8.17-17.71-17.29-35.04-26.93-52.02-17.26-29.01-12.29-62.95-12.84-95.08C27.44,384.29,26.61,155.23,22.58.01"/>
    <path class="cls-5" d="M133.09,74.08c-1.65,13.03,10.16,12.83,18.5,19.5"/>
    <path class="cls-5" d="M288.59,58.08c-9,0-18.01-.19-27,.06-11.59-1.22-7.94,11.36-8.5,18.94"/>
    <path class="cls-5" d="M245.11,527.57c-2.76,2.93-7.03,7.39-11.63,7.84-6.21.61-12.58-3.6-14.4-5.85"/>
    <path class="cls-5" d="M119.59,951.58c-17.89,12.89-4.28,4.88-15,21"/>
    <line class="cls-5" x1="370.44" y1="259.08" x2="346.59" y2="259.08"/>
    <path class="cls-5" d="M364.71,1034.06c-19.52.17-16.78-10.31-32.18-6.61-2.29,7.17-1.84,15.19-1.94,23.13"/>
    <line class="cls-5" x1="78.84" y1="115.54" x2="57.03" y2="115.54"/>
    <path class="cls-5" d="M261.59,408.58c-3.98,3.69-7.95,7.39-11.86,11.02-3.47.51-6.81.99-10.14,1.48"/>
    <path class="cls-5" d="M315.59,47.08h-22"/>
    <path class="cls-5" d="M315.59,61.08c-7.33.17-14.67.33-22,.5"/>
    <line class="cls-5" x1="37.56" y1="467.58" x2="61.71" y2="467.83"/>
    <path class="cls-5" d="M169.09,16.08c1.6,10.35-5.85,13.85-13.5,18.5"/>
    <line class="cls-5" x1="370.83" y1="272.11" x2="348.59" y2="271.58"/>
    <path class="cls-5" d="M78.84,127.74c-5.36,6.08-14.64,4.11-21.81,4.4"/>
    <polyline class="cls-5" points="93.09 95.82 93.09 127.74 78.84 127.74 78.84 105.08 93.09 105.08"/>
    <path class="cls-5" d="M407.59,83.08c-7-.33-14-.67-21-1"/>
    <path class="cls-5" d="M332.59,1027.58s-3.82-4.12-6.76-4.37c-3.77.45-13.25,7.35-13.25,7.35"/>
    <line class="cls-5" x1="113.82" y1="857.27" x2="91.12" y2="858.11"/>
    <path class="cls-5" d="M2.09,418.48c6.64,2.77,16.9,11.11,24.41,10.34"/>
    <path class="cls-5" d="M315.59,72.08c-6.67-.17-13.33-.33-20-.5"/>
    <path class="cls-5" d="M303.09,14.08c.31,6-12.44,9.85-17.2,14.28,1.27,2.14,2.49,4.18,3.7,6.22"/>
    <path class="cls-5" d="M57.59,42.08c-6.5.33-13,.67-19.5,1"/>
    <path class="cls-5" d="M173.59,86.58c-6.17-.17-12.33-.33-18.5-.5"/>
    <path class="cls-5" d="M258.09,764.08c-6.68,0-15.81,0-19.14,2.22"/>
    <path class="cls-5" d="M173.59,54.58c-5.83-.17-11.67-.33-17.5-.5"/>
    <path class="cls-5" d="M138.09,1079.08c1.09,5.5-1.11,12.45,3.5,16.5"/>
    <path class="cls-5" d="M281.34,335.08c2.33,24.92.07,49.99.75,75v1.5c.77,26.71.53,58.07-.04,85,.31,4.77,4.16,8.54,8.93,8.75l78.32,1.24"/>
    <path class="cls-5" d="M407.59,187.58c1.65,3.02-11.36,7.87,0,14"/>
    <path class="cls-5" d="M349.77,876.08c-1.17,5.42-3.05,12.81-4.22,18.23"/>
    <path class="cls-5" d="M270.59,498.58c-.55,13.98-12.07,25.38-7.21,39.56,6.68,23.18,9.27,47.78,21.71,68.94l3,8.5c.96,5.58,3.24,12.51,9,14.5"/>
    <path class="cls-5" d="M155.09,1100.08c-1.59-6.1-7.47-7.84-13.36-4.09-.4,1.6-.77,3.1-1.14,4.59"/>
    <path class="cls-5" d="M352,506.29c-1.3,30.62-1.66,93.78-1.66,93.78.94,51.29,1.77,148.24,1.66,173.16-.02,3.38-2.73,6.12-6.11,6.17l-216.3,1.67h-16.37"/>
    <polyline class="cls-5" points="378.23 379.08 373.78 378.25 371.22 382.48 363.05 381.83 359.03 396.59"/>
    <path class="cls-5" d="M194.04,562.95c-4.13-6.42-13.72-23.36-13.72-23.36l-2.47,5.02c-2,6.89-6.04,15.29-13.41,18.34"/>
    <path class="cls-5" d="M156.59,46.08c-.31-3.67-.61-7.34-1-11.95-4.8-.1-9.65-.2-14.5-.3"/>
    <line class="cls-5" x1="174.09" y1="465.71" x2="173.59" y2="480.58"/>
    <line class="cls-5" x1="320.68" y1="451.16" x2="320.68" y2="505.8"/>
    <path class="cls-5" d="M316.09,34.08c.33,20.42.67,40.83,1,61.25"/>
    <path class="cls-5" d="M221.59,339.08c-3.87,4.13-7.59,8.41-12,12"/>
    <polyline class="cls-5" points="139.33 765.84 151.09 765.52 151.09 780.91"/>
    <path class="cls-5" d="M268.09,358.08c.08,11.98-2.42,18.22,12.5,19"/>
    <path class="cls-5" d="M102.87,656.39s11.2-1.63,16.21-2.35c11.3-1.62,7.02-10.69,5.62-17.99"/>
    <path class="cls-5" d="M331.11,600.12l1.85,60.21c.08,2.68-2.05,4.92-4.73,4.96l-28.6-.38c-6.21,3.51-12,14.37-12,14.37-11.54,34.6-1.28,70.66-6.32,106.04-3.61,31.51-9.71,62.95-13.07,94.46-.41,30.16.48,101.91-.55,105.57-.53,1.89-10,18.84-16.35,27.55-2.71,3.71-7.78,4.79-11.75,2.48-6.3-3.65-16.63-10.43-20.12-13.05-1.51-1.14-27.42-16.76-31.41-19.18-5.15-3.13-56.9-27.82-59.97-28.92-5.77-2.08-11.91-4.95-11.97-11.89-.11-14.2-.66-71.52-.63-74.65.03-2.95-2.08-7.96-2.55-11.91-.77-6.4.02-60.02-.68-77,2.95-51.03.38-90.57-14.55-139.83-1.02-5.19-18.79-44.78-32.31-74.05-2.84-5.47-4.1-10.95-4.15-16.62.5-61.18.91-211.85,1.46-274.21-.07-4.49-.1-25.64.04-28.65.26-5.56,1.24-21.8-3.6-28.89-3.83-5.62-1.44-97.68-2.34-120.47"/>
    <path class="cls-5" d="M247.09,14.08v12.5"/>
    <line class="cls-5" x1="127.59" y1="187.58" x2="113.88" y2="187.03"/>
    <path class="cls-5" d="M213.09,13.58v12.75"/>
    <path class="cls-5" d="M325.09,798.65v-6.79"/>
    <path class="cls-5" d="M282.51,514.35c2.58,33.12-2.91,45.66,1.52,69.74,5.83,31.68,1.11,64.68,4.06,96.49l-.5,7.5c6.93,29.47,24.33,52.39,24.1,118.23l-3.41,8.7c-2.38,4.07-2.04,22.62-5.02,31.05-5.61,15.88-7.74,24.47-7.74,24.47,4.88-1.2,10.74,1.61,14.07-2.95l-1.31-52.57c5.02-4.89,16.81-16.36,16.81-16.36l15.23,16.59.38,51.15c.04,4.98,6.09,9.68,9.06,9.68h15.79"/>
    <path class="cls-5" d="M247.09,249.08c.81,3.64-1.15,5.81-4.45,7.52.49,4.02.97,8,1.45,11.98"/>
    <path class="cls-5" d="M155.59,72.08c-.83,3.83-1.67,7.67-2.5,11.5"/>
    <line class="cls-5" x1="26.85" y1="382.08" x2="12.56" y2="382.08"/>
    <path class="cls-5" d="M407.59,135.08c-3.67.17-7.33.33-11,.5"/>
    <line class="cls-5" x1="282.08" y1="441.16" x2="268.96" y2="441.08"/>
    <path class="cls-5" d="M282.3,568.1c-3.17.67-10.97,2.32-10.97,2.32-3.41.74-9.77,1.7-11.24,2.66-2.44,1.59-4.51,4.24-6.29,7.06"/>
    <path class="cls-5" d="M373.09,2.08v11"/>
    <path class="cls-5" d="M174.59,503.58s-.74,29.7-.99,34.52c-.31,5.87-5.68,14.04-10.72,18.64-5.37,4.9-10.53,6.07-14.15,7.6-4.36,1.84-79.75,3.35-82.09,3.47,0,0-21.41-1.41-23.8,1.54l2.43,7.2c-10.68,2.6-33.56,10.03-42.04,14.13"/>
    <line class="cls-5" x1="180.97" y1="507.58" x2="174.59" y2="507.58"/>
    <line class="cls-5" x1="169.03" y1="700.08" x2="193.45" y2="700.08"/>
    <path class="cls-5" d="M158.09,440.58c-4.53-2.5-7.6-2.5-12.5-2.5,0,15.12.75,28.17.75,42.5h34.75c.57,43.75-3.66,86.59,2.5,130,1.77,14.65,3.63,29.45,6,44,.25,14.85,3.86,45.5,3.86,45.5.37,11.44,3.01,24.14,1.79,35.51-.49,2.84-10.02,13.84-10.15,18.38,0,0-.83,27.11-.83,27.11"/>
    <path class="cls-5" d="M255.43,685.58c1.15,1.72,8.53,11.83,8.74,13.88,0,0-1.05,27.79-1.21,29.11-.62,5.11-2.28,6.99-3.96,14.74-.7,3.26-1.07,19.87-1.11,20.77,0,0,1.03,13.17,1.19,15.5"/>
    <path class="cls-5" d="M12.59,1101.58l6.5-7c6.89-8.85,15.89-15.87,16.81-27.96.68-4.7.75-10.43,5.2-14.03,11.36-9.96,47.49-31.01,47.49-31.01,19.3-8.19,37.05-19.65,56.5-27.5l19.5-5c5.99-3.28,13.82-3.28,20.37-5.74l4.06,2.11c3.92-5.04,15.07-3.02,21.06-4.94,5.94-1,12.02-1.09,17.59-4.29,9.13-4.8,19.92-5.91,29.92-7.93,3.12-12.88,5.28-25.76,7.99-38.71"/>
    <line class="cls-5" x1="365.86" y1="1083.65" x2="365.86" y2="1091.78"/>
    <line class="cls-5" x1="373.59" y1="1086.08" x2="373.59" y2="1092.4"/>
    <line class="cls-5" x1="292.92" y1="871.6" x2="295.52" y2="870.52"/>
    <path class="cls-5" d="M109.64,687.23l24.01-2.58c4.15-.66-.99-13.8-4.98-15.13-2.01-.67-21.8,3.47-21.8,3.47"/>
  </g>
  <g id="buildings">
    <g id="SW">
      <g id="SW5">
        <g id="SW5_2">
          <line class="cls-3" x1="126.32" y1="410.63" x2="126.07" y2="404.61"/>
          <polyline class="cls-3" points="127.26 410.47 127.42 411.06 132.57 410.22 132.65 410.52"/>
          <line class="cls-3" x1="133.85" y1="415.98" x2="133.66" y2="415.64"/>
          <line class="cls-3" x1="130.06" y1="412.08" x2="131.17" y2="411.95"/>
          <line class="cls-3" x1="133.69" y1="411.54" x2="132.65" y2="411.72"/>
          <line class="cls-3" x1="130.72" y1="414.07" x2="131.36" y2="415.81"/>
          <line class="cls-3" x1="129.15" y1="414.54" x2="129.68" y2="416.25"/>
          <polyline class="cls-3" points="120.15 410.81 120.06 411.37 122.72 411.81 125.43 411.37 125.34 410.81"/>
          <line class="cls-3" x1="119.17" y1="410.63" x2="119.42" y2="404.61"/>
          <polyline class="cls-3" points="118.23 410.47 118.07 411.06 112.92 410.22 112.84 410.52"/>
          <line class="cls-3" x1="111.64" y1="415.98" x2="111.83" y2="415.64"/>
          <line class="cls-3" x1="115.43" y1="412.08" x2="114.33" y2="411.95"/>
          <line class="cls-3" x1="111.8" y1="411.54" x2="112.84" y2="411.72"/>
          <polyline class="cls-3" points="117.14 412.36 122.72 413.23 128.35 412.36"/>
          <line class="cls-3" x1="114.77" y1="414.07" x2="114.14" y2="415.81"/>
          <line class="cls-3" x1="116.34" y1="414.54" x2="115.81" y2="416.25"/>
        </g>
        <g id="SW5_Outline">
          <polygon class="cls-1" points="128.35 412.36 130.06 412.08 130.72 414.07 129.15 414.54 128.35 412.36"/>
          <polygon class="cls-1" points="117.14 412.36 115.43 412.08 114.77 414.07 116.34 414.54 117.14 412.36"/>
          <rect class="cls-1" x="133.7" y="410.8" width=".51" height="3.56"/>
          <rect class="cls-1" x="111.23" y="410.8" width=".51" height="3.56"/>
          <g id="outerWalls">
            <polyline class="cls-3" points="122.72 404.61 125.92 404.61 134.05 405.95 134.05 410.8 137.31 410.8 137.31 415.81 134.29 415.81 129.98 417.27 133.3 427.16 132.35 427.47 130.88 427.61 129.52 428.2 128 428.2 126.67 428.66 125.13 428.54 123.7 428.87 122.72 428.87"/>
            <polyline class="cls-3" points="122.72 404.61 119.52 404.61 111.39 405.95 111.39 410.8 108.14 410.8 108.14 415.81 111.15 415.81 115.46 417.27 112.14 427.16 113.09 427.47 114.56 427.61 115.92 428.2 117.44 428.2 118.77 428.66 120.32 428.54 121.74 428.87 122.72 428.87"/>
          </g>
          <line class="cls-1" x1="135.75" y1="412.34" x2="135.75" y2="414.3"/>
          <line class="cls-1" x1="109.7" y1="412.4" x2="109.7" y2="414.36"/>
        </g>
        <g id="SW5_Roof">
          <g>
            <polyline class="cls-8" points="122.72 404.61 125.92 404.61 134.05 405.95 134.05 410.8 137.31 410.8 137.31 415.81 134.29 415.81 129.98 417.27 133.3 427.16 132.35 427.47 130.88 427.61 129.52 428.2 128 428.2 126.67 428.66 125.13 428.54 123.7 428.87 122.72 428.87"/>
            <polyline class="cls-3" points="122.72 404.61 125.92 404.61 134.05 405.95 134.05 410.8 137.31 410.8 137.31 415.81 134.29 415.81 129.98 417.27 133.3 427.16 132.35 427.47 130.88 427.61 129.52 428.2 128 428.2 126.67 428.66 125.13 428.54 123.7 428.87 122.72 428.87"/>
          </g>
          <g>
            <polyline class="cls-8" points="122.72 404.61 119.52 404.61 111.39 405.95 111.39 410.8 108.14 410.8 108.14 415.81 111.15 415.81 115.46 417.27 112.14 427.16 113.09 427.47 114.56 427.61 115.92 428.2 117.44 428.2 118.77 428.66 120.32 428.54 121.74 428.87 122.72 428.87"/>
            <polyline class="cls-3" points="122.72 404.61 119.52 404.61 111.39 405.95 111.39 410.8 108.14 410.8 108.14 415.81 111.15 415.81 115.46 417.27 112.14 427.16 113.09 427.47 114.56 427.61 115.92 428.2 117.44 428.2 118.77 428.66 120.32 428.54 121.74 428.87 122.72 428.87"/>
          </g>
        </g>
      </g>
      <path id="SW3" class="cls-2" d="M118.72,381.94v-1.81h-2.09c.07-6.32.14-12.52.22-18.77h4.21v-2.11h2.24v2.22h4.41v18.6h-2.26c-.04.58-.07,1.09-.11,1.73,11.73.14,23.39.28,35.15.42,0,.69,0,1.34,0,1.99-.01,1.16,0,2.32-.05,3.47-.02.52.14.71.68.69,1.32-.03,2.64-.01,3.95-.01v12.21c-1.64,0-3.17.01-4.7,0-5.88-.06-11.77-.12-17.65-.18-4.82-.05-9.64-.09-14.46-.14-.45,0-.9-.02-1.34-.07-.59-.07-.82.17-.78.75.01.18-.03.37-.05.59h-6.72c0-.92-.04-1.77.01-2.61.05-.64-.14-.87-.81-.87-3.02,0-6.05-.04-9.07-.07-4.47-.04-8.93-.09-13.4-.14-2.39-.03-4.77-.07-7.16-.11-.25,0-.51,0-.96,0v17.19c-.93-.11-1.07.29-1.04.95.03.77-.06,1.55-.11,2.42-.98,0-1.97-.01-2.95,0-.42,0-.98-.27-1.1.48-.01.06-.24.13-.36.13-2.31,0-4.62,0-7,0,.12-.79-.26-1.07-.83-1.18-.53-.1-.63-.42-.62-.91.08-6.07.13-12.14.2-18.22.04-3.24.09-6.47.14-9.71,0-.23.02-.46.03-.75,2.66.09,5.27.19,7.96.28v-2.58c1.01,0,1.94,0,2.88,0,1.23,0,1.24,0,1.27-1.24.03-.97,0-1.94,0-3.05,10.75.13,21.45.25,32.25.38Z"/>
    </g>
    <g id="SE">
      <g id="SE12_3">
        <line class="cls-7" x1="181.7" y1="357.51" x2="181.7" y2="363.23"/>
        <line class="cls-7" x1="186.57" y1="363.23" x2="186.57" y2="367.19"/>
        <line class="cls-7" x1="186.57" y1="374.98" x2="186.57" y2="380.45"/>
        <line class="cls-7" x1="186.57" y1="382.53" x2="186.57" y2="385.72"/>
        <line class="cls-7" x1="180.52" y1="386.79" x2="180.52" y2="389.76"/>
        <line class="cls-7" x1="179.54" y1="392.77" x2="186.5" y2="392.77"/>
        <line class="cls-7" x1="186.5" y1="393.64" x2="186.5" y2="399.42"/>
        <line class="cls-7" x1="186.5" y1="400.12" x2="186.5" y2="401.17"/>
        <line class="cls-7" x1="181.58" y1="392.77" x2="181.58" y2="400.92"/>
        <line class="cls-7" x1="186.5" y1="401.89" x2="186.5" y2="404.81"/>
        <line class="cls-7" x1="186.5" y1="405.48" x2="186.5" y2="406.6"/>
        <line class="cls-7" x1="186.5" y1="407.25" x2="186.5" y2="411.88"/>
        <line class="cls-7" x1="186.5" y1="412.7" x2="186.5" y2="414.82"/>
        <polyline class="cls-7" points="186.68 435.94 186.68 438.26 179.17 438.26"/>
        <polyline class="cls-7" points="183.38 435.94 181.85 435.94 181.85 438.26"/>
        <polyline class="cls-7" points="185.87 435.94 184.17 435.94 184.17 438.26"/>
        <polyline class="cls-7" points="171.77 361.45 171.77 357.51 179.17 357.51 179.17 357.51 186.57 357.51 186.57 361.45"/>
        <polyline class="cls-7" points="171.77 362.17 171.77 363.23 179.17 363.23 179.17 363.23 186.57 363.23 186.57 362.17"/>
        <line class="cls-7" x1="176.64" y1="357.51" x2="176.64" y2="363.23"/>
        <line class="cls-7" x1="171.77" y1="363.23" x2="171.77" y2="367.19"/>
        <polyline class="cls-7" points="171.77 368.59 179.17 368.59 179.17 368.59 186.57 368.59"/>
        <polyline class="cls-7" points="171.77 369.47 171.77 374 179.17 374 179.17 374 186.57 374 186.57 369.47"/>
        <polyline class="cls-7" points="171.77 381.47 179.17 381.47 179.17 381.47 186.57 381.47"/>
        <line class="cls-7" x1="171.77" y1="374.98" x2="171.77" y2="380.45"/>
        <line class="cls-7" x1="171.77" y1="382.53" x2="171.77" y2="385.72"/>
        <polyline class="cls-7" points="171.77 386.51 171.77 386.79 179.17 386.79 179.17 386.79 186.57 386.79 186.57 386.51"/>
        <polyline class="cls-7" points="171.77 387.62 171.77 389.76 179.17 389.76 179.17 389.76 186.57 389.76 186.57 387.62"/>
        <line class="cls-7" x1="178.35" y1="386.79" x2="178.35" y2="389.76"/>
        <line class="cls-7" x1="178.8" y1="392.77" x2="171.84" y2="392.77"/>
        <line class="cls-7" x1="171.84" y1="393.64" x2="171.84" y2="399.42"/>
        <line class="cls-7" x1="171.84" y1="400.12" x2="171.84" y2="401.17"/>
        <polyline class="cls-7" points="171.84 400.92 179.17 400.92 179.17 400.92 186.5 400.92"/>
        <line class="cls-7" x1="176.76" y1="392.77" x2="176.76" y2="400.92"/>
        <polyline class="cls-7" points="176.76 400.44 179.17 400.44 179.17 400.44 181.58 400.44"/>
        <line class="cls-7" x1="171.84" y1="401.89" x2="171.84" y2="404.81"/>
        <line class="cls-7" x1="171.84" y1="405.48" x2="171.84" y2="406.6"/>
        <line class="cls-7" x1="171.84" y1="407.25" x2="171.84" y2="410.02"/>
        <line class="cls-7" x1="171.84" y1="410.75" x2="171.84" y2="411.88"/>
        <line class="cls-7" x1="171.84" y1="412.7" x2="171.84" y2="414.82"/>
        <polyline class="cls-7" points="171.84 415.52 171.84 417.05 179.17 417.05 179.17 417.05 186.5 417.05 186.5 415.52"/>
        <polyline class="cls-7" points="171.84 405.93 179.17 405.93 179.17 405.93 186.5 405.93"/>
        <polyline class="cls-7" points="171.66 435.94 171.66 438.26 179.17 438.26"/>
        <polyline class="cls-7" points="175.06 435.94 176.96 435.94 176.96 438.26"/>
        <polyline class="cls-7" points="172.47 435.94 174.17 435.94 174.17 438.26"/>
        <polyline class="cls-7" points="177.77 435.94 179.17 435.94 179.17 435.94 181.04 435.94"/>
        <line class="cls-7" x1="179.17" y1="363.23" x2="179.17" y2="386.79"/>
        <line class="cls-7" x1="180.09" y1="388.35" x2="180.52" y2="388.35"/>
        <line class="cls-7" x1="179.42" y1="388.35" x2="178.35" y2="388.35"/>
        <line class="cls-7" x1="178.21" y1="411.7" x2="171.84" y2="411.7"/>
        <polyline class="cls-7" points="174.24 423.93 171.64 423.93 171.64 421.72 177.32 421.72 177.32 422.47"/>
        <polyline class="cls-7" points="175.28 425.73 175.13 425.73 175.13 423.35 177.32 423.35 177.32 425.73 175.91 425.73"/>
        <line class="cls-7" x1="175.13" y1="421.72" x2="175.13" y2="423.35"/>
        <line class="cls-7" x1="185.53" y1="386.79" x2="185.53" y2="388.62"/>
        <line class="cls-7" x1="179.17" y1="400.92" x2="179.17" y2="410.28"/>
        <line class="cls-7" x1="179.17" y1="410.92" x2="179.17" y2="417.05"/>
        <line class="cls-7" x1="178.93" y1="411.7" x2="186.5" y2="411.7"/>
        <line class="cls-7" x1="179.17" y1="435.94" x2="179.17" y2="438.26"/>
        <line class="cls-7" x1="181.04" y1="440.07" x2="181.04" y2="438.26"/>
        <line class="cls-7" x1="174.11" y1="438.26" x2="174.11" y2="438.94"/>
        <line class="cls-7" x1="175.06" y1="438.26" x2="175.06" y2="438.92"/>
        <line class="cls-7" x1="176.61" y1="438.26" x2="176.61" y2="439.36"/>
        <g>
          <line class="cls-7" x1="170.37" y1="422.98" x2="170.37" y2="423.77"/>
          <polyline class="cls-3" points="170.37 427.39 170.37 426.21 169.87 426.21"/>
          <polyline class="cls-3" points="170.37 423.47 169.87 423.47 169.87 426.27 168.75 427.39"/>
          <line class="cls-3" x1="168.42" y1="423.47" x2="168.42" y2="425.93"/>
        </g>
        <g>
          <line class="cls-7" x1="187.85" y1="385.27" x2="187.85" y2="386.06"/>
          <polyline class="cls-3" points="187.85 389.68 187.85 388.5 188.35 388.5"/>
          <polyline class="cls-3" points="187.85 385.77 188.35 385.77 188.35 388.57 189.47 389.69"/>
          <line class="cls-3" x1="189.94" y1="385.77" x2="189.94" y2="388.35"/>
        </g>
        <g>
          <g>
            <line class="cls-3" x1="172.85" y1="355.48" x2="173.9" y2="355.47"/>
            <polyline class="cls-3" points="172.86 354.41 173.83 355.47 176.7 355.47 176.7 355.83 177.21 355.83"/>
          </g>
          <line class="cls-3" x1="174.3" y1="354.06" x2="176.75" y2="354.06"/>
        </g>
        <polyline class="cls-3" points="178.26 422.65 178.26 421.72 183.35 421.72 183.35 422.65"/>
        <polyline class="cls-3" points="180.73 425.73 181.81 425.73 181.81 421.72"/>
        <line class="cls-3" x1="183.35" y1="423.55" x2="181.81" y2="423.55"/>
        <polyline class="cls-3" points="183.35 424.4 183.35 425.38 181.81 425.38"/>
        <line class="cls-3" x1="179.9" y1="421.72" x2="179.9" y2="425.79"/>
        <line class="cls-3" x1="178.15" y1="423.55" x2="179.9" y2="423.55"/>
        <polyline class="cls-3" points="178.26 424.4 178.26 425.38 179.9 425.38"/>
        <polyline class="cls-3" points="184.21 422.52 184.21 421.72 186.54 421.72 186.54 423.37 184.27 423.37 184.27 425.73 185.76 425.73"/>
        <polyline class="cls-3" points="186.6 425.79 186.6 423.37 186.84 423.37"/>
        <line class="cls-3" x1="187.46" y1="423.37" x2="187.85" y2="423.37"/>
        <polyline class="cls-3" points="178.26 427.11 177.81 427.11 177.81 434.77 178.37 434.77"/>
        <polyline class="cls-3" points="179.01 434.82 180.42 434.82 180.42 427.11 178.93 427.11 178.93 428.03 180.42 428.03"/>
        <polyline class="cls-3" points="185.11 418.24 179.37 418.24 179.37 420.09 185.11 420.09"/>
      </g>
      <polygon id="SE12_Outline" class="cls-3" points="170.37 355.48 172.85 355.48 172.88 352.65 178.05 352.65 178.05 355.48 187.85 355.48 187.85 372.01 189.19 372.01 189.19 375.26 187.85 375.26 187.85 384.45 191.43 384.45 191.43 389.67 187.85 389.67 187.85 409.76 189.24 409.76 189.24 413.05 187.85 413.05 187.85 440.07 170.37 440.07 170.37 427.39 166.95 427.35 166.95 422.18 170.37 422.2 170.37 413.01 169.11 413.01 169.11 409.58 170.37 409.58 170.37 391.41 168.73 391.41 168.73 389.67 170.37 389.67 170.37 375.35 169.17 375.35 169.17 371.94 170.37 371.94 170.37 355.48"/>
      <polygon id="SE12_Roof" class="cls-4" points="170.37 355.48 172.85 355.48 172.88 352.65 178.05 352.65 178.05 355.48 187.85 355.48 187.85 372.01 189.19 372.01 189.19 375.26 187.85 375.26 187.85 384.45 191.43 384.45 191.43 389.67 187.85 389.67 187.85 409.76 189.24 409.76 189.24 413.05 187.85 413.05 187.85 440.07 170.37 440.07 170.37 427.39 166.95 427.35 166.95 422.18 170.37 422.2 170.37 413.01 169.11 413.01 169.11 409.58 170.37 409.58 170.37 391.41 168.73 391.41 168.73 389.67 170.37 389.67 170.37 375.35 169.17 375.35 169.17 371.94 170.37 371.94 170.37 355.48"/>
    </g>
  </g>
  <g id="UserIcon">
    <circle class="cls-7" cx="149.47" cy="426.02" r="1.94"/>
    <line class="cls-6" x1="149.47" y1="424.08" x2="149.47" y2="427.96"/>
    <line class="cls-6" x1="147.53" y1="426.02" x2="151.41" y2="426.02"/>
  </g>
</svg>