<?xml version="1.0" encoding="UTF-8"?>
<svg id="Layer_2" data-name="Layer 2" xmlns="http://www.w3.org/2000/svg" width="614.2499" height="1827.1904" xmlns:xlink="http://www.w3.org/1999/xlink" viewBox="0 0 614.2499 1827.1904">
  <defs>
    <style>
      .cls-1 {
        fill: #21df00;
      }

      .cls-1, .cls-2, .cls-3, .cls-4, .cls-5, .cls-6, .cls-7, .cls-8 {
        stroke: #000;
        stroke-miterlimit: 10;
      }

      .cls-9 {
        opacity: .5;
      }

      .cls-2 {
        fill: #8da5b6;
      }

      .cls-2, .cls-3, .cls-5, .cls-6, .cls-7, .cls-8 {
        stroke-width: .25px;
      }

      .cls-3 {
        fill: #000;
      }

      .cls-4, .cls-10, .cls-7 {
        fill: none;
      }

      .cls-10, .cls-11, .cls-12 {
        stroke-width: 0px;
      }

      .cls-5 {
        fill: #fff;
      }

      .cls-6, .cls-11 {
        fill: #b5b5b5;
      }

      .cls-13 {
        clip-path: url(#clippath);
      }

      .cls-12 {
        fill: #dde4bf;
      }

      .cls-8 {
        fill: #7e7f7e;
      }
    </style>
    <clipPath id="clippath">
      <path id="walkableMask" class="cls-10" d="M215.7346,677.4063h40.1002v5.7373h10.9805v7.9727h-2.0974v6.0606h1.6816v6.7584h-14.9373v-14.0644c-3.3417-3.3995-35.7276-8.8252-35.7276-8.8252v-3.6394ZM215.7346,684.3522v42.802h8.2476c3.8394-3.8394,30.9994-15.4262,30.9994-15.4262v-5.6193h-5.8302v-14.6465c-4.1949-1.9197-19.5524-6.8571-33.4168-7.11ZM251.4977,717.2714l-28.2977,13.4378v3.7683l18.9836.0711,9.4562-7.3944v3.2706h3.3417v-13.1534h-3.4839ZM215.7346,738.9923v21.4365l8.0698-3.7327v-13.2245l-2.9862-4.4793h-5.0836ZM215.2725,795.4099s39.7091-2.7729,42.6598-3.946c2.9506-1.1731,1.7064-2.5596,1.7064-2.5596h-34.6611v-28.4754l-9.243,2.9862-.4621,31.9948ZM163.3697,720.823h6.1563l4.5765-14.4299h-10.7328v14.4299ZM210.8531,706.1087h-10.7328l4.5765,14.4299h6.1563v-14.4299ZM137.6353,692.5659l8.3618,8.3618,12.7512-12.7512v-9.9389l-21.7565-.8314.6435,15.1597ZM133.4383,694.733l-.1615,11.3758h-7.9809v6.8078h9.2963l9.8828-9.8828-8.3008-8.3008h-2.7358M115.3331,712.4544v-6.3456h-8.2384v-63.1575h-4.9861v59.2648c.3555,4.5148,3.0928,7.9987,5.1903,9.1719,1.0144.5674,8.0343,1.0665,8.0343,1.0665ZM91.0881,806.0215l33.0258,7.11,7.3944-.6399,9.7406-6.6123h11.2693v-33.6123l6.4123-32.349v-44.8607l-21.2365,21.2365h-39.8869v-54.6045l-6.7189.6399v143.6923ZM208.6513,796.2986l4.1238-3.2706v-8.2476l-6.8611-58.6572h-43.075v13.5978l-6.0884,34.4655v32.0005c8.8519,1.2976,51.9007-9.8885,51.9007-9.8885ZM266.8153,721.1936h-6.9162v18.1744h6.9162v-18.1744M251.9599,748.0575v4.1593l5.6524,3.1995v7.2522h4.0527l4.7345,9.5984h3.9287v-18.4504l-4.865-11.4203h-8.5974l-4.9059,5.6612ZM268.9773,742.3963l2.4726,8.7882c.6252,1.3545,2.529,1.4122,3.2352.0981l3.1441-8.8864h-8.8519ZM296.0372,742.3963h-14.1238c-8.5103,7.332-12.6053,22.6896,0,32.7146h21.0248v-12.3002h-10.2156v-5.9724h4.3855v-6.3279h-2.3463v-2.5596h7.2478v-8.5829h-5.9724v3.0283ZM311.7547,761.6198l.9954,12.5669h4.266l7.2522-18.3259h-2.7907v5.7591h-9.7229ZM326.5434,755.8607l-7.5366,19.8901h28.4398l3.8394,2.1685h53.4669v-22.0587h-78.2096ZM411.2941,730.7803v25.9158h-1.7064v9.4918h8.9497v-35.4076h-7.2433ZM417.7642,788.762c-5.4391-2.133-10.0082-.8476-10.2383.5332-.6736,4.0416,4.0527,18.4504,9.0652,23.1429l7.5899-1.2976,15.8197,1.2976v7.4121l1.7597,1.7597,2.133-2.133v-31.2483l-26.1291.5332ZM156.7506,820.0718h12.7979l5.9724-12.7979-18.1902,2.4174-.5801,10.3805ZM140.8243,810.2601l-3.8394,2.8714v4.3808l14.7887,2.5596v-9.8117h-10.9493ZM168.5422,824.5163v2.3463h71.5707v1.5286h19.8723v12.5846h16.5504v10.2021h5.2614v-34.5544l-6.5412-6.9678-49.9119.6043s-13.6511-11.2693-14.0777-11.2693-31.6749,7.9809-31.6749,7.9809l-11.0491,17.5446ZM105.1856,815.717l-6.479-1.5464v2.2396l-6.7331-1.4932-.4266,14.3621,13.6386-13.5621ZM90.9459,931.77c1.8111,5.2977,7.387,9.2683,7.387,9.2683l8.813-7.3424c1.381-1.1506,3.0077-1.9688,4.7548-2.3917l16.6526-4.031c1.7891-.4331,3.2384-1.7406,3.8527-3.4759l9.2714-26.1914-2.5596-72.9482-30.3951-7.2522-16.6373,17.0639s-2.9506,92.0029-1.1396,97.3006ZM164.4896,893.731h-18.084l-13.5445,35.4076-22.9296,5.5458-10.345,8.3187,124.4579.3566c12.452-1.3086,32.6612-15.5519,37.434-28.7602,4.5859-12.6913,6.5064-24.5354,5.8665-27.2016s-7.1463-5.0065-7.1463-5.0065v-5.9724h3.5728c4.3774-.1397,4.4894-8.1432,0-7.9454h-23.0896s-76.1921,25.2575-76.1921,25.2575ZM215.7346,798.9908l10.0181,7.2074h39.958l3.2665-2.4615v-12.0951l-20.046,4.5586-33.1966,2.7907ZM309.5081,806.8651v-23.6843h-24.8612v7.3314h-9.1244v13.0823l33.9856,3.2706ZM266.404,934.5778c8.7985-10.5583,16.2818-31.9949,16.0862-38.0561v-42.6598s-6.1521,0-6.1521,0c0,0,.5155,46.559-2.0619,54.6586-2.3887,7.5066-10.8882,20.0839-15.2241,25.4422-.8519,1.0528-.5587,2.4032.6497,3.0148l2.0423,1.0337c1.998,1.4301,4.6598-3.4333,4.6598-3.4333ZM225.024,635.6749v-21.6645h-19.5373v21.6645h19.5373ZM248.9135,630.6269v-37.5762h-52.5713v12.6298h44.9328v24.9463h7.6385ZM135.6873,636.6703h35.7631v-23.1074h-14.0777l-21.2588,21.2588-.4266,1.8486ZM150.7407,606.453h13.0665v-16.9217l-4.8768-10.2383h9.4272v27.1601h5.8302v-32.2792h-45.2884v16.9015h2.3442l2.4784-2.4784,1.8409,1.8409,15.1778,16.0152ZM110.6247,635.3194v-11.9796h-12.7653v11.9796h12.7653ZM102.1085,601.1916l18.5877-18.5877h-18.5966v-77.3968h-2.4243v10.5227h-1.816v74.5835h-2.3078v10.736l6.557.1422ZM166.5801,486.2235l-18.877-19.4102-29.9685,7.0389,2.9616,13.5445,45.8838-1.1731ZM175.6453,469.4796l11.8381-1.7064-2.9862-10.9849-9.5984,2.6662.7465,10.025ZM187.4834,456.7883l8.7453,12.6913,3.3061-16.424-12.0514,3.7327ZM209.0977,438.5157l12.3713-2.2752,4.5504-14.6465-26.4846.5688,9.5629,16.3529ZM241.2347,430.8369l.1422-9.243h-11.5735l-3.7841,12.5135,15.2153-3.2706ZM174.8988,422.7316v19.7657l27.8-6.5412-7.6788-13.2245h-20.1212ZM144.8236,422.9307l13.2245,24.2591,13.0823-5.688v-18.5712h-26.3069ZM108.8472,439.5111l5.2614,18.3437,40.1002-10.6649-14.0777-24.2591h-21.7565l-9.5273,16.5804ZM104.2968,422.9307l3.8394,12.1296,7.3944-13.0397-11.2337.9101ZM414.0626,813.424c-9.7609-10.2383-9.6898-25.7951-9.6898-25.7951l-41.4511-.4406-.4266,29.2219,50.694.3555.8734-3.3417ZM299.9985,706.7035h4.8348v-23.8184h-4.8348v23.8184ZM309.8103,690.6708h5.9724v3.6794h5.688v-5.5639h-4.6926v-19.7657h6.7722v-14.7532h-13.74v36.4033ZM326.5187,674.3088h22.4497v-13.1625h-14.9309v-7.9454h-7.4655l-.0533,21.1079ZM353.8743,664.0437l10.025-10.025h-10.025v10.025ZM371.7381,663.7549v4.7147h26.5557v-5.9898h4.3019l-8.6212-8.6212h-26.3957l-10.185,10.185,14.3443-.2888ZM397.4939,653.8587l6.239,6.239v-6.239h-6.239ZM369.0185,698.6514l2.5221,5.8309h23.7137l1.4467-6.7552-27.6824.9243ZM247.5339,494.7295v-5.9724h-22.5099v5.9724h22.5099ZM203.2211,487.904v11.6159h18.557v-11.6159h-18.557ZM166.9247,411.5785v-100.4638h-76.4054v58.2306l3.0306,5.1192h8.2387l-3.9292,37.114h69.0653ZM166.9247,307.702l2.7729-5.3325-9.6073-8.532-7.2433-8.3187v-24.7427h-5.7591v10.8782h-8.7453v36.0475h28.582ZM170.9774,299.8099c.4622-3.7683,10.345-9.2074,13.4378-9.4874.3911-6.0833-7.0033-6.0833-9.2074-10.3848l-.1778-34.0923h-18.317v36.2305c0,1.3914.5214,2.7325,1.4613,3.7584l12.8031,13.9758ZM179.8915,313.9943v-6.2923h21.481l24.0317,19.8012,7.4655,10.7716h5.0125v-33.9145h-11.5181v-6.5056h-41.38c-2.9506,0-9.7051,5.2614-9.7051,9.7051v6.4345h4.6126ZM230.0256,338.9858l-4.6215-8.3542h-26.4491v9.3141h29.1508l1.9197-.9598ZM181.3579,325.7968h-5.3325v21.7565h5.3325v-21.7565ZM176.0255,375.2822h9.0652v-21.6498h-9.0652v21.6498ZM176.0255,397.0387h9.0652v-16.2107h-9.0652v16.2107ZM175.0301,198.173h12.0958v-24.3161h-16.5543v8.8164h4.4585v15.4997ZM157.3974,195.1868h8.2476c1.7064-12.9401-2.5596-15.7841-2.5596-15.7841,0,0-5.688,7.0389-5.688,15.7841ZM154.0229,257.7549l-.1048-65.3409c1.0619-5.1192,7.0343-12.7979,7.0343-14.4332s-1.9908-1.9197-3.555-2.133-15.1442,0-15.1442,0v5.6169h7.0389v69.3221l4.7309,6.9682ZM187.828,289.536h38.3938v-4.1238h14.7887v-37.114h-4.4082v27.5867h-58.7283c0,9.1363,9.9539,4.0882,9.9539,13.6511ZM97.887,272.7921v-19.3746h46.7125v-20.5122h-51.405v39.8869h4.6926ZM59.2088,398.1407h18.3814v-10.2384c-.644-2.9912-5.2226-8.3045-7.0766-14.1488-2.5528-8.0474-2.4413-16.5662-2.4413-16.5662h7.205v-3.8394h-7.1055v-36.6519h6.6789v-4.9059h-6.399v-30.2529h6.8256v-9.634h-6.399v-38.1805h7.0389v-2.5596h-7.2522v-38.8204h6.8967s.711-14.7532-1.3103-17.5127c-2.0213-2.7595-13.825-1.7166-13.825-1.7166l-1.2176,225.0272ZM81.7098,455.4472v-12.9499c0-11.6507-3.5174-20.4767-21.0079-20.4767v23.1881l21.0079,10.2385ZM60.7019,472.6531l15.8908,17.7038v-23.5436l-15.8908-7.2781v13.1179ZM58.5689,554.7021l-.711,8.2476-2.2752,27.3637c2.7729,4.009,3.3595,17.6068,0,21.4106v23.5955h25.1693v-15.7029l-5.5458-3.911v-121.9359l-16.2203-16.6647-.417,77.5971ZM60.4264,952.0592s3.4839,10.9502,7.7499,15.6784c2.5596,4.3371,11.8293,20.9276,14.9309,32.2081.5213,1.8959,18.8105,39.1201,25.7714,45.2549,2.5521,3.815,13.6178,52.436,18.026,56.2754,6.9501,6.0533,6.79,47.8856,10.8071,55.5999,0,8.6742,5.6691,33.6143,2.844,44.224-.3037,1.1404,1.3153,129.899,1.3153,129.899,0,0-.4842,83.0712,2.5596,85.8528l.2133,12.3182h7.9543c3.3425-.2135,4.7417-2.9915,4.7325-6.3408l-1.6041-255.6615c-1.7694-16.3182-19.4872-92.9352-26.8757-111.7686-7.2522-18.4859-27.7289-67.2602-34.7677-78.0674l3.6261-2.9862-9.9508-22.4862h-27.3321ZM57.8934,644.0565v134.4138l15.5266.1162c7.9807,0,13.2065-14.8516.613-14.8516l-.6067-82.6661,9.112-5.6574-1.7864-31.3549h-22.8585ZM75.0996,810.3052h6.1857v-11.4116c0-4.1059-6.9233-7.2521-11.0693-7.2521h-12.3225v115.3414l3.6705,41.5933h10.9138v-2.5596l12.5682-.0871-3.7607-8.4982v-61.8567h-6.1857v-65.2695ZM169.6976,162.8187l-15.7795-13.6511v-4.5948h-72.4462v-5.5458h-11.3759v-58.1151h-7.7143v81.9068h107.316ZM225.5497,161.5445c1.0309-.0258,1.3025-1.4367.3549-1.8434l-20.3994-10.1069-3.0928-4.1593-45.0149-.8621v3.1728l17.3216,15.0731,50.8307-1.2742ZM205.0786,145.1149l25.0626,11.8381.6399-10.9493-5.4021-4.4483c-3.9475,4.7327-8.1779,3.1329-20.3004,3.5595ZM232.9674,144.0458v-50.8069l.4444-20.0412,4.5415,3.9816v-8.1142h-14.4243v4.4082h6.5412v59.6997h-7.6227l10.52,10.8729ZM289.4544,159.031l7.5288-7.5288-2.248-2.248h-11.2337v4.4416l5.9529,5.3352ZM301.7029,155.7799l-2.4174,4.4082v2.6307h14.7887l-12.3713-7.0389ZM318.0559,144.0458l-6.399,8.7479,4.5504,6.5056,7.3055.6043v2.9151h9.8243v-18.7729h-15.2812ZM361.8532,149.2542v6.5257h4.6926v-6.5257h-4.6926ZM361.8532,162.8187h4.6926v-2.3463h-4.6926v2.3463ZM582.902,163.7075v-7.8921h8.3187l-2.9122-55.8879-1.2472,51.9418h-6.1679v11.8381h2.0086ZM586.057,158.8016v4.9059l3.8838-4.9059h-3.8838ZM587.9989,257.8434h3.2217v-41.3267h-3.0928l-.1289,41.3267ZM587.9989,204.3054h3.2217v-24.5827h-8.3898l5.1681,24.5827ZM250.2979,248.2983v36.0653h17.2772v5.9724h9.1008v-4.6926h9.8117v4.6926h10.0961v-42.0377h-10.8071v3.555h-25.8447v-3.555h-9.634ZM299.2856,248.2983v27.7644h11.9447v-27.7644h-11.9447ZM335.8308,276.0627h10.2383l3.2706-12.1047v-15.6597h-13.5089v27.7644ZM298.4324,291.1891h47.068v-13.0823h-47.068v13.0823ZM352.1837,270.0014l7.2522,5.4036,5.4036-20.4767-4.5504-6.63h-8.1054v21.7032ZM365.4082,248.2983l3.5905,4.7814,41.1667-1.2265v-3.555h-44.7572ZM366.1192,279.2444v11.0915h7.821v-3.9816h13.8467v2.9862h7.4121v1.8486h10.5583v-11.9447h-39.638ZM366.1192,313.0345v27.2134h36.403v-27.2134h-36.403ZM453.785,290.0515h7.11l7.11-10.8071v-18.7703l-5.9724-7.9632v-4.2127h-8.2476v41.7533ZM427.0516,248.2983v17.8105h-18.4859v25.0804h23.0363v-1.1376l15.9263-.711v1.8486h3.4128v-42.8908h-23.8895ZM408.5657,302.9916h11.8559v-3.555h-11.8559v3.555ZM385.9382,299.4367v2.7018h16.584v-2.7018h-16.584ZM358.5115,301.2141h-59.226v8.4609h59.226v-8.4609ZM247.0273,309.675h49.5564v-10.2383h-49.5564v10.2383ZM247.0273,340.39h10.4339v-9.9539h4.4971v9.5273h5.688v-9.243h16.7795v10.6649h4.3549v-10.6649h3.8927v10.0961h3.9105v-26.7868h-49.5564v26.3602ZM298.4324,313.0345v26.5024h12.7979v-5.2614h7.3233v5.2614h7.821v-5.4036h17.8282v6.1146h14.3088v-27.2134h-60.0792ZM366.1192,353.4724h25.9514v-9.1719h-25.9514v9.1719ZM333.5556,344.3005v6.6123h9.4562v18.3437h-11.6603v41.1489h30.3595v-66.1049h-28.1555ZM320.5443,344.3005v4.266h8.3542v-4.266h-8.3542ZM311.2303,344.3005v3.4128h6.7686v-3.4128h-6.7686ZM287.2697,344.0872v7.2522l17.9882.2133v-7.2522l-17.9882-.2133ZM263.5224,344.3005v8.532h19.0547v-8.532h-19.0547ZM422.4301,309.8883h31.3549v-10.4516h-31.3549v10.4516ZM456.2735,298.5124v41.7355s9.8117,1.6353,9.8117-3.7683v-30.004c0-5.8302-9.8117-7.9632-9.8117-7.9632ZM444.551,333.7778v6.7025h7.421v-5.7072l-7.421-.9954ZM420.4215,331.9292h-10.2561v8.5511h10.2561v-8.5511ZM430.2511,423.3633v1.8486h-24.4938v.8532h-11.1982v8.532h-6.5412v6.8256h7.5366v-2.5596h42.5176v-4.6926h-2.844v-10.8071h-4.977ZM380.9435,423.9676l-3.7327,3.7327h-8.6742v2.9151h10.5227l2.2752-2.2752h9.8117v-4.3726h-10.2028ZM369.532,434.8814l-7.2522,7.2522h23.3207v-7.9632l-16.0685.711ZM349.3397,444.551l-5.4036,8.1054h41.6644v-8.1054h-36.2608ZM388.0179,444.551v7.3944l17.7394-7.3944v-3.8394h-7.501v3.8394h-10.2383ZM408.779,444.551h28.582v-3.8394h-28.582v3.8394ZM442.9068,459.7663c-.4266-.1422-11.3759-7.11-11.3759-7.11l-22.7519.5688v9.4641h27.0319l7.0959-2.923ZM384.8895,465.8809l6.2568,2.6408,14.611-4.4894v-9.3417s-20.8677,7.0171-20.8677,11.1903ZM391.5729,488.9172h-4.4082v22.6175h-14.2199v3.3061h18.2015l.4266-25.9237ZM426.7672,492.401v18.2015h-10.1531v4.2383h19.1969c.5118,0,0-8.0776,0-8.0776h7.0959v-14.3621h-16.1396ZM378.0639,520.1299v8.532l-19.4813,27.8433v7.2522l11.3759,6.8533h23.3207l23.3348-5.5458,19.1969-.1422v-26.5913h7.0959v-16.9217l-7.0959-1.9908-57.747.711ZM437.7876,565.4914h4.1238v-11.8025h-4.1238v11.8025ZM364.0573,521.4097v6.2923h10.1317v-6.2923h-10.1317ZM331.1168,591.8694l17.8517-21.2588v-3.4839h-17.8517v24.7427ZM349.6596,575.5165l-16.9217,19.3825v2.8273h5.2614v-7.2788h31.1239v7.0683h6.1323v-18.0176l-2.3107-3.4128-23.2851-.5688ZM439.8495,591.3006v6.4256h2.0619v-28.8931h-25.2974l-17.6113,4.8348h-20.4767v16.7795l61.3234.8532ZM293.0643,499.2977v12.2291h3.6972l4.6215-4.6215v-3.9105l-4.3015-4.3015-4.0171.6043ZM310.2705,526.1634l5.1419,5.1419h5.4305v-5.9432l-2.844,2.6598h-3.0003s.3199-2.844,0-3.4128,3.0003-1.1376,3.0003-1.1376v-4.977h-7.7284v7.6688ZM320.8429,555.7508h5.2117v-11.9447h-4.5504l-.6613,11.9447ZM320.8429,572.9569h5.2117v-13.0823h-5.2117v13.0823ZM333.3778,600.3303h-4.0527l-5.0259,5.0259v31.3772l3.8193-3.8193v-28.786h5.2592v-3.7977ZM332.7379,632.6095l-5.4036,6.399h6.0435l.4266-6.399h-1.0665ZM316.6803,639.755l4.1626-8.5675v-9.4918l-2.6093-1.073h-26.0849v9.3205h19.2594v9.8117h5.2722ZM293.7682,610.5331c-.1166.1166,0,6.7835,0,6.7835h27.0746v-6.7835s-26.958-.1166-27.0746,0ZM320.8429,599.2689l-7.6218,1.1865v7.2805h7.6218v-8.467ZM307.7464,430.6155v3.555h38.7848v-10.2028h-16.3885c0,5.9013-11.1271,6.6478-22.3964,6.6478ZM108.8785,948.5762l-12.1914,2.2752,4.1677,10.9687,9.1213-3.9603,39.6619,83.832,5.493,15.1692-6.399,3.8394v9.4432l5.1536-2.5882-1.0545-6.225,36.7552-6.6024,1.9216,6.4535,5.2165-5.3248,1.2798-17.9793,2.3463-4.0527,4.8259-4.266h1.9997l5.5458-2.7729v-5.7591l3.4128-6.1857,5.8924-4.7903h5.4125l10.7983,8.4164,1.5464-3.8394-1.5464-21.3299,14.7976-32.2081v-15.7841l-4.8525-2.2102-14.3533,9.0027-124.9508-3.5219ZM294.9751,859.7017h-8.532l-1.1998,44.3662,5.7591,12.9825,13.6511-14.4756,17.0639-2.7729,2.7729-4.9947v-10.1495l2.9862-.2133v5.3325l2.7729,1.7064h6.8256l6.399-3.1072,1.7064-5.2115-7.2522-1.4931v-2.9862h7.2522v-3.4128l-2.9862-6.8026-7.2522-1.0895s.2133-16.621,1.2798-16.2026,17.9171.6317,19.6235.6317,4.266,14.291,4.266,14.291v7.6788h-8.532l.4266,5.1192,8.1054.6399,10.2383-2.3463,4.6926-2.9862,3.4128-5.7361,1.2798-30.5247,8.5441-3.6261v10.025l21.5311-.4266-1.0665-20.69-113.7683,36.4741ZM352.0059,884.6577v5.5458l10.4892,5.8647h11.9072l5.9724-2.6652,5.3325-6.6123v-6.8256l-2.5596-2.5596-31.1416,7.2522ZM385.7072,872.073l7.4655,1.7064,10.6649-8.3187,5.9724-9.5984-2.3484-3.1995h-14.5022l-5.5458,4.266-1.7064,15.1442ZM390.8263,889.5635v12.5846l6.9322,13.6511,6.5056,9.8117,3.4128,10.4516,2.133,9.8117,4.266,11.3048,6.6123,1.2798-1.7064-6.1857-4.0527-15.1442-3.4128-13.1179v-4.0764l-1.7064-7.975-4.0527-4.4793-2.5596-4.4793-1.2798-5.1192-1.0665-5.3325.2133-2.9862h-10.2383ZM379.3793,904.2101v49.7697l24.6716,12.158,1.7064-3.8394,4.0527-6.399-2.3463-11.9447-3.4128-10.2383-3.6261-9.7051-7.4655-11.6248-4.266-8.9586-1.0665-12.7979-8.2476,13.58ZM364.0218,900.5129l-4.5504-2.1952-5.9581-2.7522-5.9866-.7584h-4.5504s-7.11.0178-8.2476,0-7.11,3.5105-7.11,3.5105l-3.9816,7.5971-16.5573-1.7047,1.1998,58.5861,1.1376,4.8348,3.1284,18.2015,2.4529-2.5596,4.9414-6.5412,4.8348-6.2568,4.5504-4.3371,6.2568-4.1949,8.532-4.8348,9.3852-1.9908,9.1008-1.422h12.5135v-47.7806l-1.7064-5.4019h-9.3852ZM290.5048,920.8474l-17.2772,17.4269,9.2664,12.4349v25.8092l4.1714,15.3575,2.3463,28.3687,2.604,14.291,2.5151,14.9309v15.3575l6.1857,45.4327v20.69l1.2798,6.399,5.4836,22.1831,2.1952,7.6788,1.7064,9.5984-2.133,5.6702-.6399,21.4188,3.4128,6.6123-.2133,4.4793,1.7064,11.5181h5.9724l1.2387-3.4128,5.1603-6.4523,2.5596-17.0106,8.9586-32.848,2.0508-19.6235-9.7295-11.3048-10.2383-23.0363-17.4905-142.2703h3.6261v-23.6762l-14.7176-26.0225ZM292.851,918.7144l12.3713,22.6097v-35.4093l-12.3713,12.7996ZM273.2275,933.2187l15.9974-15.1442-6.731-8.7453-9.2664,23.8895ZM267.4646,941.3241l-3.7822,5.2908-5.1182,16.0391-5.529,12.2265,5.529,6.9704,7.1356,3.9816,13.7133-14.2199v-18.557l-8.8841-12.7358-3.0645,1.0043ZM279.4132,975.6652l-10.2383,10.1672v8.6031h-5.3325v-5.7146l-12.7517-8.389-1.8945,5.5006,3.8391,4.4793-.9954,3.555-5.4036-2.9862-.2871,11.8027,6.6861-1.1377-.8532,3.9816-6.9678-1.2798-.5688,7.11,6.5833,27.7731,11.9026,14.7444,8.3898.8532,16.0685-25.1693-2.2752-18.9125-12.0869,6.6834,1.422-7.2788,9.6695-3.4312-4.9059-30.9543ZM278.2223,1054.728l4.4793,17.1172,8.6031-.8532v-21.9698l-3.3417-16.2552-9.7406,21.9609ZM259.5231,1080.0217l4.6926-7.6077.2844-14.5043-12.9401-13.0823,7.9632,35.1943ZM263.3269,1094.3838l2.5596,7.2522,22.9296,7.3588,1.9197-11.4115-11.7314-6.8256-15.6775,3.6261ZM416.7955,981.6553l2.9862,5.6791,3.1995,8.4032,3.4128,11.3002,1.8397,23.4629,1.9997,20.0501,3.4128,19.6235s2.3463,18.3437,2.5596,19.4102.8532,14.5043.8532,14.5043c0,0-3.4128,17.7038-3.6261,18.557s-8.1054,16.6729-8.1054,16.6729l-9.8117,8.8875,11.0915,1.5286,7.6788,5.5458,5.9724-12.5846,4.266-17.9171-1.0665-15.7841-.8532-18.2371,4.0527-14.1844-4.266-4.7281-4.9059-1.6708-2.133-4.6926,5.3325-4.6926v-14.7176h-8.3187l-2.7729-6.8256,2.9862-4.6926,5.5458-4.9059-7.0389-21.7565-6.6123-20.5567v-18.477l-5.1192-4.9059-9.5451,7.4655,6.9855,10.2383ZM391.7684,1159.9732l-10.8071,1.2798-18.4859-1.2798-12.2291-4.6926-7.9632-5.4036-1.3198,17.3483,7.0078,2.844s13.0823-.8532,15.0731-1.3153,15.9263-3.5194,15.9263-3.5194h15.0731l20.1923-3.6972-4.426-9.6695-18.0415,8.1054ZM314.9986,1008.531l12.4958,102.9387,5.4036,14.8478,6.1568,8.202,8.9164,8.8164s7.9632,3.7683,8.8164,4.8703,11.6603,4.2304,11.6603,4.2304h10.9316l15.2153-1.1376,8.8341-4.8817,12.2291-10.0499,7.11-10.0499,3.9816-10.8171,1.4842-9.1363-1.4842-15.6064-2.5596-20.6141-2.5596-18.0285-2.5596-19.5299-1.7064-12.6783-1.7064-14.5043-2.844-13.6511-11.0915-16.0863-14.5043-9.5273-15.6019-4.817h-11.9847l-10.8071,2.6307-11.3759,6.1857-10.2383,8.8164-6.5412,10.5227-3.9816,11.6603-1.6886,7.3944ZM92.5101,462.1304h10.4516v-9.0748l-8.1054-5.8657-2.3463.9695v13.9711ZM92.5101,471.7288h13.0112v-4.4793h-13.0112v4.4793Z"/>
    </clipPath>
  </defs>
  <g id="roadsAndPaths">
    <rect id="road" class="cls-8" x=".125" y=".125" width="613.9993" height="1826.9404"/>
    <g id="walkable" class="cls-9">
      <path class="cls-12" d="M583.8707,1545.1376s.6569,24.6099.8648,41.63c.0271,2.2227-1.2533,4.2438-3.269,5.1807l-2.6046,1.2106c-1.1821.5494-2.5587.4825-3.6819-.1789l-3.5166-2.0709c-.6778-.3991-1.1042-1.1173-1.1303-1.9034l-.3468-10.4603c-.0251-.7571.096-1.5119.3567-2.2231l1.1944-3.2585c.8078-2.2036.7697-4.6285-.1069-6.8057l-.8838-2.195c-.3253-.808-.5056-1.6671-.5326-2.5377l-.4213-13.5792c.0275-1.1653,2.2752-2.8795,3.3061-3.5194,2.844-1.9908,9.7051-1.422,10.7716.711Z"/>
      <path class="cls-12" d="M558.0082,1640.5533c0-1.1731,1.4842-2.4352,2.6573-2.4352h19.1248c2.3636,0,4.2538,1.9558,4.1991,4.3188-.6166,26.6202.2114,50.8383.5096,81.2496l-11.051-.7665c-4.2112-.2569-8.3013-1.4981-11.9559-3.6062-2.7517-1.5872-3.5426-3.0998-3.4839-3.8038.0711-.8532,7.5366-1.0309,7.5366-1.0309l-.1401-72.0783-4.8013.0011c-1.2369,0-2.5951-.6117-2.5951-1.8486Z"/>
      <path class="cls-12" d="M589.4336,166.451c2.628.0113,5.8397-2.684,5.8397-5.312l-1.7064-119.5896c-.1156-4.1861-.8709-6.0524-4.8081-6.0524l-319.6513,2.6197c-2.8299,14.5599-11.6463,24.0161-22.0979,29.8463-1.6048,2.627,1.4931,7.7587,3.877,8.1587,1.7374.2915,19.3193-21.7565,19.3193-21.7565l5.1192,5.1192-18.8414,21.401h15.8374v11.5181h6.3456v26.218h-2.9151v44.8372h-33.7723l2.4263,2.4263h90.7853v-10.1495h17.2772v-9.5629h6.2568v17.0639h-6.2568v3.4128h21.7565v-20.6189h5.688v19.4813h19.0547v-3.8394h-7.6788v-66.8336h11.2337v-6.2568h13.0823v-12.0869h5.5458v-6.2568h33.4168v40.3846h3.2706v-50.1963h-6.9678v4.8348h-51.4761v-8.9586l-121.8648.4266c-5.2614.1422-5.5458-9.6695-1.8486-9.243h50.0976c.9832,0,1.9358.3416,2.6949.9664l1.6428,1.3521c.7753.6381,1.7503.983,2.7544.9744l9.6806-.0827c.8103-.0069,1.6-.2559,2.2677-.715l2.4036-1.6524c.7308-.5024,1.5975-.7697,2.4843-.7663l107.2071.4212c3.4733.1098,9.1008,5.9013,9.1008,12.7979h3.0573v-9.8117h119.7318l-.711,70.3531v30.004h-6.4701v11.5181h-64.6296v-11.3048h-2.7729v10.5938c0,2.5596,3.0573,4.266,6.5152,4.0218l68.6986.2949Z"/>
      <path class="cls-12" d="M326.6234.125c.3377,2.3552,0,11.4915,6.8256,11.9181l250.9817.3555c3.0896.0005,8.8164-6.1146,8.8164-12.2736h-266.6236Z"/>
      <path class="cls-12" d="M310.5548.125c-1.422,2.3907-2.4174,9.7851-28.8685,10.6911,0,0-214.6856.5273-220.5813.5273S52.952.125,52.952.125h257.6028Z"/>
      <path class="cls-12" d="M.125,17.1178C8.4081,15.838,13.9539,8.1593,14.3449.125H.125v16.9928Z"/>
      <path class="cls-12" d="M606.6759,1275.6786v526.9286c-.1244,4.0171,7.3588,8.4964,7.3588,8.4964l.0889-544.3743s-7.4589,2.3371-7.4478,8.9493Z"/>
      <path class="cls-12" d="M614.1237,686.8052s-8.7453,36.723-9.5452,53.4853l.871,504.2557c-.0254,8.3185,8.5853,9.5629,8.5853,9.5629l.0889-567.3039Z"/>
      <path class="cls-12" d="M614.1249,9.6968c-2.001-1.2798-3.552-5.9699-3.5295-9.5718h3.5295v9.5718Z"/>
      <path class="cls-12" d="M52.7239,165.726l.2986-113.0987c.445-6.3942,6.3463-10.518,11.7498-10.6602l186.8179-2.132c3.7547.0242,5.4266,8.5221.3075,13.9612-4.8603,5.1641-17.3286,5.4747-21.1877,5.4747v-6.2923H76.2105v10.5405h-6.1146v75.5078h11.3759v5.5458s137.1228,0,137.1228,0c1.0974,0,2.1831-.2254,3.1898-.6623l2.5027-1.0862c1.5018-1.0513,1.9349-3.085.9917-4.6569l-3.7615-3.1104c-.5922-.7421-.0638-1.8398.8857-1.8398l7.667-.0914-.5688-59.6526h-5.9724v-4.4082h14.4243v8.6742l-4.9859-4.9859v20.4856l4.2704,4.2704v6.9633l-4.7215,4.7215-.3293,45.4902c-.0455,6.2851-5.091,11.3886-11.3755,11.488l-168.0877-.4462Z"/>
      <path class="cls-12" d="M51.1923,399.2428l.9648-226.4792,19.5428.8271c1.9143.127,3.4348,1.6589,3.5474,3.5741l.3144,15.1782h-6.8967v38.8204h7.2522v2.5596h-7.0389v38.1805h6.399v9.8117h-6.8256v30.0751h6.399v4.9059h-6.1857v35.8342h5.7591v4.0527h-6.399s.3248,12.4776,3.0573,18.1304c1.3504,2.7938,3.5982,7.0082,5.066,9.7249.9474,1.7536,1.4403,3.7093,1.4417,5.7024l-.0021,10.1685c-.3247,2.5203-3.9751,7.3398-6.5056,7.5721h-16.424c-2.6129-.1066-3.4661-6.079-3.4661-8.6386Z"/>
      <path class="cls-12" d="M49.1325,781.6253v-350.5061c.0516-4.741,5.0446-8.4701,9.7764-8.1717l11.0716-.0167c4.1162.9137,11.1625,7.4892,11.7313,18.8652l-.1422,48.561h-7.11l-.4266,125.3486c5.5458.4266,8.6653,5.5458,8.6653,10.0429l-.9865,46.4102c0,2.9785-1.8486,8.8164-8.9586,8.9586l1.2798,82.6178c6.8256.2844,7.4089,4.3325,6.6834,8.1054-.711,3.6972-3.4128,9.243-8.3898,9.3852l-23.1942.3998Z"/>
      <path class="cls-12" d="M137.5152,1429.3699c-.2449-91.2274-1.0883-195.8989-3.403-265.4507-3.5669-26.3061-20.1212-89.4433-24.1028-98.544-4.0783-9.3219-40.8748-84.0413-47.7789-96.4111-10.2384-18.3437-15.7842-44.5795-15.7842-63.1365,0-12.2512,1.8842-114.186,1.8842-114.186h23.8068c4.1178.2866,8.2197,3.23,9.1478,7.2521v11.4116h-6.1857v65.2695h6.1857v61.8567l16.424,37.114-3.6261,2.9862c7.0389,10.8071,27.5156,59.5815,34.7677,78.0674,7.3885,18.8334,25.1063,95.4504,26.8757,111.7686l1.6041,255.6615c.0091,3.3493-1.39,6.1273-4.7325,6.3408h-15.083Z"/>
      <path class="cls-12" d="M329.6011,1693.1387c-54.3752-38.1943-109.6665-69.001-182.7979-68.4273l-9.4915-7.6387s.227-79.7694,0-178.2468h19.7942c3.7591.4386,6.6072,3.6011,6.6513,7.3853l-.352,122.727c1.4838,20.7152,8.1054,28.582,26.2358,34.7677l94.918,39.0337,51.9216,34.957c2.5474,1.7751,3.1451,5.2937,1.3268,7.8104l-8.2063,7.6317Z"/>
      <path class="cls-12" d="M583.5658,1144.0213c-.2305,45.6287-.5581,175.9081-.5581,175.9081-.0791,2.8441-15.0286,4.0884-19.6053,2.9863,0,0-12.7989-3.4557-15.6682-4.2304-2.8691-.7746-61.3233,0-61.3233,0l-20.1568,20.1568v7.6787h-7.892v140.7772h7.3587c-.2413,8.413,1.0121,14.7081,7.2522,15.2331l72.3083-.5333c7.6724-.3783,8.8115-3.9389,13.4377-4.6215l21.057-.0236c2.0726.1303,3.7031,1.8113,3.7588,3.8873.1167,4.354.0318,25.1685-1.0685,30.8152-.6519,3.3461-8.9255,2.4693-11.7314.5332-3.5923-2.4788-8.3371-7.935-10.3612-11.8814-1.4871-2.8993-2.5448-8.3278-3.4855-8.3905h-37.6472v21.9882h34.661l1.5642-5.058,5.688,8.2476v56.3109h-1.5642v-6.1146h-37.5407v6.5652c-.5026,1.5671-5.1996,1.7585-5.9724.3056v-6.0176l-8.569.1332c-.6347.0099-1.2111.3723-1.495.9401l-1.6237,3.2476c-1.0107,2.0214-1.5368,4.2504-1.5368,6.5104v11.4939h12.9402v-6.1146h4.9768v6.1146h26.4491v-4.5504h2.9862v4.5504h19.6236l-.1314-3.5251c0-2.7963.0816-3.6648,1.918-3.7575l9.4648.0304c2.4173.0711,3.419,1.2087,3.3417,3.9105,0,0,.782,17.5616-2.6307,17.5616h-124.3539c-6.4319.2959-15.6015,9.4958-15.9258,15.9263v70.673c0,4.7864,7.2804,21.7789,9.9702,25.7381,4.9793,8.5067,15.9415,18.819,28.7792,21.6499,8.5684,1.8894,19.9756-1.4358,23.6257-3.9317,9.1186-6.2355,9.8623-21.3797,9.8623-21.3797v-20.1212h-25.2582v-14.4865l-7.4655-7.2522v-16.2107h7.4655v-3.4128h-6.1857v-9.1719l-1.5997-1.5997v-13.9711h7.3588v-11.0915h-4.6926v-2.9862h65.4828v55.0311l-3.4128,11.3048v11.5181h-16.8506v8.9586h-6.8256v41.1667h22.6097v-36.2608h-6.6123v-4.4793h8.3187s16.1861,7.6722,18.2193,8.052c4.8525.9065,19.2168,3.0384,19.2168,3.0384.2284,23.2989.6646,45.9494,1.1752,65.5882-.6399,3.7327-3.9654,7.7524-8.0918,7.4678-78.8495-5.4391-118.5231-22.6452-158.4455-48.0889-25.7072-17.3461-51.8855-35.5831-75.8722-53.2014-2.0934-1.5376-1.4109-6.7543.0711-8.8875l4.4876-5.1559c2.0326-2.356,5.5352-2.7529,8.0434-.9114l22.5922,15.879c6.3481,3.2236,19.7853,2.909,24.7483-2.1958l17.3427-26.2441c9.9895-14.8954,15.1087-33.5235,13.6511-65.8738h5.7591v-104.3031h-6.8256c-.4266-13.1143,21.1889-183.6936,21.1889-183.6936.9205-7.0829,6.9042-12.4143,14.046-12.5147l96.1572,1.0398,3.8038-3.0573h10.025l.0355-166.9419,6.1563,3.325Z"/>
      <path class="cls-12" d="M574.5098,882.9192c-2.0678-.5373-3.7303-2.8365-3.7303-4.973v-12.9537c.0675-1.7953,1.4427-3.2689,3.2291-3.46h3.3452c2.318,0,4.2018,1.8703,4.2184,4.1883l1.8927,264.2219h-6.1443v-243.3944c0-1.6943-1.1396-3.1949-2.8108-3.6291Z"/>
      <path class="cls-12" d="M583.0006,1334.9671c-17.0358-.9436-40.8618-8.6285-51.1429-8.0462-4.6629.2641-6.8369,5.8934-3.5673,9.2283l26.3761,27.9154-.4266,86.1727c.0712,8.3187,5.5976,10.4516,10.5745,10.4516l18.4698.2489c-.2185-39.0741-.2945-82.6437-.2836-125.9708Z"/>
      <path class="cls-12" d="M579.4506,1488.2757c1.8323-.1112,3.286-1.5857,3.3713-3.4193v-11.245c0-2.0615-1.6712-3.7327-3.7327-3.7327h-5.6324c-2.2265.4485-7.4262,4.6443-8.0589,6.8256l-1.2652,7.919c-.3094,1.9154,1.1696,3.6525,3.1098,3.6525h12.2081Z"/>
      <path class="cls-12" d="M475.2305,1479.2105c0,1.5277.8054,4.5887,1.7074,5.8216,2.3213,3.173,6.6521,7.808,8.6909,7.7099l59.1549.0077c2.7004-.1299,6.1709-3.0032,7.821-5.4872l4.6511-8.1853c.7392-2.8644-1.5436-8.1395-4.5015-8.1853h-71.4291c-3.1343,0-6.3103,5.1918-6.0947,8.3187Z"/>
      <path class="cls-12" d="M499.9198,1369.302l2.3545,84.273c0,2.9942-2.3328,5.47-5.3217,5.6479l-14.9499-.0981v1.8131l61.9633,1.813,2.7602-89.9632c.0761-2.4788-.8866-4.8767-2.6556-6.6148l-18.3552-18.7146c-1.7618-1.731-4.579-1.7527-6.3672-.049l-17.4704,17.2144c-1.2527,1.2344-1.9581,2.9196-1.9581,4.6783Z"/>
      <path class="cls-12" d="M494.1033,1327.5125l19.9556-.1013c3.5815.6071,5.1982,4.8341,2.936,7.6763l-23.8153,25.9141-1.3142,83.5215c-.1443,3.2552-1.9884,6.1941-5.6145,6.68l-9.4385-.0022c-2.0797.0025-2.4885-6.1894-.8626-6.1022h4.3287c1.7242-.0872,1.7242-2.972,1.7242-2.972v-94.3439h-7.6788v-4.6926l13.4761-13.557c1.6479-1.6578,3.9986-2.4114,6.3033-2.0207Z"/>
      <path class="cls-12" d="M469.1001,1629.5842s-7.9558,1.8861-11.4668,7.4319c-3.511,5.5458-3.7243,10.6025-3.7243,10.6025l.7381,64.692c1.0757,3.6416,2.7729,11.0915,7.7854,17.4372,5.0125,6.3456,13.9576,13.9187,13.9576,13.9187,2.8787,2.2083,6.8655,2.2659,9.8068.1416,0,0,6.3108-5.0485,6.4174-7.8214.1066-2.7729,0-15.9974,0-15.9974,0,0-15.5175,1.1731-19.1969-4.6926-3.6794-5.8657-1.232-23.4177-4.3487-25.44s-2.9034-20.4193-2.9034-20.4193c0,0-5.8657-5.919-7.8387-10.025-1.973-4.106-.0533-17.7571,3.1462-21.5432,1.7323-2.0499,8.7811-6.7773,8.7811-6.7773.5359-.7957-.2455-1.8169-1.1536-1.5078Z"/>
      <path class="cls-12" d="M469.9336,1638.0471c1.5997,0,.6056,17.9847.6056,17.9847-.7077,2.1066-1.793,3.961-3.2719,3.6652-2.133-.4266-4.2726-4.641-4.266-9.8118.0051-4.1699,5.1192-11.8381,6.9324-11.8381Z"/>
      <path class="cls-12" d="M585.5326,329.5412c5.4036,0,8.9586-2.0974,8.9586-5.8302l1.0798-144.9453c0-2.2586-1.7908-4.1105-4.0482-4.1861l-60.2914-.3984c-1.7253.2384-3.485,2.1581-3.485,4.0956h-6.9322c.0533-2.1863-1.6531-4.1001-3.1462-4.0986l-253.1324.4548v-2.862h-4.1238v4.995h3.4128v60.7902h-11.7314v-4.0527h-5.1725v-57.0041h5.3325c-.0533-2.3463-1.2798-3.8394-2.6698-3.8913l-11.5146-.0015c-1.2798.0534-2.6202,2.5864-2.6129,3.8928h6.5856v57.093h-7.3677s.5598,2.27,1.7997,3.2413,5.808.5981,5.808.5981v10.025h-5.6524v26.5557h-14.291v-78.9206h-35.2476v-23.321l-45.5038,1.2979v8.4609h6.8256v49.7697h-46.357v-52.7559l28.7242.1422c1.422,0,.7058-6.9628-.4977-6.9147,0,0-29.8984-.2334-42.482.3025-3.008.1281-5.1433,3.2412-4.5745,10.0667l6.5653-.0711v171.2373h-7.2522v9.8117l7.9632,15.2153-.2844,553.0129c1.7979,3.2106,8.2758,11.9419,11.9447,11.6603l121.1538-.0707c12.452-1.3086,32.6612-15.5519,37.434-28.7602,4.5859-12.6913,6.5064-24.5354,5.8665-27.2016s-7.1463-5.0065-7.1463-5.0065v-5.9724h3.5728c4.3774-.1397,4.4894-8.1432,0-7.9454h-23.0896s0-40.6512,0-40.6512h19.8723v12.5846h15.7841s.5155,60.0139-2.0619,68.1134c-2.3887,7.5066-10.8882,20.0839-15.2241,25.4422-.8519,1.0528-.5587,2.4032.6497,3.0148l2.0423,1.0337c1.998,1.4301,3.3781,6.6757,2.667,9.0276,0,0-12.7345,32.5471-16.762,46.376-4.0275,13.8289,11.9628,86.6869,16.1932,97.3163,3.6522,9.1765,2.185,49.9935,2.157,66.5846-.0073,4.327,2.2366,8.3409,5.9265,10.6008l6.4272,2.6533c2.5709,1.3883,2.5587,5.0811-.0214,6.4523l-7.4927.6455c-2.0088.173-3.9002,1.0196-5.3676,2.4024l-4.4375,3.695h-5.2258l.9243-63.4564c.1815-4.4759-.2305-8.9561-1.2253-13.3239l-10.3017-52.4005-8.2387-56.4603c-.2975-2.4365.0551-4.8988,1.0278-7.1524,3.8559-8.9336,15.0106-34.5597,15.1829-38.7957.2133-5.2436-1.2249-8.638-4.266-8.6564s-11.6224,3.3801-17.6802,5.9411c-7.2846,3.0796-129.656,2.7153-129.656,2.7153-2.7551.0533-2.3285,9.8651.9421,10.5761l8.532.5688,39.958,90.4387-5.1192,2.5596,4.266,12.9663,4.4604-1.3059-2.3274-5.9724,37.3984-7.4227,13.0823,36.0047.5688,13.5089-37.9228,5.564-1.3126-5.3781-3.851.2407,3.6102,16.2458,3.6509-1.0305-1.0043-6.9678,38.6782-4.8348,7.5752,48.2766-38.3257,4.7992-.1066-5.6435h-4.3104v17.375l5.5902-.4266-.5332-7.0389,36.9007-1.7064.7851,7.1455h2.7343v29.5419h4.1593v8.8519h-2.3463v3.1995h-38.3938v85.657c.0355,3.6086,7.6296,3.2881,7.8853,0v-77.8005h23.4609v75.4635c0,2.1056,1.7069,3.8126,3.8126,3.8126h13.2245c1.405-.1319,2.4789-2.4014,2.4789-3.8126l-.029-4.5061h-17.0253l.0386-70.9574h57.5521v78.2934h27.5867v-27.9193h87.8232v22.7163c-.0337,4.114,1.5286,6.8256,7.6534,6.8256h157.247c6.5234,0,11.927-6.2034,11.927-11.0382l-.3555-52.7559c-.0462-1.3189-4.7992-4.3193-8.5853-4.3726v-7.4655c2.3996.0533,8.4882-3.0452,8.532-5.1192l-.0853-72.055c-.1142-3.4809-2.9478-6.2554-6.4304-6.2961l-31.0427-.1073-7.9274.3555c-2.1456.1615-5.7237,2.2752-6.2214,5.9724h-12.3105v-23.4629h-7.4552l-4.1949-2.4174c-1.2542-.4128-3.3114.2545-4.5504.711l-2.9329,2.2574c-1.5579.8902-3.5103-.1566-3.6311-1.9468l-3.9944-80.2265h-5.9724l-1.8841-175.1184,80.8403-1.0652v119.2328h-69.1088v14.7176h69.0377v2.6129c10.2028.5688,18.0238-1.422,17.9171-11.0915h-6.8256v-118.5942h5.688l-.1777-12.5135c-.5579-1.9215-4.967-5.6707-6.9678-5.688l-96.6599-.2844c-4.5504-.3199-11.9447-4.3726-11.9447-10.7005,0,0-.1077-12.0871,0-13.7578v-82.7244h-4.1238v35.0877h-22.0764v-76.8942h21.5432v31.0145h5.7591v-38.5867l-2.6572-3.946v7.4655h-21.7655l.3571-7.0655c0-1.4858-1.5143-2.4913-2.8837-1.9148l-4.2097,2.9643c-1.2873.6701-1.5958,2.375-.625,3.4537l3.4152,2.029-16.2107,16.2107-2.2804-3.5227c-.8924-.9232-2.4563-.3337-2.5172.9489l.105,5.56h-65.5894v-10.025h6.399v-1.813h12.9046v1.2798h6.2923v-9.1719h12.9046l1.4931,4.266,25.0626.1066.7465-6.6123v-9.9184h11.6248v-15.4642h-2.4529v-2.4529h-7.8921v-7.9987h6.2923v-8.8519h-53.9646v7.1455h-16.2107v-8.103h-22.503v-8.4253h126.4862l.8532,2.3439h5.7591v-40.4201h-4.3249v33.248h-64.6773v-6.6923h-6.5056v6.6923h-35.301v-7.6521h-6.5056v-26.8757h6.079v-6.8256h4.266v-8.212h32.2081v8.4253h6.6123v-7.9987h63.8241v7.3588h5.818v-7.2522s22.3964,0,22.0764,0,0-6.2923,0-6.2923h-8.1054s-.6399-48.6321,0-48.6321h7.2522v-5.2258h-10.9849v-8.3187h9.3852v-19.9434h6.9322v21.5432h10.4516v60.7902h-7.8921v6.2923h21.4365l2.9329,2.9329h26.7157v-100.4104h-6.2923v-26.0225l7.4655-7.4655v-36.5896h-62.1322c-6.6362,0-12.0158,5.3797-12.0158,12.0158v130.4444h-8.4342v-150.5923h73.6592v-74.5124h29.7196v-2.5596h36.9718l.2844-7.5366Z"/>
      <path class="cls-12" d="M554.3021,1017.374v96.8377h6.6123v9.1719l-14.9309,9.3852-23.1967.5056c-1.8527.0404-3.6436-.6671-4.9684-1.9628l-3.8803-3.7949c-.7823-.9371-.1278-2.3626,1.0928-2.38l33.2989-.0467-3.4128-111.342c1.7064-2.9862,13.7027-3.2492,15.9974-.9544v4.3672l-6.6123.2133Z"/>
      <path class="cls-12" d="M589.7186,339.448s1.0822,2.3718,1.0309,3.6261v60.648c-.011,1.1919-1.9317,2.641-2.9979,3.1741l-3.33.5942c-.134,1.8875.0696,5.9474,1.8882,6.4701l3.9888-1.3601c2.2478-.8831,3.7561-3.0173,3.838-5.4309l.4878-66.4772-1.1731-2.3107c-1.6226-1.1358-3.5839-.9085-3.7327,1.0665Z"/>
      <path class="cls-12" d="M158.535,1084.4136l24.8849-4.8185-.3368-5.6877c.6413-1.1222,2.3216-.8976,2.6456.3537l3.6635,13.3861c.9954,1.9908-2.133,3.4128-2.7018,1.422l-2.5596-6.2034-24.7073,5.1782,1.3173,6.4515c-.3749,1.6873-2.674,1.9427-3.4101.3789l-4.4519-13.5546c-.4364-1.7272,2.2434-3.3986,3.2465-1.951l2.4097,5.045Z"/>
      <path class="cls-12" d="M170.2674,1135.9878l25.275-2.7303.6168-6.2137c.6413-1.1222,2.3216-.8976,2.6456.3537l1.6434,14.1253c.2348,1.106-2.5063,1.7064-2.8262.3733l-1.0665-5.4411-25.9573,2.9947,1.1613,5.2193c.7465,1.7354-3.1006,2.4461-3.8367.8823l-2.029-14.4801c-.4364-1.7272,3.1462-2.6129,3.4661-.6932l.9075,5.6098Z"/>
      <path class="cls-12" d="M237.3844,1292.0585v8.2476l24.3161-.6399c1.2315-.0986,1.4914-7.0321.2757-7.2522l-24.5918-.3555Z"/>
      <rect class="cls-12" x="179.1539" y="1309.1757" width="7.6788" height="127.1261"/>
      <rect class="cls-12" x="209.0157" y="1308.1092" width="3.8394" height="128.1926"/>
      <path class="cls-12" d="M311.4703,1423.5039h3.5283v-105.3696h7.5632s2.133-10.025-8.532-10.025-10.025,10.025-10.025,10.025h7.9454l-.4799,105.3696Z"/>
      <path class="cls-12" d="M339.0668,1404.3781h3.5283v-86.2438h7.5632s2.133-10.025-8.532-10.025-10.025,10.025-10.025,10.025h7.9454l-.4799,86.2438Z"/>
      <path class="cls-12" d="M365.346,1383.2615h3.5283v-65.1273h7.5632s2.133-10.025-8.532-10.025-10.025,10.025-10.025,10.025h7.9454l-.4799,65.1273Z"/>
      <path class="cls-12" d="M303.9975,1291.7208l74.8575.5332s-.0711,8.532-7.5721,8.8708l-61.9633.039c-6.6018,0-5.322-9.443-5.322-9.443Z"/>
      <path class="cls-12" d="M612.4541,35.3904s-4.7815,2.0606-4.8895,10.6294l-6.8938,547.2183c.4949,17.3839-13.5828,51.8405-13.5828,51.8405l-17.3483,66.6115-1.0881,35.6209h4.2876v21.7565h-44.3662v71.0818h-10.6649v-8.5853h-2.3463v11.0915l53.6587.8011c5.7346-.2306,10.3042-4.8756,10.4409-10.6132l.7077-97.1217c2.3581-35.7645,18.2227-82.6402,32.0851-112.6218V35.3904Z"/>
      <path class="cls-12" d="M.125,996.8706l28.1317-8.7105c4.6232-1.2048,9.4157,1.2456,11.1459,5.6989l21.1216,38.5614c25.1693,36.6874,47.5656,102.8101,47.5656,144.901v438.4714l-5.6524,5.6524H.125v-624.5746Z"/>
      <path class="cls-12" d="M.125,1645.157l102.8456,1.8486,6.6123,6.6123s.2844,24.245,1.9197,31.3549c1.6354,7.11,6.1146,22.1831,6.1146,22.1831l-5.9724,119.9095H.125v-181.9084Z"/>
      <path class="cls-12" d="M137.7739,1652.6936c-.4621,9.2785-.4621,49.3787-11.8381,56.0976-4.0527,18.0238-6.6123,118.2742-6.6123,118.2742h494.8001v-.6399h-49.5387c-45.2905-2.7373-94.7758-13.189-139.533-40.1357-14.4372-8.6922-99.217-65.5385-110.0533-73.837-11.8772-9.0955-60.4791-47.3168-144.6255-63.883-7.9595-1.567-32.0676-6.5481-32.5992,4.1238Z"/>
      <path class="cls-12" d="M.125,976.7494l23.534-10.3805-4.977-50.1963v-190.547H7.7327v-13.6511h11.0915l3.3417-416.786-4.5504-91.0075s.3122-154.0802,0-155.2816C14.3449,36.3147.125,39.8351.125,39.8351v936.9143Z"/>
    </g>
    <g id="unwalkableArea">
      <g class="cls-13">
        <path id="unwalkable" class="cls-12" d="M586.2614,329.9651c5.4036,0,8.9586-2.0974,8.9586-5.8302l1.0798-144.9453c0-2.2586-1.7908-4.1105-4.0482-4.1861l-60.2914-.3984c-1.7253.2384-3.485,2.1581-3.485,4.0956h-6.9322c.0533-2.1863-1.6531-4.1001-3.1462-4.0986l-253.1324.4548v-2.862h-4.1238v4.995h3.4128v60.7902h-11.7314v-4.0527h-5.1725v-57.0041h5.3325c-.0533-2.3463-1.2798-3.8394-2.6698-3.8913l-11.5146-.0015c-1.2798.0534-2.6202,2.5864-2.6129,3.8928h6.5856v57.093h-7.3677s.5598,2.27,1.7997,3.2413,5.808.5981,5.808.5981v10.025h-5.6524v26.5557h-14.291v-78.9206h-35.2476v-23.321l-45.5038,1.2979v8.4609h6.8256v49.7697h-46.357v-52.7559l28.7242.1422c1.422,0,.7058-6.9628-.4977-6.9147,0,0-29.8984-.2334-42.482.3025-3.008.1281-5.1433,3.2412-4.5745,10.0667l6.5653-.0711v171.2373h-7.2522v9.8117l7.9632,15.2153-.2844,553.0129c1.7979,3.2106,8.2758,11.9419,11.9447,11.6603l121.1538-.0707c12.452-1.3086,32.6612-15.5519,37.434-28.7602,4.5859-12.6913,6.5064-24.5354,5.8665-27.2016s-7.1463-5.0065-7.1463-5.0065v-5.9724h3.5728c4.3774-.1397,4.4894-8.1432,0-7.9454h-23.0896s0-40.6512,0-40.6512h19.8723v12.5846h15.7841s.5155,60.0139-2.0619,68.1134c-2.3887,7.5066-10.8882,20.0839-15.2241,25.4422-.8519,1.0528-.5587,2.4032.6497,3.0148l2.0423,1.0337c1.998,1.4301,3.3781,6.6757,2.667,9.0276,0,0-12.7345,32.5471-16.762,46.376s11.9628,86.6869,16.1932,97.3163c3.6522,9.1765,2.185,49.9935,2.157,66.5846-.0073,4.327,2.2366,8.3409,5.9265,10.6008l6.4272,2.6533c2.5709,1.3883,2.5587,5.0811-.0214,6.4523l-7.4927.6455c-2.0088.173-3.9002,1.0196-5.3676,2.4024l-4.4375,3.695h-5.2258l.9243-63.4564c.1815-4.4759-.2305-8.9561-1.2253-13.3239l-10.3017-52.4005-8.2387-56.4603c-.2975-2.4365.0551-4.8988,1.0278-7.1524,3.8559-8.9336,15.0106-34.5597,15.1829-38.7957.2133-5.2436-1.2249-8.638-4.266-8.6564-3.041-.0184-11.6224,3.3801-17.6802,5.9411-7.2846,3.0796-129.656,2.7153-129.656,2.7153-2.7551.0533-2.3285,9.8651.9421,10.5761l8.532.5688,39.958,90.4387-5.1192,2.5596,4.266,12.9663,4.4604-1.3059-2.3274-5.9724,37.3984-7.4227,13.0823,36.0047.5688,13.5089-37.9228,5.564-1.3126-5.3781-3.851.2407,3.6102,16.2458,3.6509-1.0305-1.0043-6.9678,38.6782-4.8348,7.5752,48.2766-38.3257,4.7992-.1066-5.6435h-4.3104v17.375l5.5902-.4266-.5332-7.0389,36.9007-1.7064.7851,7.1455h2.7343v29.5419h4.1593v8.8519h-2.3463v3.1995h-38.3938v85.657c.0355,3.6086,7.6296,3.2881,7.8853,0v-77.8005h23.4609v75.4635c0,2.1056,1.7069,3.8126,3.8126,3.8126h13.2245c1.405-.1319,2.4789-2.4014,2.4789-3.8126l-.029-4.5061h-17.0253l.0386-70.9574h57.5521v78.2934h27.5867v-27.9193h87.8232v22.7163c-.0337,4.114,1.5286,6.8256,7.6534,6.8256h157.247c6.5234,0,11.927-6.2034,11.927-11.0382l-.3555-52.7559c-.0462-1.3189-4.7992-4.3193-8.5853-4.3726v-7.4655c2.3996.0533,8.4882-3.0452,8.532-5.1192l-.0853-72.055c-.1142-3.4809-2.9478-6.2554-6.4304-6.2961l-31.0427-.1073-7.9274.3555c-2.1456.1615-5.7237,2.2752-6.2214,5.9724h-12.3105v-23.4629h-7.4552l-4.1949-2.4174c-1.2542-.4128-3.3114.2545-4.5504.711l-2.9329,2.2574c-1.5579.8902-3.5103-.1566-3.6311-1.9468l-3.9944-80.2265h-5.9724l-1.8841-175.1184,80.8403-1.0652v119.2328h-69.1088v14.7176h69.0377v2.6129c10.2028.5688,18.0238-1.422,17.9171-11.0915h-6.8256v-118.5942h5.688l-.1777-12.5135c-.5579-1.9215-4.967-5.6707-6.9678-5.688l-96.6599-.2844c-4.5504-.3199-11.9447-4.3726-11.9447-10.7005,0,0-.1077-12.0871,0-13.7578v-82.7244h-4.1238v35.0877h-22.0764v-76.8942h21.5432v31.0145h5.7591v-38.5867l-2.6572-3.946v7.4655h-21.7655l.3571-7.0655c0-1.4858-1.5143-2.4913-2.8837-1.9148l-4.2097,2.9643c-1.2873.6701-1.5958,2.375-.625,3.4537l3.4152,2.029-16.2107,16.2107-2.2804-3.5227c-.8924-.9232-2.4563-.3337-2.5172.9489l.105,5.56h-65.5894v-10.025h6.399v-1.813h12.9046v1.2798h6.2923v-9.1719h12.9046l1.4931,4.266,25.0626.1066.7465-6.6123v-9.9184h11.6248v-15.4642h-2.4529v-2.4529h-7.8921v-7.9987h6.2923v-8.8519h-53.9646v7.1455h-16.2107v-8.103h-22.503v-8.4253h126.4862l.8532,2.3439h5.7591v-40.4201h-4.3249v33.248h-64.6773v-6.6923h-6.5056v6.6923h-35.301v-7.6521h-6.5056v-26.8757h6.079v-6.8256h4.266v-8.212h32.2081v8.4253h6.6123v-7.9987h63.8241v7.3588h5.818v-7.2522s22.3964,0,22.0764,0,0-6.2923,0-6.2923h-8.1054s-.6399-48.6321,0-48.6321h7.2522v-5.2258h-10.9849v-8.3187h9.3852v-19.9434h6.9322v21.5432h10.4516v60.7902h-7.8921v6.2923h21.4365l2.9329,2.9329h26.7157v-100.4104h-6.2923v-26.0225l7.4655-7.4655v-36.5896h-62.1322c-6.6362,0-12.0158,5.3797-12.0158,12.0158v130.4444h-8.4342v-150.5923h73.6592v-74.5124h29.7196v-2.5596h36.9718l.2844-7.5366Z"/>
      </g>
    </g>
    <g id="parks">
      <path id="Park2" class="cls-1" d="M150.474,1043.4587c3.555,6.9678,28.724,5.688,24.7492-8.6735-4.0145-14.5049,8.9521-19.7663,11.796-17.3489,4.7525,4.0396,4.977,4.5504,7.6788,4.1238s20.0499-17.206,23.4629-20.6189c4.3371-4.3371,10.7094,8.5853,16.7351,2.5596,4.7321-4.7321-6.984-18.0789-1.3776-21.8987,12.9401-8.8164,9.2048-26.3069,1.3776-29.5428l-22.423.8185-105.2279-.7908,43.229,91.3717Z"/>
      <path id="Park1" class="cls-1" d="M289.2516,1318.0987h7.11c0-8.9586-8.3898-9.9895-8.3898-9.9895l-50.5874.4444s-2.4707.5866-2.6662,5.0658h10.5583s1.5997,91.363-3.6798,116.1501c-1.2582,5.9072-5.8492,13.0646-13.0646,13.0646l-19.5164,1.5476c-1.7775,4.3271-1.9908,119.1885-1.9908,119.1885,0,0-9.0652,3.3061-7.6788,13.0112s8.212,20.9033,16.2818,25.7381c0,0,69.9294,31.5981,76.2188,34.8388,18.6281,9.5984,77.8185,50.6297,84.4308,55.3511,6.6123,4.7213,13.9898,8.5231,18.557,2.6662l17.5616-24.2805c8.3542-11.9847,12.2647-29.2219,12.7268-45.5749l-1.4931-114.5415,1.4931-26.2358-13.0112-2.7222s1.7109-17.7749,9.1719-24.7934l15.9974-75.6145,8.736-64.9272c.4456-4.3513-2.8604-8.1814-7.23-8.3765h-56.3238l-.3008,74.7761c-.2162,8.6988-4.283,16.8528-11.1016,22.2587l-51.3075,38.2322h-30.5017v-125.2775Z"/>
      <path class="cls-1" d="M401.3313,889.5635l-.425,2.2169,2.6291,11.8119,3.513,5.3153,2.8205,3.3278,1.6474,7.6995v4.0764l1.8789,7.2219s7.4174,26.7815,7.5596,27.2259,16.6373-4.5326,16.6373-4.5326l-.5688-10.2383-5.5458-22.4142v-8.1942l8.1054-12.3713,12.3713,1.0665s-1.0665-30.4238-1.2798-31.6359c-.2133-1.2121-9.1719-22.1154-9.1719-22.1154l-1.7064-11.5181-15.7841.8532-1.9197,9.1719-9.5185,10.4516-6.8167,9.5984-7.9987,9.8117-1.6886,4.266,8.5795,1.1334-.5964,7.7718h-2.7217Z"/>
      <path class="cls-1" d="M438.7297,961.3208l10.2383,22.1475v14.2199c0,1.1376,7.6788,12.2291,7.6788,12.2291l5.9724,37.2562,5.9724,5.1192v18.2015l1.7064,31.5682,2.5596,32.4214v23.8895l-10.0296,17.9171-11.8691,17.0639,1.422,98.3663-5.7235,7.9393-34.3767-1.3626,1.9552-56.0265,8.2831-18.4859-1.9908-34.4122,1.7064-14.5043-9.9539-24.9915,7.1811-3.6616,8.7719,2.7729,6.0524,6.2923,4.9059-8.9586s4.2888-23.8214,5.2195-23.2155-1.8067-32.3488-1.8067-32.3488l3.8038-13.3134-4.6725-5.8223-4.2131-1.4349-2.1704-4.7053,5.3325-4.6926v-14.7176h-8.3187l-2.7729-6.8256,7.0033-10.2383-12.5846-41.8066v-22.3964l14.7176-3.4839Z"/>
      <polygon class="cls-1" points="474.3239 1166.3721 482.0027 1168.754 482.0027 1182.4762 490.428 1209.0319 492.9787 1247.4257 496.1809 1259.3705 532.2257 1278.9939 556.9684 1278.9939 556.9684 1291.7208 541.6109 1296.4423 513.5984 1289.2323 455.4381 1263.2098 455.4381 1193.6744 474.3239 1166.3721"/>
      <polygon class="cls-1" points="414.2359 1163.1371 418.7507 1176.1839 416.4933 1187.2754 418.7507 1223.9628 409.8099 1241.0267 409.8099 1269.6088 403.3932 1278.1408 384.9935 1278.1408 384.9935 1270.1182 322.6296 1270.1182 322.7359 1228.9754 329.5918 1214.1511 334.2843 1190.6882 340.9632 1167.2253 382.8454 1163.1371 414.2359 1163.1371"/>
      <polygon class="cls-1" points="313.3667 1228.9754 319.9222 1232.0682 316.6445 1270.1182 297.1703 1270.1182 297.1703 1298.0375 286.0077 1298.0375 292.1934 1285.1796 292.1934 1271.9551 290.2026 1256.8109 313.3667 1228.9754"/>
      <polygon class="cls-1" points="303.9975 1233.7746 290.2026 1232.4948 277.689 1230.3618 270.8635 1227.3756 268.7127 1263.5064 281.7417 1258.9439 303.9975 1233.7746"/>
      <polygon class="cls-1" points="286.3551 1259.5838 288.7806 1282.8333 282.5949 1298.0375 269.5837 1298.0375 269.5837 1268.329 286.3551 1259.5838"/>
    </g>
  </g>
  <g id="buildings">
    <g id="SW">
      <g id="SW05">
        <g id="SW05_Outline">
          <polygon class="cls-3" points="196.6177 696.0972 199.4777 695.6215 200.5748 698.9506 197.9555 699.7414 196.6177 696.0972"/>
          <polygon class="cls-3" points="177.8836 696.0972 175.0236 695.6215 173.9265 698.9506 176.5459 699.7414 177.8836 696.0972"/>
          <rect class="cls-3" x="205.5539" y="693.4896" width=".8532" height="5.9454"/>
          <rect class="cls-3" x="168.0025" y="693.4896" width=".8532" height="5.9454"/>
          <g id="outerWalls">
            <polyline class="cls-7" points="187.2083 683.1436 192.5566 683.1446 206.1384 685.3842 206.1384 693.4896 211.5776 693.4896 211.5776 701.8616 206.5418 701.8616 199.3348 704.2966 204.8905 720.823 203.2916 721.3481 200.8424 721.579 198.5639 722.5526 196.0244 722.5526 193.8061 723.3355 191.2264 723.1248 188.8475 723.6869 187.2083 723.6874"/>
            <polyline class="cls-7" points="187.2082 683.1436 181.86 683.1446 168.2781 685.3842 168.2781 693.4896 162.839 693.4896 162.839 701.8616 167.8747 701.8616 175.0817 704.2966 169.526 720.823 171.125 721.3481 173.5742 721.579 175.8527 722.5526 178.3922 722.5526 180.6105 723.3355 183.1902 723.1248 185.5691 723.6869 187.2082 723.6874"/>
          </g>
          <line class="cls-3" x1="208.9758" y1="696.0622" x2="208.9758" y2="699.3417"/>
          <line class="cls-3" x1="165.4563" y1="696.1555" x2="165.4563" y2="699.435"/>
        </g>
        <g id="SW05_1">
          <polygon class="cls-7" points="196.5154 696.1555 197.7419 699.7283 200.4348 698.9017 199.2616 695.6756 196.5154 696.1555"/>
          <line class="cls-7" x1="201.368" y1="701.648" x2="201.9357" y2="703.4155"/>
          <polygon class="cls-7" points="177.8942 696.1555 176.6678 699.7283 173.9749 698.9017 175.148 695.6756 177.8942 696.1555"/>
          <polyline class="cls-7" points="175.7079 693.436 176.5078 691.1163 187.1673 693.0627 187.2423 693.0627 197.9018 691.1163 198.7017 693.436"/>
          <polyline class="cls-7" points="196.2702 695.0444 196.5154 696.1555 187.2423 697.5686 187.1673 697.5686 177.8942 696.1555"/>
          <line class="cls-7" x1="173.0417" y1="701.648" x2="172.4739" y2="703.4155"/>
          <line class="cls-7" x1="187.2423" y1="694.8297" x2="187.2428" y2="723.6874"/>
          <polyline class="cls-7" points="195.7038 691.5177 195.9992 693.5889 196.9728 693.436"/>
          <line class="cls-7" x1="198.9703" y1="694.7934" x2="199.2616" y2="695.6756"/>
        </g>
        <g id="SW05_2">
          <line class="cls-7" x1="193.2265" y1="693.2095" x2="192.8056" y2="683.1436"/>
          <polyline class="cls-7" points="194.7951 692.9385 195.0617 693.925 203.6736 692.5119 203.8069 693.0185"/>
          <line class="cls-7" x1="205.8032" y1="702.1398" x2="205.4867" y2="701.5771"/>
          <line class="cls-7" x1="199.4777" y1="695.6215" x2="201.3199" y2="695.4082"/>
          <line class="cls-7" x1="205.5321" y1="694.733" x2="203.8069" y2="695.0172"/>
          <line class="cls-7" x1="200.5748" y1="698.9506" x2="201.6358" y2="701.8584"/>
          <line class="cls-7" x1="197.9555" y1="699.7414" x2="198.8314" y2="702.5893"/>
          <polyline class="cls-7" points="182.9102 693.5028 182.7635 694.4359 187.2161 695.1825 191.7378 694.4359 191.5912 693.5028"/>
          <line class="cls-7" x1="181.2749" y1="693.2095" x2="181.6957" y2="683.1436"/>
          <polyline class="cls-7" points="179.7063 692.9385 179.4397 693.925 170.8277 692.5119 170.6944 693.0185"/>
          <line class="cls-7" x1="168.6982" y1="702.1398" x2="169.0147" y2="701.5771"/>
          <line class="cls-7" x1="175.0236" y1="695.6215" x2="173.1815" y2="695.4082"/>
          <line class="cls-7" x1="168.9693" y1="694.733" x2="170.6944" y2="695.0172"/>
          <polyline class="cls-7" points="177.8836 696.0972 187.2082 697.5412 196.6177 696.0972"/>
          <line class="cls-7" x1="173.9265" y1="698.9506" x2="172.8655" y2="701.8584"/>
          <line class="cls-7" x1="176.5459" y1="699.7414" x2="175.67" y2="702.5893"/>
        </g>
        <g id="SW05_Roof">
          <g>
            <polyline class="cls-11" points="187.2083 683.1436 192.5566 683.1446 206.1384 685.3842 206.1384 693.4896 211.5776 693.4896 211.5776 701.8616 206.5418 701.8616 199.3348 704.2966 204.8905 720.823 203.2916 721.3481 200.8424 721.579 198.5639 722.5526 196.0244 722.5526 193.8061 723.3355 191.2264 723.1248 188.8475 723.6869 187.2083 723.6874"/>
            <polyline class="cls-7" points="187.2083 683.1436 192.5566 683.1446 206.1384 685.3842 206.1384 693.4896 211.5776 693.4896 211.5776 701.8616 206.5418 701.8616 199.3348 704.2966 204.8905 720.823 203.2916 721.3481 200.8424 721.579 198.5639 722.5526 196.0244 722.5526 193.8061 723.3355 191.2264 723.1248 188.8475 723.6869 187.2083 723.6874"/>
          </g>
          <g>
            <polyline class="cls-11" points="187.2082 683.1436 181.86 683.1446 168.2781 685.3842 168.2781 693.4896 162.839 693.4896 162.839 701.8616 167.8747 701.8616 175.0817 704.2966 169.526 720.823 171.125 721.3481 173.5742 721.579 175.8527 722.5526 178.3922 722.5526 180.6105 723.3355 183.1902 723.1248 185.5691 723.6869 187.2082 723.6874"/>
            <polyline class="cls-7" points="187.2082 683.1436 181.86 683.1446 168.2781 685.3842 168.2781 693.4896 162.839 693.4896 162.839 701.8616 167.8747 701.8616 175.0817 704.2966 169.526 720.823 171.125 721.3481 173.5742 721.579 175.8527 722.5526 178.3922 722.5526 180.6105 723.3355 183.1902 723.1248 185.5691 723.6869 187.2082 723.6874"/>
          </g>
        </g>
      </g>
      <g id="SW03">
        <polygon id="SW03_Outline" class="cls-7" points="260.6874 661.0939 260.6874 675.1804 192.8056 675.1804 192.8056 683.1436 181.86 683.1446 181.629 671.0566 133.7745 671.0566 133.2768 706.1087 107.0946 706.1087 107.7521 655.6259 116.1063 655.5924 116.1063 647.4338 126.6271 647.4338 126.6271 642.9513 182.1928 643.5904 182.1928 640.4581 178.8902 640.4581 178.8902 609.3 186.0987 609.3 186.0987 605.6805 189.8451 605.6805 189.8451 609.3 197.2135 609.3 197.2135 640.4581 193.4323 640.4581 193.4323 643.3512 254.3154 644.0608 254.3154 654.9282 260.6874 655.0236 260.6874 658.3411 264.078 658.3411 264.078 661.0939 260.6874 661.0939"/>
        <polygon id="SW03_Roof" class="cls-6" points="260.6874 661.0939 260.6874 675.1804 192.8056 675.1804 192.8056 683.1436 181.86 683.1446 181.629 671.0566 133.7745 671.0566 133.2768 706.1087 107.0946 706.1087 107.7521 655.6259 116.1063 655.5924 116.1063 647.4338 126.6271 647.4338 126.6271 642.9513 182.1928 643.5904 182.1928 640.4581 178.8902 640.4581 178.8902 609.3 186.0987 609.3 186.0987 605.6805 189.8451 605.6805 189.8451 609.3 197.2135 609.3 197.2135 640.4581 193.4323 640.4581 193.4323 643.3512 254.3154 644.0608 254.3154 654.9282 260.6874 655.0236 260.6874 658.3411 264.078 658.3411 264.078 661.0939 260.6874 661.0939"/>
      </g>
      <g id="SW02">
        <path id="SW02_Outline" class="cls-7" d="M145.9415,603.3431l-10.3451-10.345c-3.5728,3.5727-7.0389-2.453-7.0389-2.453v-8.3186h-2.0263v8.4253l-4.7992-4.7992-21.4043,20.2989c3.8232,3.8232,2.9522,10.6632,0,13.6156l20.4072,20.4072,5.8496-5.8496v8.6265h4.6393v-5.2671c-5.1369-2.3196,1.3331-7.1988,1.3331-7.1988l2.3996,2.3996,10.2917-10.2917c0-6.0612,5.4924-9.6517,5.4924-9.6517,0,0-4.7992-3.5905-4.7992-9.5985ZM126.3802,623.3399l-5.3859-5.3858,5.6921-5.6921-5.6791-5.6791,5.1595-4.305,10.6376,10.6376-10.4243,10.4243Z"/>
        <path id="SW02_Roof" class="cls-6" d="M145.9415,603.3431l-10.3451-10.345c-3.5728,3.5727-7.0389-2.453-7.0389-2.453v-8.3186h-2.0263v8.4253l-4.7992-4.7992-21.4043,20.2989c3.8232,3.8232,2.9522,10.6632,0,13.6156l20.4072,20.4072,5.8496-5.8496v8.6265h4.6393v-5.2671c-5.1369-2.3196,1.3331-7.1988,1.3331-7.1988l2.3996,2.3996,10.2917-10.2917c0-6.0612,5.4924-9.6517,5.4924-9.6517,0,0-4.7992-3.5905-4.7992-9.5985ZM126.3802,623.3399l-5.3859-5.3858,5.6921-5.6921-5.6791-5.6791,5.1595-4.305,10.6376,10.6376-10.4243,10.4243Z"/>
      </g>
      <g id="SW01">
        <path id="SW01_Outline" class="cls-6" d="M185.5863,605.6805v-4.0616h-11.3916v-19.3924h-47.6634v-3.004h-5.2347v3.9816h-19.1969v-70.8863c-2.3127-7.9581-4.3617-21.9165-4.2347-27.7801.0368-1.7002,1.2755-3.1217,2.9563-3.3809,4.6844-.7223,15.091-.6936,21.1863,3.6454h52.5782v-19.4102h12.6913v-3.8394h9.4918v3.6261h6.5056v34.3411h21.8631v-5.1192h22.3964v73.3748l-39.7802.0533c-.697,0-1.262.565-1.262,1.262v2.5951c0,.697.565,1.262,1.262,1.262l1.2798-.0533v-3.0928h17.2772v13.5445h-17.2772v-2.5596h-6.399v6.399h30.3951v-7.8921h14.5043v15.4642h-45.646v7.3588h-5.5458v3.5639h-10.7559Z"/>
        <path id="SW01_Roof" class="cls-7" d="M185.5863,605.6805v-4.0616h-11.3916v-19.3924h-47.6634v-3.004h-5.2347v3.9816h-19.1969v-70.8863c-2.3127-7.9581-4.3617-21.9165-4.2347-27.7801.0368-1.7002,1.2755-3.1217,2.9563-3.3809,4.6844-.7223,15.091-.6936,21.1863,3.6454h52.5782v-19.4102h12.6913v-3.8394h9.4918v3.6261h6.5056v34.3411h21.8631v-5.1192h22.3964v73.3748l-39.7802.0533c-.697,0-1.262.565-1.262,1.262v2.5951c0,.697.565,1.262,1.262,1.262l1.2798-.0533v-3.0928h17.2772v13.5445h-17.2772v-2.5596h-6.399v6.399h30.3951v-7.8921h14.5043v15.4642h-45.646v7.3588h-5.5458v3.5639h-10.7559Z"/>
      </g>
      <g id="SW09">
        <polygon id="SW09_Outline" class="cls-7" points="239.7841 826.8626 239.7841 898.3177 164.4896 898.3177 164.4896 890.8522 144.2262 890.8522 144.2262 897.2512 109.2452 897.2512 109.2452 826.8626 138.8937 826.8626 138.8937 824.5163 168.5422 824.5163 168.5422 826.8626 239.7841 826.8626"/>
        <polygon id="SW09_Roof" class="cls-6" points="239.7841 826.8626 239.7841 898.3177 164.4896 898.3177 164.4896 890.8522 144.2262 890.8522 144.2262 897.2512 109.2452 897.2512 109.2452 826.8626 138.8937 826.8626 138.8937 824.5163 168.5422 824.5163 168.5422 826.8626 239.7841 826.8626"/>
      </g>
      <g id="SW10">
        <path id="SW10_Outline" class="cls-7" d="M250.2357,988.7208h14.611v2.4529h4.0527v-3.8394h8.7453v16.3174h-5.5458v4.5859h3.946v8.4253h5.1192v16.1041h-19.8723l-.1308-5.8662c-.4829-.4829-1.2509-.5273-1.7862-.1033l-2.4274,2.6323c-.6832.4654-1.6129.0076-1.6606-.8177l.1748-17.7082h7.2522c3.9105-.0711,3.2718-3.1275,2.4031-4.0149-.7678-.7844-3.6829-2.2064-3.6829,1.7041h-11.1982v-19.8723Z"/>
        <path id="SW10_Roof" class="cls-6" d="M250.2357,988.7208h14.611v2.4529h4.0527v-3.8394h8.7453v16.3174h-5.5458v4.5859h3.946v8.4253h5.1192v16.1041h-19.8723l-.1308-5.8662c-.4829-.4829-1.2509-.5273-1.7862-.1033l-2.4274,2.6323c-.6832.4654-1.6129.0076-1.6606-.8177l.1748-17.7082-5.2258-2.3107v-19.8723Z"/>
      </g>
      <g id="SW11">
        <path id="SW11_Outline_S" class="cls-7" d="M211.5042,1058.3363h9.5273v3.8394h1.7064v-2.3463h9.3141v3.1284h6.1857v13.2245s-2.4174,5.778-6.6123,5.7686c-3.5746-.0081-3.2706-6.764-3.2706-6.764h-3.4128c0,2.844-2.133,4.3371-5.4747,3.9105s-3.6261-1.3509-3.3417-4.9059h-4.6215l-2.4174-2.7729v-5.9013h2.4885l-.0711-7.1811Z"/>
        <path id="SW11_Roof_S" class="cls-6" d="M211.5042,1058.3363h9.5273v3.8394h1.7064v-2.3463h9.3141v3.1284h6.1857v13.2245s-2.4174,5.778-6.6123,5.7686c-3.5746-.0081-3.2706-6.764-3.2706-6.764h-3.4128c0,2.844-2.133,4.3371-5.4747,3.9105s-3.6261-1.3509-3.3417-4.9059h-4.6215l-2.4174-2.7729v-5.9013h2.4885l-.0711-7.1811Z"/>
        <path id="SW11_Outline_N" class="cls-7" d="M217.6188,1055.5723v-2.9666c0-.7425.7972-1.2121,1.4466-.8523,0,0,3.3437,3.3389,4.8245,3.3659h4.6783v-5.4484h6.3279v-11.2693s-.9947-3.8402-4.9051-5.6887c-3.3106-.3281-4.5689-.177-4.5689,2.3115s-2.4707,3.3772-2.4707,3.3772h-15.4286v7.2166h-2.3463v10.2383l12.4424-.2844Z"/>
        <path id="SW11_Roof_N" class="cls-6" d="M217.6188,1055.5723v-2.9666c0-.7425.7972-1.2121,1.4466-.8523,0,0,3.3437,3.3389,4.8245,3.3659h4.6783v-5.4484h6.3279v-11.2693s-.9947-3.8402-4.9051-5.6887c-3.3106-.3281-4.5689-.177-4.5689,2.3115s-2.4707,3.3772-2.4707,3.3772h-15.4286v7.2166h-2.3463v10.2383l12.4424-.2844Z"/>
      </g>
      <g id="SW12">
        <polygon id="SW12_Outline" class="cls-7" points="262.4471 1055.8567 266.4997 1055.8567 266.4997 1053.1815 276.2048 1053.1815 276.2048 1055.8567 279.4043 1055.8567 279.4043 1052.115 288.5762 1052.115 288.5762 1068.4586 283.3504 1068.4586 283.3504 1072.5917 286.7631 1072.5917 286.7631 1077.4976 291.6157 1082.3502 291.6157 1095.8413 288.2562 1098.8275 283.5637 1098.8275 283.5637 1093.9216 279.6176 1093.9216 279.6176 1096.2679 270.4458 1096.2679 264.6867 1090.5088 264.6867 1078.9907 266.873 1076.8044 275.5649 1076.8044 275.5649 1079.6306 277.0314 1079.6306 277.0314 1077.071 283.8836 1077.071 284.4168 1072.5917 277.6979 1072.5917 272.2588 1070.1436 272.2588 1074.0848 262.4471 1074.0848 262.4471 1055.8567"/>
        <polygon id="SW12_Roof" class="cls-6" points="262.4471 1055.8567 266.4997 1055.8567 266.4997 1053.1815 276.2048 1053.1815 276.2048 1055.8567 279.4043 1055.8567 279.4043 1052.115 288.5762 1052.115 288.5762 1068.4586 283.3504 1068.4586 283.3504 1072.5917 286.7631 1072.5917 286.7631 1077.4976 291.6157 1082.3502 291.6157 1095.8413 288.2562 1098.8275 283.5637 1098.8275 283.5637 1093.9216 279.6176 1093.9216 279.6176 1096.2679 270.4458 1096.2679 264.6867 1090.5088 264.6867 1078.9907 266.873 1076.8044 275.5649 1076.8044 275.5649 1079.6306 277.0314 1079.6306 277.0314 1077.071 283.8836 1077.071 284.4168 1072.5917 277.6979 1072.5917 272.2588 1070.1436 272.2588 1074.0848 262.4471 1074.0848 262.4471 1055.8567"/>
      </g>
      <g id="SW13">
        <polygon id="SW13_Outline_S" class="cls-7" points="235.447 1125.3121 235.447 1129.2937 237.5355 1129.2937 237.5355 1126.1653 246.6007 1126.1653 246.6007 1130.3602 251.5777 1130.3602 252.822 1131.7466 252.822 1142.4827 251.6844 1147.2108 243.2591 1147.2108 243.2591 1142.1983 239.633 1142.1983 239.633 1145.931 230.9588 1145.931 230.9588 1141.0962 228.5414 1141.0962 228.5414 1142.376 225.4219 1142.376 225.4219 1125.3121 235.447 1125.3121"/>
        <path id="SW13_Outline_N" class="cls-7" d="M239.3041,1106.3996v-5.8657c6.0968-.7199,9.4029,2.6662,9.4029,5.2258l.16,10.6383h-5.1369v4.7192h-6.648c-.223,0-.444-.042-.6515-.1237l-2.0522-.8084c-.6951-.2738-1.4871-.0925-1.9939.4565l-1.0663,1.1552c-.416.4507-1.0014.707-1.6147.707h-7.6765v-19.0902h10.6649l6.6123,2.9862Z"/>
        <polygon id="SW13_Roof_S" class="cls-6" points="235.447 1125.3121 235.447 1129.2937 237.5355 1129.2937 237.5355 1126.1653 246.6007 1126.1653 246.6007 1130.3602 251.5777 1130.3602 252.822 1131.7466 252.822 1142.4827 251.6844 1147.2108 243.2591 1147.2108 243.2591 1142.1983 239.633 1142.1983 239.633 1145.931 230.9588 1145.931 230.9588 1141.0962 228.5414 1141.0962 228.5414 1142.376 225.4219 1142.376 225.4219 1125.3121 235.447 1125.3121"/>
        <path id="SW13_Roof_N" class="cls-6" d="M239.3041,1106.3996v-5.8657c6.0968-.7199,9.4029,2.6662,9.4029,5.2258l.16,10.6383h-5.1369v4.7192h-6.648c-.223,0-.444-.042-.6515-.1237l-2.0522-.8084c-.6951-.2738-1.4871-.0925-1.9939.4565l-1.0663,1.1552c-.416.4507-1.0014.707-1.6147.707h-7.6765v-19.0902h10.6649l6.6123,2.9862Z"/>
      </g>
      <g id="SW14">
        <path id="SW14_Outline" class="cls-7" d="M268.7127,1120.3351v18.4148h9.8117v-3.9816l5.4036,2.5596h6.6834v5.1192h-8.6031v-1.7064h-10.1672v18.3437l4.657.6043.6754,2.4529,12.5135.9954h8.8875v-15.9263h-5.3325v-9.7406l-3.555-.1422v-3.7683h6.0435l-.3945-12.3411c0-1.115-.3516-2.2016-1.0048-3.1052l-1.5751-1.4357c-.8309-.7574-1.9148-1.1773-3.0391-1.1773h-3.5138v6.1857h-3.9816v-3.4839h-8.8164v5.7591h-2.2752v-3.6261h-2.4174Z"/>
        <path id="SW14_Roof" class="cls-6" d="M268.7127,1120.3351v18.4148h9.8117v-3.9816l5.4036,2.5596h6.6834v5.1192h-8.6031v-1.7064h-10.1672v18.3437l4.657.6043.6754,2.4529,12.5135.9954h8.8875v-15.9263h-5.3325v-9.7406l-3.555-.1422v-3.7683h6.0435l-.3945-12.3411c0-1.115-.3516-2.2016-1.0048-3.1052l-1.5751-1.4357c-.8309-.7574-1.9148-1.1773-3.0391-1.1773h-3.5138v6.1857h-3.9816v-3.4839h-8.8164v5.7591h-2.2752v-3.6261h-2.4174Z"/>
      </g>
      <g id="SW15">
        <path id="SW15_Outline" class="cls-7" d="M241.9082,1174.1398v-5.3858h5.1192l4.7459,4.7459v12.7446h-6.399v4.9059h-5.7591c-1.3331-3.1817-5.4213-3.6616-5.3325,0v3.3061h14.7709v5.2791h6.5056v13.1712l-2.5596,3.7327h-8.0787l-2.2796-2.2796h-3.7727v1.3731h-5.3858v-5.4924h-2.9862v1.7597h-2.7196v-19.5168h-2.6662v-18.5037h4.5859v-3.8394h5.0125v1.4931h3.5728v2.5063h3.6261Z"/>
        <path id="SW15_Roof" class="cls-6" d="M241.9082,1174.1398v-5.3858h5.1192l4.7459,4.7459v12.7446h-6.399v4.9059h-5.7591c-1.3331-3.1817-5.4213-3.6616-5.3325,0v3.3061h14.7709v5.2791h6.5056v13.1712l-2.5596,3.7327h-8.0787l-2.2796-2.2796h-3.7727v1.3731h-5.3858v-5.4924h-2.9862v1.7597h-2.7196v-19.5168h-2.6662v-18.5037h4.5859v-3.8394h5.0125v1.4931h3.5728v2.5063h3.6261Z"/>
      </g>
      <g id="SW16">
        <path id="SW16_Outline" class="cls-7" d="M274.2763,1183.8271h5.1903v-1.3509h5.5458v1.8486h7.11v-1.8486h9.3852l1.2087,3.1284v12.9401h-7.6077s.4977,4.8348,0,4.8348h-6.6123v3.9816h10.8782v4.1238h6.7545v12.9401l-4.5504,4.5504h-5.688v-5.4036h-3.8394v3.6972h-8.6742v-3.3417h-5.4036v-20.5478h-3.6972v-19.5524Z"/>
        <path id="SW16_Roof" class="cls-6" d="M274.2763,1183.8271h5.1903v-1.3509h5.5458v1.8486h7.11v-1.8486h9.3852l1.2087,3.1284v12.9401h-7.6077s.4977,4.8348,0,4.8348h-6.6123v3.9816h10.8782v4.1238h6.7545v12.9401l-4.5504,4.5504h-5.688v-5.4036h-3.8394v3.6972h-8.6742v-3.3417h-5.4036v-20.5478h-3.6972v-19.5524Z"/>
      </g>
    </g>
    <g id="SE">
      <g id="SE12">
        <g id="SE12_3">
          <line class="cls-7" x1="285.754" y1="604.4476" x2="285.754" y2="614.0105"/>
          <line class="cls-7" x1="293.8949" y1="614.0105" x2="293.8949" y2="620.6227"/>
          <line class="cls-7" x1="293.8949" y1="633.634" x2="293.8949" y2="642.7703"/>
          <line class="cls-7" x1="293.8949" y1="646.2541" x2="293.8949" y2="651.5866"/>
          <line class="cls-7" x1="283.7767" y1="653.3641" x2="283.7767" y2="658.3411"/>
          <line class="cls-7" x1="282.1435" y1="663.3552" x2="293.7682" y2="663.3552"/>
          <line class="cls-7" x1="293.7682" y1="664.8216" x2="293.7682" y2="674.4734"/>
          <line class="cls-7" x1="293.7682" y1="675.6466" x2="293.7682" y2="677.4063"/>
          <line class="cls-7" x1="285.5562" y1="663.3552" x2="285.5562" y2="676.9797"/>
          <line class="cls-7" x1="293.7682" y1="678.6061" x2="293.7682" y2="683.4853"/>
          <line class="cls-7" x1="293.7682" y1="684.6051" x2="293.7682" y2="686.4715"/>
          <line class="cls-7" x1="293.7682" y1="687.5646" x2="293.7682" y2="695.2967"/>
          <line class="cls-7" x1="293.7682" y1="696.6565" x2="293.7682" y2="700.2026"/>
          <polyline class="cls-7" points="294.0736 735.4931 294.0736 739.368 281.5254 739.368"/>
          <polyline class="cls-7" points="288.5574 735.4931 285.9978 735.4931 285.9978 739.368"/>
          <polyline class="cls-7" points="292.7227 735.4931 289.8787 735.4931 289.8787 739.368"/>
          <polyline class="cls-7" points="269.1559 611.0243 269.1559 604.4476 281.5254 604.4476 281.5254 604.4476 293.8949 604.4476 293.8949 611.0243"/>
          <polyline class="cls-7" points="269.1559 612.233 269.1559 614.0105 281.5254 614.0105 281.5254 614.0105 293.8949 614.0105 293.8949 612.233"/>
          <line class="cls-7" x1="277.2968" y1="604.4476" x2="277.2968" y2="614.0105"/>
          <line class="cls-7" x1="269.1559" y1="614.0105" x2="269.1559" y2="620.6227"/>
          <polyline class="cls-7" points="269.1559 622.969 281.5254 622.969 281.5254 622.969 293.8949 622.969"/>
          <polyline class="cls-7" points="269.1559 624.4266 269.1559 631.9987 281.5254 631.9987 281.5254 631.9987 293.8949 631.9987 293.8949 624.4266"/>
          <polyline class="cls-7" points="269.1559 644.4766 281.5254 644.4766 281.5254 644.4766 293.8949 644.4766"/>
          <line class="cls-7" x1="269.1559" y1="633.634" x2="269.1559" y2="642.7703"/>
          <line class="cls-7" x1="269.1559" y1="646.2541" x2="269.1559" y2="651.5866"/>
          <polyline class="cls-7" points="269.1559 652.902 269.1559 653.3641 281.5254 653.3641 281.5254 653.3641 293.8949 653.3641 293.8949 652.902"/>
          <polyline class="cls-7" points="269.1559 654.7505 269.1559 658.3411 281.5254 658.3411 281.5254 658.3411 293.8949 658.3411 293.8949 654.7505"/>
          <line class="cls-7" x1="280.1564" y1="653.3641" x2="280.1564" y2="658.3411"/>
          <line class="cls-7" x1="280.9074" y1="663.3552" x2="269.2826" y2="663.3552"/>
          <line class="cls-7" x1="269.2826" y1="664.8216" x2="269.2826" y2="674.4734"/>
          <line class="cls-7" x1="269.2826" y1="675.6466" x2="269.2826" y2="677.4063"/>
          <polyline class="cls-7" points="269.2826 676.9797 281.5254 676.9791 281.5254 676.9791 293.7682 676.9797"/>
          <line class="cls-7" x1="277.4946" y1="663.3552" x2="277.4946" y2="676.9797"/>
          <polyline class="cls-7" points="277.4946 676.1798 281.5254 676.1798 281.5254 676.1798 285.5562 676.1798"/>
          <line class="cls-7" x1="269.2826" y1="678.6061" x2="269.2826" y2="683.4853"/>
          <line class="cls-7" x1="269.2826" y1="684.6051" x2="269.2826" y2="686.4715"/>
          <line class="cls-7" x1="269.2826" y1="687.5646" x2="269.2826" y2="692.1772"/>
          <line class="cls-7" x1="269.2826" y1="693.4037" x2="269.2826" y2="695.2967"/>
          <line class="cls-7" x1="269.2826" y1="696.6565" x2="269.2826" y2="700.2026"/>
          <polyline class="cls-7" points="269.2826 701.3757 269.2826 703.9353 281.5254 703.9353 281.5254 703.9353 293.7682 703.9353 293.7682 701.3757"/>
          <polyline class="cls-7" points="269.2826 685.3521 281.5254 685.3521 281.5254 685.3521 293.7682 685.3521"/>
          <polyline class="cls-7" points="268.9773 735.4931 268.9773 739.368 281.5254 739.368"/>
          <polyline class="cls-7" points="274.6652 735.4931 277.8292 735.4931 277.8292 739.368"/>
          <polyline class="cls-7" points="270.3281 735.4931 273.1721 735.4931 273.1721 739.368"/>
          <polyline class="cls-7" points="279.18 735.4931 281.5254 735.4931 281.5254 735.4931 284.6469 735.4931"/>
          <line class="cls-7" x1="281.5254" y1="614.0105" x2="281.5254" y2="653.3641"/>
          <line class="cls-7" x1="283.0657" y1="655.9817" x2="283.7767" y2="655.9817"/>
          <line class="cls-7" x1="281.9459" y1="655.9817" x2="280.1564" y2="655.9817"/>
          <line class="cls-7" x1="279.9266" y1="694.9929" x2="269.2826" y2="694.9929"/>
          <polyline class="cls-7" points="273.2966 715.4252 268.9417 715.4252 268.9417 711.728 278.4335 711.728 278.4335 712.99"/>
          <polyline class="cls-7" points="275.0207 718.4291 274.7719 718.4291 274.7719 714.4653 278.4335 714.4653 278.4335 718.4291 276.0872 718.4291"/>
          <line class="cls-7" x1="274.7719" y1="711.728" x2="274.7719" y2="714.4653"/>
          <line class="cls-7" x1="292.1487" y1="653.3641" x2="292.1487" y2="656.426"/>
          <line class="cls-7" x1="281.5254" y1="676.9791" x2="281.5254" y2="692.6174"/>
          <line class="cls-7" x1="281.5254" y1="693.6839" x2="281.5254" y2="703.9353"/>
          <line class="cls-7" x1="281.1274" y1="694.9929" x2="293.7682" y2="694.9929"/>
          <line class="cls-7" x1="281.5254" y1="735.4931" x2="281.5254" y2="739.368"/>
          <line class="cls-7" x1="284.6469" y1="742.3963" x2="284.6469" y2="739.368"/>
          <line class="cls-7" x1="273.0675" y1="739.368" x2="273.0675" y2="740.508"/>
          <line class="cls-7" x1="274.6652" y1="739.368" x2="274.6652" y2="740.4678"/>
          <line class="cls-7" x1="277.2531" y1="739.368" x2="277.2531" y2="741.2106"/>
          <g>
            <line class="cls-7" x1="266.8153" y1="713.8372" x2="266.8153" y2="715.1569"/>
            <polyline class="cls-7" points="266.8153 721.1936 266.8153 719.2363 265.9836 719.2363"/>
            <polyline class="cls-7" points="266.8153 714.6637 265.9836 714.6637 265.9836 719.3429 264.1109 721.1936"/>
            <line class="cls-7" x1="263.5618" y1="714.6637" x2="263.5618" y2="718.7697"/>
          </g>
          <g>
            <line class="cls-7" x1="296.0313" y1="650.8347" x2="296.0313" y2="652.1545"/>
            <polyline class="cls-7" points="296.0313 658.2061 296.0313 656.2338 296.863 656.2338"/>
            <polyline class="cls-7" points="296.0313 651.6612 296.863 651.6612 296.863 656.3405 298.7357 658.2131"/>
            <line class="cls-7" x1="299.5293" y1="651.6612" x2="299.5293" y2="655.9817"/>
          </g>
          <g>
            <g>
              <line class="cls-7" x1="270.9746" y1="601.0503" x2="272.7173" y2="601.0391"/>
              <polyline class="cls-7" points="270.988 599.2689 272.6106 601.0391 277.3951 601.0391 277.3951 601.6419 278.2483 601.6419"/>
            </g>
            <line class="cls-7" x1="273.3824" y1="598.6824" x2="277.4884" y2="598.6824"/>
          </g>
          <polyline class="cls-7" points="279.9991 713.2906 279.9991 711.728 288.5133 711.728 288.5133 713.2906"/>
          <polyline class="cls-7" points="284.1407 718.4291 285.9359 718.4291 285.9359 711.728"/>
          <line class="cls-7" x1="288.5133" y1="714.797" x2="285.9359" y2="714.797"/>
          <polyline class="cls-7" points="288.5133 716.219 288.5133 717.8543 285.9359 717.8543"/>
          <line class="cls-7" x1="282.7542" y1="711.728" x2="282.7542" y2="718.5297"/>
          <line class="cls-7" x1="279.8214" y1="714.797" x2="282.7542" y2="714.797"/>
          <polyline class="cls-7" points="279.9991 716.219 279.9991 717.8543 282.7542 717.8543"/>
          <polyline class="cls-7" points="289.9531 713.0728 289.9531 711.728 293.8458 711.728 293.8458 714.4948 290.0419 714.4948 290.0419 718.4291 292.5304 718.4291"/>
          <polyline class="cls-7" points="293.9346 718.5297 293.9346 714.4948 294.3435 714.4948"/>
          <line class="cls-7" x1="295.3744" y1="714.4948" x2="296.0372" y2="714.4948"/>
          <polyline class="cls-7" points="279.9991 720.7427 279.2614 720.7427 279.2614 733.5406 280.1857 733.5406"/>
          <polyline class="cls-7" points="281.2522 733.6295 283.6163 733.6295 283.6163 720.7427 281.1278 720.7427 281.1278 722.2713 283.6163 722.2713"/>
          <polyline class="cls-7" points="291.455 705.9184 281.8566 705.9184 281.8566 709.0113 291.455 709.0113"/>
        </g>
        <polygon id="SE12_Outline" class="cls-5" points="266.8153 601.0503 270.9746 601.0503 271.0102 596.3221 279.6488 596.3221 279.6488 601.0503 296.0372 601.0503 296.0372 628.6722 298.2769 628.6722 298.2769 634.1116 296.0372 634.1116 296.0372 649.4691 302.0096 649.4691 302.0096 658.1788 296.0372 658.1788 296.0372 691.7556 298.348 691.7556 298.348 697.248 296.0372 697.248 296.0372 742.3963 266.8153 742.3963 266.8153 721.1936 261.1096 721.1936 261.1096 712.4989 266.8153 712.5345 266.8153 697.1769 264.7179 697.1769 264.7179 691.4534 266.8153 691.4534 266.8153 661.0939 264.078 661.0939 264.078 658.1788 266.8153 658.1788 266.8153 634.254 264.8245 634.254 264.8245 628.5658 266.8153 628.5658 266.8153 601.0503"/>
        <polygon id="SE12_Roof" class="cls-6" points="266.8153 601.0503 270.9746 601.0503 271.0102 596.3221 279.6488 596.3221 279.6488 601.0503 296.0372 601.0503 296.0372 628.6722 298.2769 628.6722 298.2769 634.1116 296.0372 634.1116 296.0372 649.4691 302.0096 649.4691 302.0096 658.1788 296.0372 658.1788 296.0372 691.7556 298.348 691.7556 298.348 697.248 296.0372 697.248 296.0372 742.3963 266.8153 742.3963 266.8153 721.1936 261.1096 721.1936 261.1096 712.4989 266.8153 712.5345 266.8153 697.1769 264.7179 697.1769 264.7179 691.4534 266.8153 691.4534 266.8153 661.0939 264.078 661.0939 264.078 658.1788 266.8153 658.1788 266.8153 634.254 264.8245 634.254 264.8245 628.5658 266.8153 628.5658 266.8153 601.0503"/>
      </g>
      <g id="SE10">
        <polygon id="SE10_Outline" class="cls-7" points="324.2504 673.3851 354.1123 673.3851 354.1123 665.8486 357.8094 667.9105 392.8616 667.9105 392.8616 666.4174 396.9142 666.4174 396.9142 672.9585 409.1434 672.9585 409.1434 687.9606 396.7009 687.9606 396.7009 698.5455 389.0933 698.5455 389.0933 701.0429 356.5741 701.0429 356.5741 710.2858 349.633 710.2858 349.633 708.6772 337.3772 708.6772 337.3772 710.0014 331.076 710.0014 331.076 704.8112 324.2504 704.8112 324.2504 701.1851 327.521 701.1851 327.521 677.2245 324.2504 677.2245 324.2504 673.3851"/>
        <polygon id="SE10_Roof" class="cls-6" points="324.2504 673.3851 354.1123 673.3851 354.1123 665.8486 357.8094 667.9105 392.8616 667.9105 392.8616 666.4174 396.9142 666.4174 396.9142 672.9585 409.1434 672.9585 409.1434 687.9606 396.7009 687.9606 396.7009 698.5455 389.0933 698.5455 389.0933 701.0429 356.5741 701.0429 356.5741 710.2858 349.633 710.2858 349.633 708.6772 337.3772 708.6772 337.3772 710.0014 331.076 710.0014 331.076 704.8112 324.2504 704.8112 324.2504 701.1851 327.521 701.1851 327.521 677.2245 324.2504 677.2245 324.2504 673.3851"/>
      </g>
      <g id="SE14">
        <path id="SE14_Outline" class="cls-7" d="M296.0372,704.8823h7.6654v-2.2267h7.0389v2.2267h20.3345v15.633h71.384v3.9194h6.6834s-.1422,10.5227,0,10.5227-7.1811,0-7.1811,0v20.9033h-80.4848v5.7591h-11.9447v-24.1892h2.844v-5.2929h-8.8875v-1.7306h-7.4521v-25.5248Z"/>
        <path id="SE14_Roof" class="cls-6" d="M296.0372,704.8823h7.6654v-2.2267h7.0389v2.2267h20.3345v15.633h71.384v3.9194h6.6834s-.1422,10.5227,0,10.5227-7.1811,0-7.1811,0v20.9033h-80.4848v5.7591h-11.9447v-24.1892h2.844v-5.2929h-8.8875v-1.7306h-7.4521v-25.5248Z"/>
      </g>
      <g id="SE09">
        <polygon id="SE09_Outline" class="cls-7" points="294.3352 601.0447 294.3352 597.7262 299.5255 597.7262 299.5255 600.7124 313.8165 600.7124 313.8165 612.233 306.1378 612.233 306.1378 614.0105 296.0372 614.0105 296.0372 601.0447 294.3352 601.0447"/>
        <polygon id="SE09_Roof" class="cls-6" points="294.3352 601.0447 294.3352 597.7262 299.5255 597.7262 299.5255 600.7124 313.8165 600.7124 313.8165 612.233 306.1378 612.233 306.1378 614.0105 296.0372 614.0105 296.0372 601.0447 294.3352 601.0447"/>
      </g>
      <g id="SE08">
        <polygon id="SE08_Outline" class="cls-7" points="270.9746 594.899 320.8429 594.899 320.8429 538.4459 307.9027 538.4459 307.9027 519.8178 289.2746 519.8178 289.2746 538.1615 270.9746 538.1615 270.9746 594.899"/>
        <polygon id="SE08_Roof" class="cls-6" points="270.9746 594.899 320.8429 594.899 320.8429 538.4459 307.9027 538.4459 307.9027 519.8178 289.2746 519.8178 289.2746 538.1615 270.9746 538.1615 270.9746 594.899"/>
      </g>
      <g id="SE06">
        <polygon id="SE06_Outline" class="cls-7" points="331.1168 526.1634 331.1168 533.3623 332.1833 533.3623 332.1833 548.0799 331.1168 548.0799 331.1168 558.5315 339.2146 563.7573 353.9397 563.7573 353.9397 556.5052 435.3133 556.5052 435.3133 543.494 438.9393 543.494 438.9393 539.5479 435.3133 539.5479 435.3133 526.1634 331.1168 526.1634"/>
        <polygon id="SE06_Roof" class="cls-6" points="331.1168 526.1634 331.1168 533.3623 332.1833 533.3623 332.1833 548.0799 331.1168 548.0799 331.1168 558.5315 339.2146 563.7573 353.9397 563.7573 353.9397 556.5052 435.3133 556.5052 435.3133 543.494 438.9393 543.494 438.9393 539.5479 435.3133 539.5479 435.3133 526.1634 331.1168 526.1634"/>
      </g>
      <g id="SE22">
        <path id="SE22_Outline" class="cls-7" d="M364.0359,526.1634v-11.3226h10.5938v-39.8869h-2.133v-25.0271h-19.3391v1.9908h-6.399v-5.1903h-9.8117v-1.5642h-26.9468v-5.8302h-17.0639l-2.6662,2.7729-2.133-4.7992h-24.3161v7.0389l-2.4529,3.5194v26.0225l1.0665,1.0665v33.9145h25.7686v-8.4241c0-2.4542,3.7022-2.7018,3.7022,0l13.5089-.1079v8.3187h31.4616v5.6524h10.7716v11.8559h16.3885Z"/>
        <path id="SE22_Roof" class="cls-6" d="M364.0359,526.1634v-11.3226h10.5938v-39.8869h-2.133v-25.0271h-19.3391v1.9908h-6.399v-5.1903h-9.8117v-1.5642h-26.9468v-5.8302h-17.0639l-2.6662,2.7729-2.133-4.7992h-24.3161v7.0389l-2.4529,3.5194v26.0225l1.0665,1.0665v33.9145h25.7686v-8.4241c0-2.4542,3.7022-2.7018,3.7022,0l13.5089-.1079v8.3187h31.4616v5.6524h10.7716v11.8559h16.3885Z"/>
      </g>
      <g id="SE04">
        <path id="SE04_Outline" class="cls-7" d="M431.0117,462.6893v-7.9987h-13.8644v7.9987h-25.5959l-1.0665,42.5531h21.9698v-3.4129h7.039v9.7051h7.8465v-16.1197c0-1.8554,1.1387-3.2184,2.9939-3.2184h5.4767v-29.5073h-4.7992ZM420.88,491.5912h-8.532v-16.5307h8.532v16.5307Z"/>
        <path id="SE04_Roof" class="cls-6" d="M431.0117,462.6893v-7.9987h-13.8644v7.9987h-25.5959l-1.0665,42.5531h21.9698v-3.4129h7.039v9.7051h7.8465v-16.1197c0-1.8554,1.1387-3.2184,2.9939-3.2184h5.4767v-29.5073h-4.7992ZM420.88,491.5912h-8.532v-16.5307h8.532v16.5307Z"/>
      </g>
      <g id="SE01">
        <polygon id="SE01_Outline" class="cls-7" points="469.2633 461.5872 479.7861 472.1099 475.3779 476.5181 478.5774 479.7176 491.5886 466.7064 494.5748 466.7064 494.5748 431.1566 506.5195 431.1566 512.9896 437.6266 512.9896 439.9729 517.6111 439.9729 517.6111 466.2798 520.6974 466.2798 520.6974 492.5866 527.1384 492.5866 527.1384 593.7624 507.2305 593.7624 507.2305 586.7225 503.8177 586.7225 498.9474 581.8522 498.9474 578.1906 489.4556 578.1906 489.4556 529.5584 485.0474 529.5584 485.0474 521.1687 474.2403 521.1687 474.2403 515.7651 472.822 515.7651 472.822 504.5314 470.5899 502.2993 464.5707 502.2993 464.5707 493.7242 459.8071 488.9605 468.0546 480.713 463.4332 476.0915 468.0546 471.47 463.6465 467.0619 469.2633 461.5872"/>
        <polygon id="SE01_Roof" class="cls-6" points="469.2633 461.5872 479.7861 472.1099 475.3779 476.5181 478.5774 479.7176 491.5886 466.7064 494.5748 466.7064 494.5748 431.1566 506.5195 431.1566 512.9896 437.6266 512.9896 439.9729 517.6111 439.9729 517.6111 466.2798 520.6974 466.2798 520.6974 492.5866 527.1384 492.5866 527.1384 593.7624 507.2305 593.7624 507.2305 586.7225 503.8177 586.7225 498.9474 581.8522 498.9474 578.1906 489.4556 578.1906 489.4556 529.5584 485.0474 529.5584 485.0474 521.1687 474.2403 521.1687 474.2403 515.7651 472.822 515.7651 472.822 504.5314 470.5899 502.2993 464.5707 502.2993 464.5707 493.7242 459.8071 488.9605 468.0546 480.713 463.4332 476.0915 468.0546 471.47 463.6465 467.0619 469.2633 461.5872"/>
      </g>
      <g id="SE19">
        <polygon id="SE19_Outline" class="cls-7" points="530.3379 777.0207 530.3379 784.6639 535.4571 784.6639 535.4571 822.2045 534.1773 822.2045 534.1773 832.0162 546.4064 832.0162 546.4064 830.3098 564.432 830.3098 564.432 823.7687 566.338 823.7687 566.338 820.9247 564.432 820.9247 564.432 816.2321 566.338 816.2321 566.338 813.3881 564.432 813.3881 564.432 808.1268 566.338 808.1268 566.338 805.425 564.432 805.425 564.432 800.8746 566.338 800.8746 566.338 798.315 564.432 798.315 564.432 793.1958 566.338 793.1958 566.338 791.3472 564.432 791.3472 564.432 786.3703 566.338 786.3703 566.338 783.9529 564.432 783.9529 564.432 777.0207 558.7778 777.0207 558.7778 771.2972 551.099 771.2972 551.099 773.0035 544.2734 773.0035 544.2734 777.0207 530.3379 777.0207"/>
        <polygon id="SE19_Roof" class="cls-6" points="530.3379 777.0207 530.3379 784.6639 535.4571 784.6639 535.4571 822.2045 534.1773 822.2045 534.1773 832.0162 546.4064 832.0162 546.4064 830.3098 564.432 830.3098 564.432 823.7687 566.338 823.7687 566.338 820.9247 564.432 820.9247 564.432 816.2321 566.338 816.2321 566.338 813.3881 564.432 813.3881 564.432 808.1268 566.338 808.1268 566.338 805.425 564.432 805.425 564.432 800.8746 566.338 800.8746 566.338 798.315 564.432 798.315 564.432 793.1958 566.338 793.1958 566.338 791.3472 564.432 791.3472 564.432 786.3703 566.338 786.3703 566.338 783.9529 564.432 783.9529 564.432 777.0207 558.7778 777.0207 558.7778 771.2972 551.099 771.2972 551.099 773.0035 544.2734 773.0035 544.2734 777.0207 530.3379 777.0207"/>
      </g>
      <g id="SE16">
        <polygon id="SE16_Outline" class="cls-4" points="307.0799 783.1807 345.4559 783.1807 345.4559 798.9648 354.5566 808.0656 354.5566 813.6114 365.9326 813.6114 365.9326 810.1986 373.4691 810.1986 373.4691 814.749 412.5739 814.749 412.5739 825.1295 411.0097 825.1295 411.0097 839.3494 384.9873 839.3494 384.9873 843.7576 381.7167 843.7576 381.7167 871.2021 356.4052 871.2021 356.4052 860.3949 340.0523 860.3949 340.0523 887.2706 325.6902 887.2706 325.6902 894.8071 312.4657 894.8071 312.4657 884.1422 306.4933 884.1422 306.4933 881.4404 294.9751 881.4404 294.9751 857.8353 291.278 857.8353 291.278 838.9939 286.4432 838.9939 286.4432 822.7121 292.4156 822.7121 292.4156 808.7766 290.7092 808.7766 290.7092 792.4237 296.1127 792.4237 296.1127 787.5889 307.0799 787.5889 307.0799 783.1807"/>
        <polygon id="SE16_Roof" class="cls-6" points="307.0799 783.1807 345.4559 783.1807 345.4559 798.9648 354.5566 808.0656 354.5566 813.6114 365.9326 813.6114 365.9326 810.1986 373.4691 810.1986 373.4691 814.749 412.5739 814.749 412.5739 825.1295 411.0097 825.1295 411.0097 839.3494 384.9873 839.3494 384.9873 843.7576 381.7167 843.7576 381.7167 871.2021 356.4052 871.2021 356.4052 860.3949 340.0523 860.3949 340.0523 887.2706 325.6902 887.2706 325.6902 894.8071 312.4657 894.8071 312.4657 884.1422 306.4933 884.1422 306.4933 881.4404 294.9751 881.4404 294.9751 857.8353 291.278 857.8353 291.278 838.9939 286.4432 838.9939 286.4432 822.7121 292.4156 822.7121 292.4156 808.7766 290.7092 808.7766 290.7092 792.4237 296.1127 792.4237 296.1127 787.5889 307.0799 787.5889 307.0799 783.1807"/>
      </g>
      <g id="SE30">
        <rect id="SE30_Outline" class="cls-4" x="519.7211" y="1148.2062" width="35.3365" height="56.3109"/>
        <rect id="SE30_Roof" class="cls-6" x="519.7211" y="1148.2062" width="35.3365" height="56.3109"/>
      </g>
      <g id="SE41">
        <path id="SE41_Outline" class="cls-4" d="M453.1718,1513.5161v3.6972h-3.1284v10.5227l3.9816,3.9816c5.6169,2.4174,28.5109,4.4082,32.5636,0h4.5504c3.4128,2.6119,19.9079,2.6119,22.4675,0v-16.4951l-5.5458-1.7064h-54.8889Z"/>
        <path id="SE41_Roof" class="cls-6" d="M453.1718,1513.5161v3.6972h-3.1284v10.5227l3.9816,3.9816c5.6169,2.4174,28.5109,4.4082,32.5636,0h4.5504c3.4128,2.6119,19.9079,2.6119,22.4675,0v-16.4951l-5.5458-1.7064h-54.8889Z"/>
      </g>
      <g id="SE42">
        <polygon id="SE42_Outline" class="cls-4" points="446.0573 1545.6531 464.1211 1545.6531 464.1211 1549.0659 465.6853 1549.0659 465.6853 1565.2766 463.5524 1565.2766 463.5524 1573.3819 466.183 1576.0126 467.9961 1574.1996 472.3687 1578.5722 470.5557 1580.3853 474.0751 1583.9047 481.5406 1583.9047 481.5406 1582.3405 497.1114 1582.3405 500.5242 1585.7533 500.5242 1601.8929 495.7605 1601.8929 495.7605 1604.7369 478.981 1604.7369 465.3298 1601.0397 444.6754 1580.3853 444.6754 1549.0659 446.0573 1545.6531"/>
        <polygon id="SE42_Roof" class="cls-6" points="446.0573 1545.6531 464.1211 1545.6531 464.1211 1549.0659 465.6853 1549.0659 465.6853 1565.2766 463.5524 1565.2766 463.5524 1573.3819 466.183 1576.0126 467.9961 1574.1996 472.3687 1578.5722 470.5557 1580.3853 474.0751 1583.9047 481.5406 1583.9047 481.5406 1582.3405 497.1114 1582.3405 500.5242 1585.7533 500.5242 1601.8929 495.7605 1601.8929 495.7605 1604.7369 478.981 1604.7369 465.3298 1601.0397 444.6754 1580.3853 444.6754 1549.0659 446.0573 1545.6531"/>
      </g>
      <g id="SE40">
        <polygon id="SE40_Outline" class="cls-4" points="507.563 1566.6275 507.563 1573.3108 510.407 1573.3108 510.407 1581.985 523.2049 1581.985 523.2049 1585.6822 547.9476 1585.6822 547.9476 1583.9758 556.1952 1583.9758 556.1952 1577.5768 558.0052 1577.5768 558.0052 1566.6275 558.0052 1561.9349 555.6264 1561.9349 555.6264 1556.6735 548.232 1556.6735 548.232 1554.3983 523.4893 1554.3983 519.2234 1558.6643 510.2648 1558.6643 510.2648 1566.4853 507.563 1566.6275"/>
        <polygon id="SE40_Roof" class="cls-6" points="507.563 1566.6275 507.563 1573.3108 510.407 1573.3108 510.407 1581.985 523.2049 1581.985 523.2049 1585.6822 547.9476 1585.6822 547.9476 1583.9758 556.1952 1583.9758 556.1952 1577.5768 558.0052 1577.5768 558.0052 1566.6275 558.0052 1561.9349 555.6264 1561.9349 555.6264 1556.6735 548.232 1556.6735 548.232 1554.3983 523.4893 1554.3983 519.2234 1558.6643 510.2648 1558.6643 510.2648 1566.4853 507.563 1566.6275"/>
      </g>
      <g id="SE50">
        <polygon id="SE50_Outline" class="cls-4" points="487.7973 1633.4611 487.7973 1675.6943 481.7894 1675.6943 481.7894 1692.2789 488.5791 1699.0686 488.5791 1713.6437 516.486 1713.6437 516.486 1690.483 520.1832 1690.483 520.1832 1699.8682 527.7198 1699.8682 527.7198 1703.992 535.6829 1703.992 535.6829 1699.5838 543.3617 1699.5838 543.3617 1690.7674 548.1965 1690.7674 548.1965 1648.8876 514.9929 1648.8876 514.9929 1633.4611 487.7973 1633.4611"/>
        <polygon id="SE50_Roof" class="cls-6" points="487.7973 1633.4611 487.7973 1675.6943 481.7894 1675.6943 481.7894 1692.2789 488.5791 1699.0686 488.5791 1713.6437 516.486 1713.6437 516.486 1690.483 520.1832 1690.483 520.1832 1699.8682 527.7198 1699.8682 527.7198 1703.992 535.6829 1703.992 535.6829 1699.5838 543.3617 1699.5838 543.3617 1690.7674 548.1965 1690.7674 548.1965 1648.8876 514.9929 1648.8876 514.9929 1633.4611 487.7973 1633.4611"/>
      </g>
    </g>
    <g id="NW">
      <g id="NW04">
        <polygon id="NW04_Outline" class="cls-7" points="160.0903 408.1302 160.0903 334.6132 99.3712 334.6132 99.3712 338.4526 94.6786 338.4526 94.6786 375.14 99.5134 375.14 99.5134 380.4014 91.2658 380.4014 91.2658 408.1302 160.0903 408.1302"/>
        <polygon id="NW04_Roof" class="cls-6" points="160.0903 408.1302 160.0903 334.6132 99.3712 334.6132 99.3712 338.4526 94.6786 338.4526 94.6786 375.14 99.5134 375.14 99.5134 380.4014 91.2658 380.4014 91.2658 408.1302 160.0903 408.1302"/>
      </g>
      <g id="NW01">
        <polygon id="NW01_Outline" class="cls-7" points="101.7886 304.0404 101.7886 317.6204 142.3154 317.6204 142.3154 304.0404 139.9691 304.0404 139.9691 265.7888 142.3154 265.7888 142.3154 253.4174 101.7886 253.4174 101.7886 265.7888 121.1988 265.7888 121.1988 271.7611 101.7886 271.7611 101.7886 296.9304 121.021 296.9304 121.021 304.0404 101.7886 304.0404"/>
        <polygon id="NW01_Roof" class="cls-6" points="101.7886 304.0404 101.7886 317.6204 142.3154 317.6204 142.3154 304.0404 139.9691 304.0404 139.9691 265.7888 142.3154 265.7888 142.3154 253.4174 101.7886 253.4174 101.7886 265.7888 121.1988 265.7888 121.1988 271.7611 101.7886 271.7611 101.7886 296.9304 121.021 296.9304 121.021 304.0404 101.7886 304.0404"/>
      </g>
      <g id="NW03">
        <polygon id="NW03_Outline" class="cls-7" points="156.713 192.4139 175.4833 192.4139 175.4833 196.3955 222.498 196.3955 222.498 238.7709 176.0521 238.7709 176.0521 242.7525 156.713 242.7525 156.713 192.4139"/>
        <polygon id="NW03_Roof" class="cls-6" points="156.713 192.4139 175.4833 192.4139 175.4833 196.3955 222.498 196.3955 222.498 238.7709 176.0521 238.7709 176.0521 242.7525 156.713 242.7525 156.713 192.4139"/>
      </g>
      <g id="NW05">
        <path id="NW05_Outline" class="cls-7" d="M196.671,306.671v8.1054h4.266v12.8157c2.8973-1.2442,16.4418-3.3061,16.6373.8354h8.532v-3.2706h-1.2021v-7.6077c0-2.2251.7146-4.4036,1.9131-6.2783l2.133-4.6h-32.2792Z"/>
        <path id="NW05_Roof" class="cls-6" d="M196.671,306.671v8.1054h4.266v12.8157c2.8973-1.2442,16.4418-3.3061,16.6373.8354h8.532v-3.2706h-1.2021v-7.6077c0-2.2251.7146-4.4036,1.9131-6.2783l2.133-4.6h-32.2792Z"/>
      </g>
      <g id="NW06">
        <polygon id="NW06_Outline" class="cls-7" points="179.8915 338.9858 229.8035 338.9858 229.8035 358.1827 226.3907 358.1827 226.3907 392.2039 229.8035 392.2039 229.8035 411.5785 179.8915 411.5785 179.8915 392.2039 183.8894 392.2039 183.8894 358.1827 179.8915 358.1827 179.8915 338.9858"/>
        <polygon id="NW06_Roof" class="cls-6" points="179.8915 338.9858 229.8035 338.9858 229.8035 358.1827 226.3907 358.1827 226.3907 392.2039 229.8035 392.2039 229.8035 411.5785 179.8915 411.5785 179.8915 392.2039 183.8894 392.2039 183.8894 358.1827 179.8915 358.1827 179.8915 338.9858"/>
      </g>
    </g>
    <g id="NE">
      <g id="NE22">
        <polygon id="NE22_Outline" class="cls-7" points="257.4612 334.0799 262.0116 334.0799 262.0116 337.4927 289.8826 337.4927 289.8826 334.0799 294.433 334.0799 294.433 314.0299 257.4612 314.0299 257.4612 334.0799"/>
        <polygon id="NE22_Roof" class="cls-6" points="257.4612 334.0799 262.0116 334.0799 262.0116 337.4927 289.8826 337.4927 289.8826 334.0799 294.433 334.0799 294.433 314.0299 257.4612 314.0299 257.4612 334.0799"/>
      </g>
      <g id="NE24">
        <rect id="NE24_Outline" class="cls-7" x="302.8228" y="313.0345" width="41.38" height="24.4583"/>
        <rect id="NE24_Roof" class="cls-6" x="302.8228" y="313.0345" width="41.38" height="24.4583"/>
      </g>
      <g id="NE23">
        <rect id="NE23_Outline" class="cls-7" x="302.8228" y="251.8532" width="41.38" height="24.2094"/>
        <rect id="NE23_Outline-2" data-name="NE23_Outline" class="cls-6" x="302.8228" y="251.8532" width="41.38" height="24.2094"/>
      </g>
      <g id="NE08">
        <polygon id="NE08_Outline" class="cls-7" points="469.427 234.8604 478.1722 234.8604 478.1722 250.5379 505.4745 250.5379 505.4745 248.2983 514.6463 248.2983 514.6463 178.0163 476.8924 178.0163 476.8924 183.3487 473.7996 183.3487 473.7996 181.5357 469.427 181.5357 469.427 234.8604"/>
        <polygon id="NE08_Roof" class="cls-6" points="469.427 234.8604 478.1722 234.8604 478.1722 250.5379 505.4745 250.5379 505.4745 248.2983 514.6463 248.2983 514.6463 178.0163 476.8924 178.0163 476.8924 183.3487 473.7996 183.3487 473.7996 181.5357 469.427 181.5357 469.427 234.8604"/>
      </g>
      <g id="NE25">
        <path id="NE25_Outline" class="cls-7" d="M367.3634,275.1757h-6.0646c-2.2745-.3696-3.9722-2.2929-4.0566-4.5957v-15.7051c.0539-1.4108,2.3532-3.418,3.6463-2.8514l3.0129,1.6775c.919.2583,1.9037.1273,2.7232-.3621l1.0587-1.4857h39.7802v7.0744h4.266v7.6788h-3.8394v13.7578h-40.5268v-5.1884Z"/>
        <path id="NE25_Roof" class="cls-6" d="M367.3634,275.1757h-6.0646c-2.2745-.3696-3.9722-2.2929-4.0566-4.5957v-15.7051c.0539-1.4108,2.3532-3.418,3.6463-2.8514l3.0129,1.6775c.919.2583,1.9037.1273,2.7232-.3621l1.0587-1.4857h39.7802v7.0744h4.266v7.6788h-3.8394v13.7578h-40.5268v-5.1884Z"/>
      </g>
      <g id="NE20">
        <polygon id="NE20_Outline" class="cls-7" points="253.0175 411.5785 263.1314 411.5785 263.1314 410.121 305.4357 410.121 305.4357 393.5548 327.2633 393.5548 327.2633 368.3144 305.0446 368.3144 305.0446 349.9707 263.5224 349.9707 263.5224 357.9339 250.2979 357.9339 250.2979 386.9425 263.949 386.9425 263.949 399.5983 253.0175 399.5983 253.0175 411.5785"/>
        <polygon id="NE20_Roof" class="cls-6" points="253.0175 411.5785 263.1314 411.5785 263.1314 410.121 305.4357 410.121 305.4357 393.5548 327.2633 393.5548 327.2633 368.3144 305.0446 368.3144 305.0446 349.9707 263.5224 349.9707 263.5224 357.9339 250.2979 357.9339 250.2979 386.9425 263.949 386.9425 263.949 399.5983 253.0175 399.5983 253.0175 411.5785"/>
      </g>
      <g id="NE18">
        <polygon id="NE18_Outline" class="cls-7" points="331.3515 368.4566 343.0118 368.4566 343.0118 349.9707 392.0706 349.9707 392.0706 398.0341 383.823 398.0341 383.823 410.4054 331.3515 410.4054 331.3515 368.4566"/>
        <polygon id="NE18_Roof" class="cls-6" points="331.3515 368.4566 343.0118 368.4566 343.0118 349.9707 392.0706 349.9707 392.0706 398.0341 383.823 398.0341 383.823 410.4054 331.3515 410.4054 331.3515 368.4566"/>
      </g>
      <g id="NE16">
        <path id="NE16_Outline" class="cls-7" d="M405.7572,352.1215v19.5702h1.8664v29.2219h3.8927v10.4516h63.1365l8.6919-5.9724v-47.6723l-18.397.2133v-2.0263h-31.6749v-3.7861h-11.1449v4.7459c-.5659,1.3609-3.784,1.4578-4.3726.1066v-4.8525h-11.9981Z"/>
        <path id="NE16_Roof" class="cls-6" d="M405.7572,352.1215v19.5702h1.8664v29.2219h3.8927v10.4516h63.1365l8.6919-5.9724v-47.6723l-18.397.2133v-2.0263h-31.6749v-3.7861h-11.1449v4.7459c-.5659,1.3609-3.784,1.4578-4.3726.1066v-4.8525h-11.9981Z"/>
      </g>
      <g id="NE10">
        <polygon id="NE10_Outline" class="cls-7" points="535.5852 253.3108 586.4569 253.3108 586.4569 246.0586 588.1278 246.0586 588.1278 189.7477 586.4569 189.7477 586.4569 179.7227 535.5852 179.7227 535.5852 191.2408 533.9499 191.2408 533.9499 203.3988 526.4844 203.3988 526.4844 232.8341 534.0921 232.8341 534.0921 245.4543 535.5852 245.4543 535.5852 253.3108"/>
        <polygon id="NE10_Roof" class="cls-6" points="535.5852 253.3108 586.4569 253.3108 586.4569 246.0586 588.1278 246.0586 588.1278 189.7477 586.4569 189.7477 586.4569 179.7227 535.5852 179.7227 535.5852 191.2408 533.9499 191.2408 533.9499 203.3988 526.4844 203.3988 526.4844 232.8341 534.0921 232.8341 534.0921 245.4543 535.5852 245.4543 535.5852 253.3108"/>
      </g>
      <g id="NE01">
        <polygon id="NE01_Outline" class="cls-7" points="280.9063 146.0037 280.9063 93.5855 275.6805 90.5993 275.6805 74.9218 280.3731 74.9218 280.3731 62.6571 335.5108 62.6571 335.5108 60.3108 342.2297 60.3108 342.2297 62.3372 391.1818 62.3372 391.1818 76.5216 397.6874 76.5216 397.6874 73.642 415.0713 73.642 415.0713 87.8264 402.8066 87.8264 402.8066 90.1727 395.5633 90.1727 395.5633 91.3814 390.5419 91.3814 390.5419 146.0037 280.9063 146.0037"/>
        <polygon id="NE01_Roof" class="cls-6" points="280.9063 146.0037 280.9063 93.5855 275.6805 90.5993 275.6805 74.9218 280.3731 74.9218 280.3731 62.6571 335.5108 62.6571 335.5108 60.3108 342.2297 60.3108 342.2297 62.3372 391.1818 62.3372 391.1818 76.5216 397.6874 76.5216 397.6874 73.642 415.0713 73.642 415.0713 87.8264 402.8066 87.8264 402.8066 90.1727 395.5633 90.1727 395.5633 91.3814 390.5419 91.3814 390.5419 146.0037 280.9063 146.0037"/>
      </g>
      <g id="NE02">
        <polygon id="NE02_Outline" class="cls-7" points="259.9319 238.5487 259.9319 244.9032 276.3559 244.9032 276.3559 238.1843 305.2579 238.1843 305.2579 228.7459 302.8228 228.7459 302.8228 178.0163 263.9846 178.0163 263.9846 238.5487 259.9319 238.5487"/>
        <polygon id="NE02_Outline-2" data-name="NE02_Outline" class="cls-6" points="259.9319 238.5487 259.9319 244.9032 276.3559 244.9032 276.3559 238.1843 305.2579 238.1843 305.2579 228.7459 302.8228 228.7459 302.8228 178.0163 263.9846 178.0163 263.9846 238.5487 259.9319 238.5487"/>
      </g>
      <g id="NE04">
        <polygon id="NE04_Outline" class="cls-7" points="342.9185 238.5487 342.7985 178.0163 395.199 178.0163 395.199 203.8965 383.2542 203.8965 383.2542 238.5487 342.9185 238.5487"/>
        <polygon id="NE04_Roof" class="cls-6" points="342.9185 238.5487 342.7985 178.0163 395.199 178.0163 395.199 203.8965 383.2542 203.8965 383.2542 238.5487 342.9185 238.5487"/>
      </g>
      <g id="NE28">
        <rect id="NE28_Outline" class="cls-7" x="410.1654" y="313.0345" width="41.8066" height="24.4583"/>
        <rect id="NE28_Roof" class="cls-6" x="410.1654" y="313.0345" width="41.8066" height="24.4583"/>
      </g>
      <g id="NE12">
        <polygon id="NE12_Outline" class="cls-7" points="518.2013 318.5802 518.2013 328.8186 536.1184 328.8186 536.1184 325.8324 586.4569 325.8324 586.4569 264.8289 535.5852 264.8289 535.5852 266.9619 530.5726 266.9619 530.5726 293.3043 535.4785 293.3043 535.4785 303.436 530.6793 303.436 530.6793 318.5802 518.2013 318.5802"/>
        <polygon id="NE12_Roof" class="cls-6" points="518.2013 318.5802 518.2013 328.8186 536.1184 328.8186 536.1184 325.8324 586.4569 325.8324 586.4569 264.8289 535.5852 264.8289 535.5852 266.9619 530.5726 266.9619 530.5726 293.3043 535.4785 293.3043 535.4785 303.436 530.6793 303.436 530.6793 318.5802 518.2013 318.5802"/>
      </g>
      <g id="NE06">
        <polygon id="NE06_Outline" class="cls-7" points="423.4966 178.0163 423.4966 194.5825 406.4327 194.5825 406.4327 206.9538 423.4966 206.9538 423.4966 241.2238 462.0326 241.2238 462.0326 178.0163 423.4966 178.0163"/>
        <polygon id="NE06_Roof" class="cls-6" points="423.4966 178.0163 423.4966 194.5825 406.4327 194.5825 406.4327 206.9538 423.4966 206.9538 423.4966 241.2238 462.0326 241.2238 462.0326 178.0163 423.4966 178.0163"/>
      </g>
      <g id="NE3">
        <path id="NE3_Outline_N" class="cls-7" d="M437.0233,157.1308v-5.1192h-6.399v-9.8117h-6.1146s1.1376-16.7795,6.399-16.7795h17.9171c3.7327-.3555,7.821,11.0915,7.821,11.0915h-2.844v4.7637h-9.9539v15.8552h-6.8256Z"/>
        <path id="NE3_Roof_N" class="cls-6" d="M437.0233,157.1308v-5.1192h-6.399v-9.8117h-6.1146s1.1376-16.7795,6.399-16.7795h17.9171c3.7327-.3555,7.821,11.0915,7.821,11.0915h-2.844v4.7637h-9.9539v15.8552h-6.8256Z"/>
        <polygon id="NE3_Outline_S" class="cls-7" points="413.987 161.9655 427.2116 161.9655 427.2116 144.9016 423.0878 144.9016 423.0878 143.6218 416.2622 143.6218 416.2622 151.4428 413.987 151.4428 413.987 161.9655"/>
        <polygon id="NE3_Roof_S" class="cls-6" points="413.987 161.9655 427.2116 161.9655 427.2116 144.9016 423.0878 144.9016 423.0878 143.6218 416.2622 143.6218 416.2622 151.4428 413.987 151.4428 413.987 161.9655"/>
      </g>
      <g id="NE9">
        <polygon id="NE9_Outline" class="cls-7" points="573.4279 64.6301 573.4279 73.0199 575.7031 73.0199 575.7031 81.8363 572.788 84.7513 555.0842 84.7513 555.0842 120.0879 572.8591 120.0879 572.8591 144.6883 520.672 144.6883 520.672 132.8858 518.1124 132.8858 518.1124 74.8685 521.383 74.8685 521.383 64.6301 573.4279 64.6301"/>
        <polygon id="NE9_Roof" class="cls-6" points="573.4279 64.6301 573.4279 73.0199 575.7031 73.0199 575.7031 81.8363 572.788 84.7513 555.0842 84.7513 555.0842 120.0879 572.8591 120.0879 572.8591 144.6883 520.672 144.6883 520.672 132.8858 518.1124 132.8858 518.1124 74.8685 521.383 74.8685 521.383 64.6301 573.4279 64.6301"/>
      </g>
      <g id="NE7">
        <rect id="NE7_Outline" class="cls-7" x="517.2326" y="151.8694" width="63.6608" height="10.976"/>
        <rect id="NE7_Roof" class="cls-6" x="517.2326" y="151.8694" width="63.6608" height="10.976"/>
      </g>
    </g>
    <g id="Extras">
      <polygon id="Extra01_Roof" class="cls-6" points="342.9185 228.7814 342.7274 178.9406 302.8228 178.0163 302.8228 228.7814 307.0799 228.7814 307.0799 233.7584 318.5536 233.7584 318.5536 228.7814 342.9185 228.7814"/>
      <rect id="Extra02_Roof" class="cls-6" x="388.6578" y="215.3436" width="16.7795" height="10.2383"/>
      <polygon id="Extra03_Roof" class="cls-6" points="385.245 225.5819 401.5979 225.5819 401.4557 237.2423 385.1028 237.2423 385.245 225.5819"/>
      <rect id="Extra04_Roof" class="cls-6" x="415.9956" y="251.8532" width="8.8519" height="12.6202"/>
      <rect id="Extra05_Roof" class="cls-6" x="191.8185" y="244.9032" width="17.0639" height="30.2351"/>
      <rect id="Extra06_Roof" class="cls-6" x="179.7315" y="249.8269" width="7.3944" height="25.3115"/>
      <polygon id="ICBC" class="cls-2" points="490.428 1370.3925 500.773 1370.3925 510.2648 1379.7777 535.4341 1379.7777 544.8192 1370.3925 554.6357 1370.3925 554.2561 1446.966 536.7139 1446.966 536.7139 1453.4724 543.966 1460.7246 543.966 1470.8918 501.4129 1470.8918 501.4129 1460.9379 508.6117 1453.7391 508.6117 1446.966 490.428 1446.966 490.428 1370.3925"/>
    </g>
  </g>
</svg>