<?xml version="1.0" encoding="UTF-8"?>
<svg id="Layer_2" data-name="Layer 2" xmlns="http://www.w3.org/2000/svg" width="367.7295" height="1101.2642" xmlns:xlink="http://www.w3.org/1999/xlink" viewBox="0 0 367.7295 1101.2642">
  <defs>
    <style>
      .cls-1 {
        fill: #21df00;
      }

      .cls-1, .cls-2, .cls-3, .cls-4, .cls-5, .cls-6, .cls-7, .cls-8 {
        stroke: #000;
        stroke-miterlimit: 10;
      }

      .cls-9 {
        opacity: .5;
      }

      .cls-2 {
        fill: #8da5b6;
      }

      .cls-2, .cls-3, .cls-5, .cls-6, .cls-7, .cls-8 {
        stroke-width: .25px;
      }

      .cls-3 {
        fill: #000;
      }

      .cls-4, .cls-10, .cls-7 {
        fill: none;
      }

      .cls-10, .cls-11, .cls-12 {
        stroke-width: 0px;
      }

      .cls-5 {
        fill: #fff;
      }

      .cls-6, .cls-11 {
        fill: #b5b5b5;
      }

      .cls-13 {
        clip-path: url(#clippath);
      }

      .cls-12 {
        fill: #dde4bf;
      }

      .cls-8 {
        fill: #7e7f7e;
      }
    </style>
    <clipPath id="clippath">
      <path id="WalkingMask" class="cls-10" d="M129.1676,405.4785h24v3.4338h6.5718v4.7717h-1.2553v3.6273h1.0064v4.0449h-8.94v-8.4176c-2-2.0346-21.383-5.2819-21.383-5.2819v-2.1782ZM129.1676,409.6356v25.617h4.9362c2.2979-2.2979,18.5532-9.2326,18.5532-9.2326v-3.3631h-3.4894v-8.766c-2.5106-1.1489-11.7021-4.104-20-4.2553ZM150.5718,429.3378l-16.9362,8.0426v2.2553l11.3617.0426,5.6596-4.4255v1.9574h2v-7.8723h-2.0851ZM129.1676,442.3378v12.8298l4.8298-2.234v-7.9149l-1.7872-2.6809h-3.0426ZM128.891,476.1037s23.766-1.6596,25.5319-2.3617,1.0213-1.5319,1.0213-1.5319h-20.7447v-17.0426l-5.5319,1.7872-.2766,19.1489ZM97.8271,431.4634h3.6845l2.7391-8.6363h-6.4236v8.6363ZM126.2459,422.6569h-6.4236l2.7391,8.6363h3.6845v-8.6363ZM82.4251,414.5516l5.0045,5.0045,7.6316-7.6316v-5.9484l-13.0213-.4976.3852,9.0731ZM79.9132,415.8485l-.0967,6.8084h-4.7766v4.0745h5.5638l5.9148-5.9148-4.968-4.968h-1.6374M69.0771,426.4548v-3.7979h-4.9307v-37.7998h-2.9842v35.47c.2128,2.7021,1.8511,4.7872,3.1064,5.4894.6071.3396,4.8085.6383,4.8085.6383ZM54.5665,482.4548l19.766,4.2553,4.4255-.383,5.8298-3.9574h6.7447v-20.117l3.8377-19.3609v-26.8492l-12.7101,12.7101h-23.8723v-32.6809l-4.0213.383v86ZM124.9282,476.6356l2.4681-1.9574v-4.9362l-4.1064-35.1064h-25.7804v8.1383l-3.6439,20.6277v19.1523c5.2979.7766,31.0626-5.9183,31.0626-5.9183ZM159.7394,431.6852h-4.1394v10.8774h4.1393v-10.8774M150.8484,447.7633v2.4894l3.383,1.9149v4.3404h2.4255l2.8336,5.7447h2.3513v-11.0426l-2.9117-6.835h-5.1455l-2.9362,3.3882ZM161.0333,444.3751l1.4799,5.2598c.3742.8106,1.5136.8452,1.9363.0587l1.8817-5.3185h-5.2979ZM177.2288,444.3751h-8.4531c-5.0934,4.3882-7.5443,13.5797,0,19.5797h12.5834v-7.3617h-6.1141v-3.5745h2.6247v-3.7872h-1.4043v-1.5319h4.3378v-5.1369h-3.5745v1.8124ZM186.6356,455.8803l.5957,7.5213h2.5532l4.3404-10.9681h-1.6702v3.4468h-5.8191ZM195.4867,452.4335l-4.5106,11.9043h17.0213l2.2979,1.2979h32v-13.2021h-46.8085ZM246.2101,437.4229v15.5106h-1.0213v5.6809h5.3564v-21.1915h-4.3351ZM250.0824,472.125c-3.2553-1.2766-5.9899-.5073-6.1277.3191-.4031,2.4189,2.4255,11.0426,5.4255,13.8511l4.5426-.7766,9.4681.7766v4.4362l1.0532,1.0532,1.2766-1.2766v-18.7021l-15.6383.3191ZM93.8656,490.8639h7.6596l3.5745-7.6596-10.8868,1.4468-.3472,6.2128ZM84.3336,484.9916l-2.2979,1.7185v2.6219l8.8511,1.5319v-5.8723h-6.5532ZM100.9229,493.5239v1.4043h42.8351v.9149h11.8936v7.5319h9.9054v6.1059h3.1489v-20.6809l-3.9149-4.1702-29.8723.3617s-8.1702-6.7447-8.4255-6.7447-18.9574,4.7766-18.9574,4.7766l-6.6129,10.5004ZM63.0039,488.2575l-3.8777-.9255v1.3404l-4.0298-.8937-.2553,8.5957,8.1627-8.1169ZM54.4814,557.7154c1.0839,3.1707,4.4211,5.5471,4.4211,5.5471l5.2746-4.3944c.8265-.6886,1.8001-1.1783,2.8457-1.4314l9.9666-2.4125c1.0708-.2592,1.9382-1.0418,2.3058-2.0803l5.549-15.6756-1.5319-43.6596-18.1915-4.3404-9.9574,10.2128s-1.766,55.0638-.682,58.2345ZM98.4973,534.949h-10.8233l-8.1064,21.1915-13.7234,3.3191-6.1915,4.9787,74.4882.2134c7.4526-.7832,19.5478-9.3078,22.4043-17.213,2.7447-7.5957,3.8941-14.6845,3.5111-16.2802s-4.2771-2.9964-4.2771-2.9964v-3.5745h2.1383c2.6199-.0836,2.6869-4.8737,0-4.7553h-13.8192s-45.6011,15.1166-45.6011,15.1166ZM129.1676,478.2469l5.9959,4.3136h23.9149l1.955-1.4732v-7.2389l-11.9976,2.7283-19.8682,1.6702ZM185.2911,482.9597v-14.1751h-14.8795v4.3879h-5.461v7.8298l20.3404,1.9574ZM159.4932,559.3959c5.2659-6.3192,9.7447-19.149,9.6276-22.7766v-25.5319s-3.682,0-3.682,0c0,0,.3085,27.8656-1.234,32.7132-1.4296,4.4927-6.5166,12.0202-9.1116,15.2272-.5099.6301-.3344,1.4383.3888,1.8043l1.2223.6186c1.1958.8559,2.7889-2.0548,2.7889-2.0548ZM134.7273,380.5022v-12.9662h-11.6931v12.9662h11.6931ZM149.0251,377.481v-22.4894h-31.464v7.5589h26.8923v14.9304h4.5717ZM81.2592,381.098h21.4043v-13.8298h-8.4255l-12.7234,12.7234-.2553,1.1064ZM90.2686,363.0129h7.8203v-10.1277l-2.9188-6.1277h5.6422v16.2553h3.4894v-19.3191h-27.1051v10.1156h1.403l1.4833-1.4833,1.1018,1.1018,9.0839,9.5851ZM66.2592,380.2895v-7.1698h-7.6401v7.1698h7.6401ZM61.1622,359.8639l11.1248-11.1248h-11.1301v-46.322h-1.4509v6.2979h-1.0869v44.6383h-1.3812v6.4255l3.9243.0851ZM99.7485,291.0554l-11.2979-11.617-17.9362,4.2128,1.7725,8.1064,27.4615-.7021ZM105.1741,281.0341l7.0851-1.0213-1.7872-6.5745-5.7447,1.5957.4468,6ZM112.2592,273.4384l5.234,7.5957,1.9787-9.8298-7.2128,2.234ZM125.1953,262.5022l7.4043-1.3617,2.7234-8.766-15.8511.3404,5.7234,9.7872ZM144.4294,257.9065l.0851-5.5319h-6.9267l-2.2648,7.4894,9.1064-1.9574ZM104.7273,253.0554v11.8298l16.6383-3.9149-4.5957-7.9149h-12.0426ZM86.7273,253.1746l7.9149,14.5191,7.8298-3.4043v-11.1149h-15.7447ZM65.1953,263.098l3.1489,10.9787,24-6.383-8.4255-14.5191h-13.0213l-5.7021,9.9234ZM62.4719,253.1746l2.2979,7.2596,4.4255-7.8043-6.7234.5447ZM247.867,486.8852c-5.8419-6.1277-5.7993-15.4384-5.7993-15.4384l-24.8085-.2637-.2553,17.4894,30.3404.2128.5227-2ZM179.5996,423.0129h2.8936v-14.2553h-2.8936v14.2553ZM185.4719,413.4173h3.5745v2.2021h3.4043v-3.33h-2.8085v-11.8298h4.0532v-8.8298h-8.2234v21.7874ZM195.4719,403.6247h13.4362v-7.8778h-8.9362v-4.7553h-4.4681l-.0319,12.6331ZM211.8443,397.481l6-6h-6v6ZM222.5358,397.3081v2.8218h15.8936v-3.5849h2.5747l-5.1598-5.1598h-15.7979l-6.0957,6.0957,8.5851-.1728ZM237.9507,391.3852l3.734,3.734v-3.734h-3.734ZM220.9081,418.1937l1.5094,3.4898h14.1927l.8658-4.043-16.568.5532ZM148.1995,296.1463v-3.5745h-13.4722v3.5745h13.4722ZM121.6782,292.0612v6.9521h11.1064v-6.9521h-11.1064ZM99.9548,246.3803v-60.1277h-45.7287v34.8511l1.8138,3.0638h4.9309l-2.3516,22.2128h41.3357ZM99.9548,184.2101l1.6596-3.1915-5.75-5.1064-4.3351-4.9787v-14.8085h-3.4468v6.5106h-5.234v21.5745h17.1064ZM102.3803,179.4867c.2766-2.2553,6.1915-5.5106,8.0425-5.6782.2341-3.6409-4.1915-3.6409-5.5106-6.2153l-.1064-20.4043h-10.9628v21.684c0,.8328.3121,1.6354.8746,2.2494l7.6627,8.3645ZM107.7154,187.9761v-3.766h12.8564l14.383,11.8511,4.4681,6.4468h3v-20.2979h-6.8936v-3.8936h-24.766c-1.766,0-5.8085,3.1489-5.8085,5.8085v3.8511h2.7606ZM137.7207,202.9335l-2.766-5h-15.8298v5.5745h17.4468l1.1489-.5745ZM108.5931,195.0399h-3.1915v13.0213h3.1915v-13.0213ZM105.4016,224.6569h5.4255v-12.9574h-5.4255v12.9574ZM105.4016,237.6782h5.4255v-9.7021h-5.4255v9.7021ZM104.8059,118.6569h7.2394v-14.5532h-9.9078v5.2766h2.6684v9.2766ZM94.2527,116.8697h4.9362c1.0213-7.7447-1.5319-9.4468-1.5319-9.4468,0,0-3.4043,4.2128-3.4043,9.4468ZM92.233,154.3167l-.0627-39.1066c.6356-3.0638,4.21-7.6596,4.21-8.6383s-1.1915-1.1489-2.1277-1.2766-9.0638,0-9.0638,0v3.3617h4.2128v41.4894l2.8314,4.1704ZM112.4654,173.3378h22.9787v-2.4681h8.8511v-22.2128h-2.6383v16.5106h-35.1489c0,5.4681,5.9574,2.4468,5.9574,8.1702ZM58.6356,163.3165v-11.5957h27.9574v-12.2766h-30.766v23.8723h2.8085ZM35.4867,238.3378h11.0013v-6.1277c-.3854-1.7902-3.1257-4.9703-4.2353-8.4681-1.5279-4.8164-1.4611-9.9149-1.4611-9.9149h4.3122v-2.2979h-4.2527v-21.9362h3.9973v-2.9362h-3.8298v-18.1064h4.0851v-5.766h-3.8298v-22.8511h4.2128v-1.5319h-4.3404v-23.234h4.1277s.4255-8.8298-.7842-10.4814-8.2743-1.0274-8.2743-1.0274l-.7287,134.679ZM48.9536,272.6358v-7.7506c0-6.973-2.1052-12.2553-12.5732-12.2553v13.8781l12.5732,6.1278ZM36.3803,282.9335l9.5106,10.5957v-14.0909l-9.5106-4.3559v7.8511ZM35.1037,332.0399l-.4255,4.9362-1.3617,16.3772c1.6596,2.3994,2.0107,10.5377,0,12.8143v14.1219h15.0638v-9.3982l-3.3191-2.3407v-72.9787l-9.7079-9.9738-.2496,46.4419ZM36.2154,569.8585s2.0851,6.5537,4.6383,9.3835c1.5319,2.5957,7.0799,12.5252,8.9362,19.2766.312,1.1347,11.2581,23.4134,15.4242,27.0851,1.5274,2.2833,8.1503,31.383,10.7886,33.6809,4.1597,3.6229,4.0638,28.6596,6.4681,33.2766,0,5.1915,3.393,20.1182,1.7021,26.4681-.1817.6825.7872,77.7447.7872,77.7447,0,0-.2898,49.7182,1.5319,51.383l.1277,7.3725h4.7606c2.0005-.1278,2.8379-1.7904,2.8324-3.795l-.9601-153.0136c-1.059-9.7665-11.6631-55.6218-16.0851-66.8936-4.3404-11.0638-16.5957-40.2553-20.8085-46.7234l2.1702-1.7872-5.9555-13.458h-16.3583ZM34.6995,385.5186v80.4468l9.2927.0695c4.7764,0,7.9041-8.8887.3669-8.8887l-.3631-49.4757,5.4535-3.386-1.0692-18.766h-13.6809ZM44.9973,485.0186h3.7021v-6.8298c0-2.4574-4.1436-4.3404-6.625-4.3404h-7.375v69.0319l2.1968,24.8936h6.5319v-1.5319l7.5221-.0521-2.2508-5.0862v-37.0213h-3.7021v-39.0638ZM101.6144,97.4973l-9.4441-8.1702v-2.75h-43.3591v-3.3191h-6.8085v-34.7819h-4.617v49.0213h64.2287ZM135.0419,96.7347c.617-.0155.7795-.8598.2124-1.1033l-12.209-6.049-1.8511-2.4894-26.9415-.516v1.8989l10.367,9.0213,30.4222-.7626ZM122.7899,86.9016l15,7.0851.383-6.5532-3.2332-2.6623c-2.3626,2.8325-4.8945,1.8751-12.1498,2.1304ZM139.4814,86.2617v-30.408l.266-11.9947,2.7181,2.383v-4.8564h-8.633v2.6383h3.9149v35.7304h-4.5622l6.2962,6.5074ZM173.2889,95.2304l4.506-4.506-1.3454-1.3454h-6.7234v2.6583l3.5628,3.1931ZM180.6197,93.2846l-1.4468,2.6383v1.5745h8.8511l-7.4043-4.2128ZM190.4069,86.2617l-3.8298,5.2356,2.7234,3.8936,4.3723.3617v1.7447h5.8799v-11.2356h-9.1458ZM216.6197,89.379v3.9056h2.8085v-3.9056h-2.8085ZM216.6197,97.4973h2.8085v-1.4043h-2.8085v1.4043ZM348.9176,98.0293v-4.7234h4.9787l-1.7429-33.4489-.7464,31.0872h-3.6915v7.0851h1.2021ZM350.8059,95.0931v2.9362l2.3245-2.9362h-2.3245ZM351.9681,154.3697h1.9282v-24.734h-1.8511l-.0771,24.734ZM351.9681,122.3271h1.9282v-14.7128h-5.0213l3.0931,14.7128ZM149.8537,148.6569v21.5851h10.3404v3.5745h5.4468v-2.8085h5.8723v2.8085h6.0426v-25.1596h-6.4681v2.1277h-15.4681v-2.1277h-5.766ZM179.1729,148.6569v16.617h7.1489v-16.617h-7.1489ZM201.0452,165.2739h6.1277l1.9574-7.2447v-9.3723h-8.0851v16.617ZM178.6622,174.3271h28.1702v-7.8298h-28.1702v7.8298ZM210.8324,161.6463l4.3404,3.234,3.234-12.2553-2.7234-3.9681h-4.8511v12.9894ZM218.7473,148.6569l2.1489,2.8617,24.6383-.734v-2.1277h-26.7872ZM219.1729,167.1782v6.6383h4.6809v-2.383h8.2872v1.7872h4.4362v1.1064h6.3191v-7.1489h-23.7234ZM219.1729,187.4016v16.2872h21.7872v-16.2872h-21.7872ZM271.641,173.6463h4.2553l4.2553-6.4681v-11.234l-3.5745-4.766v-2.5213h-4.9362v24.9894ZM255.641,148.6569v10.6596h-11.0638v15.0106h13.7872v-.6809l9.5319-.4255v1.1064h2.0426v-25.6702h-14.2979ZM244.5771,181.391h7.0957v-2.1277h-7.0957v2.1277ZM231.0346,179.2633v1.617h9.9255v-1.617h-9.9255ZM214.6197,180.3271h-35.4468v5.0638h35.4468v-5.0638ZM147.8963,185.391h29.6596v-6.1277h-29.6596v6.1277ZM147.8963,203.7739h6.2447v-5.9574h2.6915v5.7021h3.4043v-5.5319h10.0426v6.383h2.6064v-6.383h2.3298v6.0426h2.3404v-16.0319h-29.6596v15.7766ZM178.6622,187.4016v15.8617h7.6596v-3.1489h4.383v3.1489h4.6809v-3.234h10.6702v3.6596h8.5638v-16.2872h-35.9574ZM219.1729,211.6037h15.5319v-5.4894h-15.5319v5.4894ZM199.6835,206.1144v3.9574h5.6596v10.9787h-6.9787v24.6277h18.1702v-39.5638h-16.8511ZM191.8963,206.1144v2.5532h5v-2.5532h-5ZM186.3218,206.1144v2.0426h4.051v-2.0426h-4.051ZM171.9814,205.9867v4.3404l10.766.1277v-4.3404l-10.766-.1277ZM157.7686,206.1144v5.1064h11.4043v-5.1064h-11.4043ZM252.875,185.5186h18.766v-6.2553h-18.766v6.2553ZM273.1303,178.7101v24.9787s5.8723.9787,5.8723-2.2553v-17.9574c0-3.4894-5.8723-4.766-5.8723-4.766ZM266.1144,199.8165v4.0115h4.4415v-3.4157l-4.4415-.5957ZM251.6729,198.7101h-6.1383v5.1179h6.1383v-5.1179ZM257.5559,253.4335v1.1064h-14.6596v.5106h-6.7021v5.1064h-3.9149v4.0851h4.5106v-1.5319h25.4468v-2.8085h-1.7021v-6.4681h-2.9787ZM228.0452,253.7952l-2.234,2.234h-5.1915v1.7447h6.2979l1.3617-1.3617h5.8723v-2.617h-6.1064ZM221.2154,260.3271l-4.3404,4.3404h13.9574v-4.766l-9.617.4255ZM209.1303,266.1144l-3.234,4.8511h24.9362v-4.8511h-21.7021ZM232.2793,266.1144v4.4255l10.617-4.4255v-2.2979h-4.4894v2.2979h-6.1277ZM244.7048,266.1144h17.1064v-2.2979h-17.1064v2.2979ZM265.1303,275.2208c-.2553-.0851-6.8085-4.2553-6.8085-4.2553l-13.617.3404v5.6643h16.1786l4.2469-1.7494ZM230.4069,278.8803l3.7447,1.5805,8.7447-2.6869v-5.591s-12.4894,4.1998-12.4894,6.6974ZM234.4069,292.6676h-2.6383v13.5366h-8.5106v1.9787h10.8936l.2553-15.5153ZM255.4707,294.7527v10.8936h-6.0767v2.5366h11.4893c.3063,0,0-4.8345,0-4.8345h4.2469v-8.5957h-9.6596ZM226.3218,311.3484v5.1064l-11.6596,16.6643v4.3404l6.8085,4.1017h13.9574l13.9659-3.3191,11.4893-.0851v-15.9149h4.2469v-10.1277l-4.2469-1.1915-34.5616.4255ZM262.0665,338.4973h2.4681v-7.0638h-2.4681v7.0638ZM217.9388,312.1144v3.766h6.0638v-3.766h-6.0638ZM198.2239,354.2846l10.6842-12.7234v-2.0851h-10.6842v14.8085ZM209.3218,344.4973l-10.1277,11.6004v1.6921h3.1489v-4.3564h18.6277v4.2304h3.6702v-10.7836l-1.383-2.0426-13.9362-.3404ZM263.3005,353.9442v3.8457h1.234v-17.2926h-15.1405l-10.5404,2.8936h-12.2553v10.0426l36.7021.5106ZM175.4495,298.8803v7.3191h2.2128l2.766-2.766v-2.3404l-2.5745-2.5745-2.4043.3617ZM185.7473,314.9595l3.0774,3.0774h3.2502v-3.557l-1.7021,1.5919h-1.7957s.1915-1.7021,0-2.0426,1.7957-.6809,1.7957-.6809v-2.9787h-4.6255v4.5898ZM192.0749,332.6676h3.1192v-7.1489h-2.7234l-.3958,7.1489ZM192.0749,342.9654h3.1192v-7.8298h-3.1192v7.8298ZM199.5771,359.3484h-2.4255l-3.008,3.008v18.7793l2.2859-2.2859v-17.2284h3.1477v-2.2729ZM199.1942,378.6676l-3.234,3.8298h3.617l.2553-3.8298h-.6383ZM189.5836,382.9442l2.4913-5.1277v-5.6809l-1.5616-.6422h-15.6119v5.5783h11.5268v5.8723h3.1554ZM175.8708,365.4548c-.0698.0698,0,4.0599,0,4.0599h16.2042v-4.0599s-16.1344-.0698-16.2042,0ZM192.0749,358.7132l-4.5616.7101v4.3574h4.5616v-5.0675ZM184.2367,257.7739v2.1277h23.2128v-6.1064h-9.8085c0,3.5319-6.6596,3.9787-13.4043,3.9787ZM65.2141,567.7739l-7.2965,1.3617,2.4944,6.5648,5.4591-2.3702,23.7377,50.1735,3.2876,9.0788-3.8298,2.2979v5.6518l3.0844-1.5491-.6311-3.7257,21.998-3.9515,1.1501,3.8624,3.1221-3.1869.766-10.7606,1.4043-2.4255,2.8883-2.5532h1.1968l3.3191-1.6596v-3.4468l2.0426-3.7021,3.5266-2.867h3.2394l6.4628,5.0372.9255-2.2979-.9255-12.766,8.8564-19.2766v-9.4468l-2.9043-1.3228-8.5905,5.3881-74.7832-2.1079ZM176.5931,514.5825h-5.1064l-.7181,26.5532,3.4468,7.77,8.1702-8.6637,10.2128-1.6596,1.6596-2.9894v-6.0745l1.7872-.1277v3.1915l1.6596,1.0213h4.0851l3.8298-1.8597,1.0213-3.1191-4.3404-.8936v-1.7872h4.3404v-2.0426l-1.7872-4.0713-4.3404-.6521s.1277-9.9477.766-9.6972,10.7234.3781,11.7447.3781,2.5532,8.5532,2.5532,8.5532v4.5957h-5.1064l.2553,3.0638,4.8511.383,6.1277-1.4043,2.8085-1.7872,2.0426-3.433.766-18.2691,5.1136-2.1702v6l12.8864-.2553-.6383-12.383-68.0904,21.8298ZM210.7261,529.5186v3.3191l6.2778,3.51h7.1265l3.5745-1.5951,3.1915-3.9574v-4.0851l-1.5319-1.5319-18.6383,4.3404ZM230.8963,521.9867l4.4681,1.0213,6.383-4.9787,3.5745-5.7447-1.4055-1.9149h-8.6796l-3.3191,2.5532-1.0213,9.0638ZM233.9601,532.4548v7.5319l4.1489,8.1702,3.8936,5.8723,2.0426,6.2553,1.2766,5.8723,2.5532,6.766,3.9574.766-1.0213-3.7021-2.4255-9.0638-2.0426-7.8511v-2.4397l-1.0213-4.7731-2.4255-2.6809-1.5319-2.6809-.766-3.0638-.6383-3.1915.1277-1.7872h-6.1277ZM227.109,541.2208v29.7872l14.766,7.2766,1.0213-2.2979,2.4255-3.8298-1.4043-7.1489-2.0426-6.1277-2.1702-5.8085-4.4681-6.9574-2.5532-5.3617-.6383-7.6596-4.9362,8.1277ZM217.9176,539.008l-2.7234-1.3138-3.5659-1.6472-3.583-.4539h-2.7234s-4.2553.0107-4.9362,0-4.2553,2.1011-4.2553,2.1011l-2.383,4.5469-9.9096-1.0203.7181,35.0638.6809,2.8936,1.8723,10.8936,1.4681-1.5319,2.9574-3.9149,2.8936-3.7447,2.7234-2.5957,3.7447-2.5106,5.1064-2.8936,5.617-1.1915,5.4468-.8511h7.4894v-28.5967l-1.0213-3.2331h-5.617ZM173.9176,551.1782l-10.3404,10.43,5.546,7.4423v15.4468l2.4966,9.1915,1.4043,16.9787,1.5585,8.5532,1.5053,8.9362v9.1915l3.7021,27.1915v12.383l.766,3.8298,3.2819,13.2766,1.3138,4.5957,1.0213,5.7447-1.2766,3.3936-.383,12.8191,2.0426,3.9574-.1277,2.6809,1.0213,6.8936h3.5745l.7414-2.0426,3.0884-3.8617,1.5319-10.1809,5.3617-19.6596,1.2274-11.7447-5.8231-6.766-6.1277-13.7872-10.4681-85.1489h2.1702v-14.1702l-8.8085-15.5745ZM175.3218,549.9016l7.4043,13.5319v-21.1925l-7.4043,7.6606ZM163.5771,558.5825l9.5745-9.0638-4.0285-5.234-5.546,14.2979ZM160.128,563.4335l-2.2636,3.1666-3.0632,9.5994-3.3091,7.3175,3.3091,4.1718,4.2707,2.383,8.2074-8.5106v-11.1064l-5.3171-7.6224-1.8341.6011ZM167.2793,583.9867l-6.1277,6.0851v5.1489h-3.1915v-3.4202l-7.6319-5.0208-1.1339,3.2921,2.2977,2.6809-.5957,2.1277-3.234-1.7872-.1718,7.0639,4.0016-.6809-.5106,2.383-4.1702-.766-.3404,4.2553,3.9401,16.6222,7.1237,8.8246,5.0213.5106,9.617-15.0638-1.3617-11.3191-7.234,4,.8511-4.3564,5.7872-2.0536-2.9362-18.5262ZM166.5665,631.3059l2.6809,10.2447,5.1489-.5106v-13.1489l-2-9.7287-5.8298,13.1436ZM155.375,646.4442l2.8085-4.5532.1702-8.6809-7.7447-7.8298,4.766,21.0638ZM157.6516,655.0399l1.5319,4.3404,13.7234,4.4043,1.1489-6.8298-7.0213-4.0851-9.383,2.1702ZM249.5027,587.5718l1.7872,3.3989,1.9149,5.0294,2.0426,6.7632,1.1011,14.0426,1.1968,12,2.0426,11.7447s1.4043,10.9787,1.5319,11.617.5106,8.6809.5106,8.6809c0,0-2.0426,10.5957-2.1702,11.1064s-4.8511,9.9787-4.8511,9.9787l-5.8723,5.3191,6.6383.9149,4.5957,3.3191,3.5745-7.5319,2.5532-10.7234-.6383-9.4468-.5106-10.9149,2.4255-8.4894-2.5532-2.8298-2.9362-1-1.2766-2.8085,3.1915-2.8085v-8.8085h-4.9787l-1.6596-4.0851,1.7872-2.8085,3.3191-2.9362-4.2128-13.0213-3.9574-12.3032v-11.0585l-3.0638-2.9362-5.7128,4.4681,4.1809,6.1277ZM234.5239,694.2952l-6.4681.766-11.0638-.766-7.3191-2.8085-4.766-3.234-.7899,10.383,4.1942,1.7021s7.8298-.5106,9.0213-.7872,9.5319-2.1064,9.5319-2.1064h9.0213l12.0851-2.2128-2.6489-5.7872-10.7979,4.8511ZM188.5771,603.6569l7.4787,61.6089,3.234,8.8864,3.6848,4.9089,5.3364,5.2766s4.766,2.2553,5.2766,2.9149,6.9787,2.5319,6.9787,2.5319h6.5426l9.1064-.6809,5.2872-2.9217,7.3191-6.0149,4.2553-6.0149,2.383-6.4741.8883-5.4681-.8883-9.3404-1.5319-12.3376-1.5319-10.7901-1.5319-11.6886-1.0213-7.588-1.0213-8.6809-1.7021-8.1702-6.6383-9.6277-8.6809-5.7021-9.3378-2.883h-7.1729l-6.4681,1.5745-6.8085,3.7021-6.1277,5.2766-3.9149,6.2979-2.383,6.9787-1.0106,4.4255ZM55.4176,276.6356h6.2553v-5.4313l-4.8511-3.5106-1.4043.5802v8.3617ZM55.4176,282.3803h7.7872v-2.6809h-7.7872v2.6809Z"/>
    </clipPath>
  </defs>
  <g id="roadsAndPaths">
    <rect id="Road" class="cls-8" x=".125" y=".125" width="367.4791" height="1101.0142"/>
    <g id="Unwalkable" class="cls-9">
      <path class="cls-12" d="M349.4973,924.8165s.3932,14.729.5176,24.9156c.0162,1.3303-.7501,2.5399-1.9565,3.1007l-1.5588.7245c-.7075.3288-1.5314.2888-2.2036-.1071l-2.1047-1.2394c-.4056-.2389-.6609-.6687-.6765-1.1392l-.2075-6.2605c-.015-.4531.0575-.9049.2135-1.3305l.7149-1.9502c.4834-1.3189.4606-2.7702-.064-4.0732l-.5289-1.3137c-.1947-.4836-.3026-.9978-.3188-1.5188l-.2522-8.1272c.0164-.6974,1.3617-1.7234,1.9787-2.1064,1.7021-1.1915,5.8085-.8511,6.4468.4255Z"/>
      <path class="cls-12" d="M334.0186,981.9229c0-.7021.8883-1.4574,1.5904-1.4574h11.4462c1.4146,0,2.5459,1.1706,2.5132,2.5848-.369,15.9322.1266,30.4268.305,48.628l-6.614-.4587c-2.5204-.1538-4.9684-.8966-7.1556-2.1583-1.6469-.95-2.1202-1.8552-2.0851-2.2766.0426-.5106,4.5106-.617,4.5106-.617l-.0839-43.1389-2.8736.0006c-.7403,0-1.5532-.3661-1.5532-1.1064Z"/>
      <path class="cls-12" d="M352.8267,99.6713c1.5728.0068,3.4951-1.6064,3.4951-3.1792l-1.0213-71.5745c-.0692-2.5054-.5212-3.6224-2.8777-3.6224l-191.3116,1.5679c-1.6937,8.7141-6.9703,14.3737-13.2256,17.863-.9605,1.5722.8936,4.6436,2.3204,4.883,1.0399.1745,11.5626-13.0213,11.5626-13.0213l3.0638,3.0638-11.2766,12.8085h9.4787v6.8936h3.7979v15.6915h-1.7447v26.8351h-20.2128l1.4521,1.4521h54.3351v-6.0745h10.3404v-5.7234h3.7447v10.2128h-3.7447v2.0426h13.0213v-12.3404h3.4043v11.6596h11.4043v-2.2979h-4.5957v-40h6.7234v-3.7447h7.8298v-7.234h3.3191v-3.7447h20v24.1702h1.9574v-30.0426h-4.1702v2.8936h-30.8085v-5.3617l-72.9362.2553c-3.1489.0851-3.3191-5.7872-1.1064-5.5319h29.9835c.5884,0,1.1586.2044,1.6129.5784l.9832.8092c.464.3819,1.0476.5883,1.6485.5832l5.7938-.0495c.4849-.0041.9576-.1532,1.3572-.4279l1.4385-.989c.4374-.3007.9561-.4607,1.4869-.4586l64.1636.2521c2.0788.0657,5.4468,3.5319,5.4468,7.6596h1.8298v-5.8723h71.6596l-.4255,42.1064v17.9574h-3.8723v6.8936h-38.6809v-6.766h-1.6596v6.3404c0,1.5319,1.8298,2.5532,3.8994,2.407l41.1162.1765Z"/>
      <path class="cls-12" d="M195.5346.125c.2021,1.4096,0,6.8777,4.0851,7.133l150.2128.2128c1.8491.0003,5.2766-3.6596,5.2766-7.3457h-159.5745Z"/>
      <path class="cls-12" d="M185.9176.125c-.8511,1.4309-1.4468,5.8564-17.2778,6.3986,0,0-128.4895.3156-132.0181.3156S31.742.125,31.742.125h154.1755Z"/>
      <path class="cls-12" d="M.125,10.2952C5.0824,9.5293,8.4016,4.9335,8.6356.125H.125v10.1702Z"/>
      <path class="cls-12" d="M363.1463,763.545v315.3672c-.0745,2.4043,4.4043,5.0851,4.4043,5.0851l.0532-325.8085s-4.4642,1.3987-4.4575,5.3562Z"/>
      <path class="cls-12" d="M367.6038,411.1037s-5.2341,21.9787-5.7128,32.011l.5213,301.7975c-.0152,4.9786,5.1383,5.7234,5.1383,5.7234l.0532-339.5319Z"/>
      <path class="cls-12" d="M367.6045,5.8538c-1.1976-.766-2.1259-3.573-2.1124-5.7288h2.1124v5.7288Z"/>
      <path class="cls-12" d="M31.6055,99.2374l.1787-67.6897c.2663-3.8269,3.7983-6.295,7.0323-6.3801l111.8107-1.276c2.2472.0145,3.2478,5.1005.184,8.3558-2.9089,3.0907-10.3712,3.2766-12.6809,3.2766v-3.766H45.6622v6.3085h-3.6596v45.1915h6.8085v3.3191s82.0681,0,82.0681,0c.6568,0,1.3066-.1349,1.9091-.3964l1.4979-.6501c.8988-.6292,1.1581-1.8464.5936-2.7872l-2.2513-1.8616c-.3544-.4442-.0382-1.1011.5301-1.1011l4.5887-.0547-.3404-35.7021h-3.5745v-2.6383h8.633v5.1915l-2.984-2.984v12.2606l2.5559,2.5559v4.1676l-2.8258,2.8258-.1971,27.2259c-.0272,3.7616-3.047,6.8161-6.8082,6.8756l-100.6006-.2671Z"/>
      <path class="cls-12" d="M30.6888,238.9973l.5774-135.548,11.6964.495c1.1457.076,2.0557.9929,2.1231,2.1391l.1882,9.0841h-4.1277v23.234h4.3404v1.5319h-4.2128v22.8511h3.8298v5.8723h-4.0851v18h3.8298v2.9362h-3.7021v21.4468h3.4468v2.4255h-3.8298s.1944,7.4678,1.8298,10.8511c.8082,1.6721,2.1535,4.1944,3.032,5.8204.567,1.0495.862,2.22.8629,3.4129l-.0013,6.0859c-.1943,1.5084-2.3791,4.3929-3.8936,4.5319h-9.8298c-1.5638-.0638-2.0745-3.6383-2.0745-5.1702Z"/>
      <path class="cls-12" d="M29.456,467.8536v-209.7782c.0309-2.8375,3.0192-5.0694,5.8512-4.8908l6.6264-.01c2.4635.5468,6.6808,4.4823,7.0212,11.2908l-.0851,29.0638h-4.2553l-.2553,75.0213c3.3191.2553,5.1862,3.3191,5.1862,6.0107l-.5904,27.7766c0,1.7826-1.1064,5.2766-5.3617,5.3617l.766,49.4468c4.0851.1702,4.4342,2.593,4,4.8511-.4255,2.2128-2.0426,5.5319-5.0213,5.617l-13.8818.2393Z"/>
      <path class="cls-12" d="M82.3531,855.5294c-.1466-54.5997-.6514-117.2457-2.0367-158.8725-2.1348-15.7442-12.0425-53.5319-14.4255-58.9787-2.4409-5.5792-24.4636-50.2988-28.5957-57.7021-6.1277-10.9787-9.4468-26.6808-9.4468-37.7872,0-7.3323,1.1277-68.3405,1.1277-68.3405h14.2484c2.4645.1715,4.9195,1.9332,5.475,4.3404v6.8298h-3.7021v39.0638h3.7021v37.0213l9.8298,22.2128-2.1702,1.7872c4.2128,6.4681,16.4681,35.6596,20.8085,46.7234,4.422,11.2718,15.0261,57.1272,16.0851,66.8936l.9601,153.0136c.0055,2.0046-.8319,3.6672-2.8324,3.795h-9.0272Z"/>
      <path class="cls-12" d="M197.3168,1013.3953c-32.5436-22.8593-65.6355-41.2972-109.4047-40.9538l-5.6807-4.5718s.1359-47.7421,0-106.6808h11.8469c2.2498.2625,3.9544,2.1552,3.9808,4.4201l-.2107,73.4522c.8881,12.3981,4.8511,17.1064,15.7021,20.8085l56.8085,23.3617,31.0751,20.9218c1.5246,1.0624,1.8823,3.1683.7941,4.6746l-4.9115,4.5676Z"/>
      <path class="cls-12" d="M349.3149,684.748c-.1379,27.3088-.334,105.2812-.334,105.2812-.0474,1.7022-8.9946,2.4469-11.7338,1.7873,0,0-7.6602-2.0683-9.3774-2.5319-1.7172-.4636-36.702,0-36.702,0l-12.0638,12.0638v4.5957h-4.7234v84.2553h4.4042c-.1444,5.0352.6057,8.8028,4.3405,9.117l43.2766-.3192c4.5919-.2264,5.2737-2.3575,8.0425-2.766l12.6027-.0141c1.2405.078,2.2163,1.084,2.2496,2.3265.0698,2.6059.019,15.0634-.6395,18.4429-.3901,2.0026-5.3419,1.4779-7.0212.3191-2.15-1.4836-4.9897-4.7491-6.2012-7.1111-.89-1.7353-1.5231-4.9842-2.0861-5.0217h-22.5319v13.16h20.7446l.9362-3.0272,3.4043,4.9362v33.7021h-.9362v-3.6596h-22.4681v3.9293c-.3008.9379-3.1119,1.0525-3.5745.1829v-3.6015l-5.1285.0797c-.3799.0059-.7249.2228-.8948.5627l-.9718,1.9437c-.6049,1.2098-.9198,2.5439-.9198,3.8965v6.8791h7.7448v-3.6596h2.9786v3.6596h15.8298v-2.7234h1.7872v2.7234h11.7448l-.0786-2.1098c0-1.6736.0488-2.1934,1.1479-2.2488l5.6647.0182c1.4468.0426,2.0463.7234,2,2.3404,0,0,.468,10.5106-1.5745,10.5106h-74.4259c-3.8495.1771-9.3375,5.6832-9.5316,9.5319v42.2979c0,2.8647,4.3573,13.0347,5.9672,15.4043,2.9801,5.0913,9.541,11.2632,17.2244,12.9575,5.1282,1.1308,11.9554-.8593,14.14-2.3531,5.4575-3.732,5.9026-12.7958,5.9026-12.7958v-12.0426h-15.1171v-8.6702l-4.4681-4.3404v-9.7021h4.4681v-2.0426h-3.7021v-5.4894l-.9574-.9574v-8.3617h4.4043v-6.6383h-2.8085v-1.7872h39.1915v32.9362l-2.0426,6.766v6.8936h-10.0851v5.3617h-4.0851v24.6383h13.5319v-21.7021h-3.9574v-2.6809h4.9787s9.6874,4.5918,10.9043,4.8191c2.9043.5426,11.5013,1.8185,11.5013,1.8185.1367,13.9444.3978,27.5007.7034,39.2546-.383,2.234-2.3733,4.6398-4.843,4.4695-47.1915-3.2553-70.9362-13.5532-94.8298-28.7813-15.3858-10.3817-31.0535-21.2965-45.4096-31.8411-1.2529-.9203-.8444-4.0424.0426-5.3191l2.6858-3.0858c1.2165-1.4101,3.3128-1.6476,4.814-.5455l13.5215,9.5036c3.7993,1.9293,11.8415,1.741,14.8119-1.3142l10.3796-15.7071c5.9787-8.9149,9.0426-20.0638,8.1702-39.4255h3.4468v-62.4255h-4.0851c-.2553-7.8489,12.6816-109.9408,12.6816-109.9408.5509-4.2392,4.1321-7.43,8.4065-7.49l57.5502.6223,2.2766-1.8298h6l.0213-99.9149,3.6846,1.99Z"/>
      <path class="cls-12" d="M343.8948,528.4782c-1.2376-.3215-2.2326-1.6977-2.2326-2.9763v-7.7528c.0404-1.0745.8635-1.9564,1.9326-2.0708h2.0021c1.3873,0,2.5148,1.1194,2.5247,2.5067l1.1328,158.1371h-3.6774v-145.6718c0-1.014-.6821-1.9122-1.6823-2.172Z"/>
      <path class="cls-12" d="M348.9766,799.0293c-10.196-.5647-24.4558-5.1641-30.609-4.8157-2.7908.1581-4.0919,3.5272-2.135,5.5232l15.7861,16.7074-.2553,51.5745c.0426,4.9787,3.3502,6.2553,6.3288,6.2553l11.0542.1489c-.1308-23.3859-.1763-49.4624-.1698-75.3936Z"/>
      <path class="cls-12" d="M346.8519,890.7846c1.0966-.0665,1.9667-.949,2.0177-2.0465v-6.7301c0-1.2338-1.0002-2.234-2.234-2.234h-3.371c-1.3326.2684-4.4446,2.7796-4.8233,4.0851l-.7572,4.7395c-.1852,1.1464.7,2.186,1.8612,2.186h7.3066Z"/>
      <path class="cls-12" d="M284.4761,885.3591c0,.9143.482,2.7463,1.0219,3.4843,1.3893,1.899,3.9813,4.6731,5.2015,4.6144l35.4043.0046c1.6162-.0778,3.6933-1.7974,4.6809-3.2841l2.7837-4.8989c.4424-1.7143-.9239-4.8715-2.6941-4.8989h-42.7504c-1.8759,0-3.7767,3.1073-3.6477,4.9787Z"/>
      <path class="cls-12" d="M299.2527,819.5787l1.4092,50.4375c0,1.792-1.3962,3.2738-3.1851,3.3803l-8.9475-.0587v1.0851l37.0851,1.0851,1.652-53.843c.0455-1.4836-.5306-2.9187-1.5894-3.959l-10.9856-11.2007c-1.0544-1.036-2.7405-1.049-3.8108-.0293l-10.456,10.3029c-.7498.7388-1.1719,1.7474-1.1719,2.7999Z"/>
      <path class="cls-12" d="M295.7715,794.5677l11.9434-.0606c2.1435.3634,3.1111,2.8932,1.7572,4.5943l-14.2535,15.5096-.7866,49.9877c-.0864,1.9482-1.1901,3.7072-3.3603,3.998l-5.6489-.0013c-1.2447.0015-1.4894-3.7044-.5163-3.6522h2.5907c1.0319-.0522,1.0319-1.7788,1.0319-1.7788v-56.4649h-4.5957v-2.8085l8.0654-8.1139c.9863-.9922,2.3932-1.4432,3.7725-1.2094Z"/>
      <path class="cls-12" d="M280.8071,975.3579s-4.7616,1.1288-6.8629,4.448c-2.1013,3.3191-2.229,6.3456-2.229,6.3456l.4418,38.7182c.6438,2.1795,1.6596,6.6383,4.6596,10.4362,3,3.7979,8.3537,8.3304,8.3537,8.3304,1.7229,1.3217,4.109,1.3562,5.8694.0848,0,0,3.777-3.0215,3.8408-4.6811.0638-1.6596,0-9.5745,0-9.5745,0,0-9.2872.7021-11.4894-2.8085-2.2021-3.5106-.7373-14.0155-2.6027-15.2259s-1.7377-12.221-1.7377-12.221c0,0-3.5106-3.5426-4.6915-6s-.0319-10.6277,1.883-12.8936c1.0368-1.2268,5.2555-4.0562,5.2555-4.0562.3207-.4762-.1469-1.0874-.6904-.9024Z"/>
      <path class="cls-12" d="M281.3059,980.4229c.9574,0,.3624,10.7638.3624,10.7638-.4236,1.2608-1.0731,2.3706-1.9583,2.1936-1.2766-.2553-2.5571-2.7776-2.5532-5.8723.0031-2.4957,3.0638-7.0851,4.149-7.0851Z"/>
      <path class="cls-12" d="M350.492,197.2809c3.234,0,5.3617-1.2553,5.3617-3.4894l.6463-86.7499c0-1.3518-1.0718-2.4601-2.4229-2.5054l-36.0845-.2384c-1.0326.1427-2.0858,1.2916-2.0858,2.4512h-4.1489c.0319-1.3085-.9894-2.4539-1.883-2.453l-151.5.2722v-1.7129h-2.4681v2.9895h2.0426v36.383h-7.0213v-2.4255h-3.0957v-34.117h3.1915c-.0319-1.4043-.766-2.2979-1.5979-2.329l-6.8915-.0009c-.766.032-1.5682,1.5479-1.5638,2.3299h3.9415v34.1702h-4.4096s.3351,1.3586,1.0771,1.9399,3.4761.3579,3.4761.3579v6h-3.383v15.8936h-8.5532v-47.234h-21.0957v-13.9576l-27.234.7768v5.0638h4.0851v29.7872h-27.7447v-31.5745l17.1915.0851c.8511,0,.4224-4.1672-.2979-4.1385,0,0-17.8942-.1397-25.4255.181-1.8003.0767-3.0783,1.9399-2.7379,6.025l3.9293-.0426v102.4857h-4.3404v5.8723l4.766,9.1064-.1702,330.9787c1.0761,1.9216,4.953,7.1472,7.1489,6.9787l72.5106-.0423c7.4526-.7832,19.5478-9.3078,22.4043-17.213,2.7447-7.5957,3.8941-14.6845,3.5111-16.2802s-4.2771-2.9964-4.2771-2.9964v-3.5745h2.1383c2.6199-.0836,2.6869-4.8737,0-4.7553h-13.8192s0-24.3298,0-24.3298h11.8936v7.5319h9.4468s.3085,35.9184-1.234,40.766c-1.4296,4.4927-6.5166,12.0202-9.1116,15.2272-.5099.6301-.3344,1.4383.3888,1.8043l1.2223.6186c1.1958.8559,2.0218,3.9954,1.5962,5.403,0,0-7.6216,19.4795-10.0321,27.7561s7.1597,51.8822,9.6917,58.2439c2.1858,5.4921,1.3077,29.9212,1.2909,39.8509-.0044,2.5897,1.3386,4.992,3.547,6.3446l3.8467,1.588c1.5387.8309,1.5314,3.041-.0128,3.8617l-4.4844.3863c-1.2023.1036-2.3343.6102-3.2125,1.4378l-2.6558,2.2115h-3.1277l.5532-37.9787c.1086-2.6788-.138-5.3603-.7333-7.9743l-6.1656-31.3618-4.9309-33.7916c-.178-1.4582.033-2.932.6151-4.2807,2.3077-5.3468,8.9839-20.684,9.087-23.2193.1277-3.1383-.7331-5.1698-2.5532-5.1809s-6.956,2.023-10.5816,3.5558c-4.3599,1.8432-77.5992,1.6251-77.5992,1.6251-1.6489.0319-1.3936,5.9043.5638,6.3298l5.1064.3404,23.9149,54.1277-3.0638,1.5319,2.5532,7.7603,2.6695-.7816-1.3929-3.5745,22.383-4.4425,7.8298,21.5489.3404,8.0851-22.6968,3.33-.7856-3.2188-2.3048.1441,2.1607,9.7232,2.185-.6168-.6011-4.1702,23.1489-2.8936,4.5337,28.8936-22.938,2.8723-.0638-3.3777h-2.5798v10.3989l3.3457-.2553-.3191-4.2128,22.0851-1.0213.4699,4.2766h1.6365v17.6809h2.4894v5.2979h-1.4043v1.9149h-22.9787v51.2658c.0213,2.1598,4.5663,1.9679,4.7193,0v-46.5637h14.0414v45.165c0,1.2602,1.0216,2.2818,2.2818,2.2818h7.9149c.8409-.079,1.4836-1.4372,1.4836-2.2818l-.0173-2.6969h-10.1897l.0231-42.4681h34.445v46.8587h16.5106v-16.7097h52.5623v13.5957c-.0201,2.4622.9149,4.0851,4.5806,4.0851h94.1125c3.9043,0,7.1383-3.7128,7.1383-6.6064l-.2128-31.5745c-.0276-.7893-2.8723-2.5851-5.1383-2.617v-4.4681c1.4362.0319,5.0802-1.8225,5.1064-3.0638l-.0511-43.125c-.0683-2.0833-1.7643-3.7439-3.8486-3.7682l-18.5791-.0642-4.7446.2128c-1.2841.0967-3.4256,1.3617-3.7235,3.5745h-7.3678v-14.0426h-4.462l-2.5106-1.4468c-.7506-.247-1.9819.1523-2.7234.4255l-1.7553,1.3511c-.9324.5328-2.1009-.0937-2.1732-1.1652l-2.3906-48.0157h-3.5745l-1.1277-104.8085,48.383-.6375v71.3609h-41.3617v8.8085h41.3191v1.5638c6.1064.3404,10.7872-.8511,10.7234-6.6383h-4.0851v-70.9787h3.4043l-.1064-7.4894c-.3339-1.15-2.9727-3.3939-4.1702-3.4043l-57.8511-.1702c-2.7234-.1915-7.1489-2.617-7.1489-6.4043,0,0-.0645-7.2341,0-8.2341v-49.5106h-2.4681v21h-13.2128v-46.0213h12.8936v18.5622h3.4468v-23.0942l-1.5904-2.3617v4.4681h-13.0267l.2137-4.2287c0-.8892-.9063-1.491-1.7259-1.146l-2.5195,1.7742c-.7705.4011-.9551,1.4214-.374,2.0671l2.044,1.2143-9.7021,9.7021-1.3648-2.1083c-.5341-.5526-1.4701-.1997-1.5065.5679l.0629,3.3276h-39.2553v-6h3.8298v-1.0851h7.7234v.766h3.766v-5.4894h7.7234l.8936,2.5532,15,.0638.4468-3.9574v-5.9362h6.9574v-9.2553h-1.4681v-1.4681h-4.7234v-4.7872h3.766v-5.2979h-32.2979v4.2766h-9.7021v-4.8496h-13.4681v-5.0426h75.7021l.5106,1.4028h3.4468v-24.1915h-2.5884v19.8989h-38.7094v-4.0053h-3.8936v4.0053h-21.1277v-4.5798h-3.8936v-16.0851h3.6383v-4.0851h2.5532v-4.9149h19.2766v5.0426h3.9574v-4.7872h38.1988v4.4043h3.4821v-4.3404s13.4043,0,13.2128,0,0-3.766,0-3.766h-4.8511s-.383-29.1064,0-29.1064h4.3404v-3.1277h-6.5745v-4.9787h5.617v-11.9362h4.1489v12.8936h6.2553v36.383h-4.7234v3.766h12.8298l1.7553,1.7553h15.9894v-60.0957h-3.766v-15.5745l4.4681-4.4681v-21.8989h-37.1862c-3.9717,0-7.1915,3.2197-7.1915,7.1915v78.0711h-5.0479v-90.1296h44.0851v-44.5957h17.7872v-1.5319h22.1277l.1702-4.5106Z"/>
      <path class="cls-12" d="M331.8005,608.9495v57.9574h3.9574v5.4894l-8.9362,5.617-13.8832.3026c-1.1088.0242-2.1807-.3993-2.9736-1.1748l-2.3223-2.2712c-.4682-.5609-.0765-1.414.654-1.4244l19.9294-.028-2.0426-66.6383c1.0213-1.7872,8.2011-1.9446,9.5745-.5712v2.6138l-3.9574.1277Z"/>
      <path class="cls-12" d="M352.9973,203.2101s.6477,1.4195.617,2.1702v36.2979c-.0066.7134-1.1562,1.5807-1.7942,1.8997l-1.993.3556c-.0802,1.1297.0417,3.5595,1.1301,3.8723l2.3873-.814c1.3453-.5285,2.248-1.8058,2.2971-3.2504l.2919-39.7866-.7021-1.383c-.9711-.6798-2.145-.5437-2.234.6383Z"/>
      <path class="cls-12" d="M94.9335,649.0727l14.8936-2.8839-.2016-3.4041c.3838-.6717,1.3895-.5372,1.5834.2117l2.1926,8.0116c.5957,1.1915-1.2766,2.0426-1.617.8511l-1.5319-3.7128-14.7873,3.0991.7884,3.8612c-.2244,1.0098-1.6004,1.1627-2.041.2267l-2.6645-8.1125c-.2612-1.0337,1.3427-2.0341,1.943-1.1677l1.4422,3.0195Z"/>
      <path class="cls-12" d="M101.9554,679.94l15.1271-1.6341.3692-3.7189c.3838-.6717,1.3895-.5372,1.5834.2117l.9836,8.454c.1405.6619-1.5,1.0213-1.6915.2234l-.6383-3.2565-15.5354,1.7923.695,3.1238c.4468,1.0386-1.8557,1.464-2.2963.528l-1.2144-8.6663c-.2612-1.0337,1.883-1.5638,2.0745-.4149l.5431,3.3575Z"/>
      <path class="cls-12" d="M142.125,773.3484v4.9362l14.5532-.383c.737-.059.8926-4.2087.165-4.3404l-14.7182-.2128Z"/>
      <rect class="cls-12" x="107.2739" y="783.5931" width="4.5957" height="76.0851"/>
      <rect class="cls-12" x="125.1463" y="782.9548" width="2.2979" height="76.7234"/>
      <path class="cls-12" d="M186.4654,852.0186h2.1117v-63.0638h4.5266s1.2766-6-5.1064-6-6,6-6,6h4.7553l-.2872,63.0638Z"/>
      <path class="cls-12" d="M202.982,840.5718h2.1117v-51.617h4.5266s1.2766-6-5.1064-6-6,6-6,6h4.7553l-.2872,51.617Z"/>
      <path class="cls-12" d="M218.7101,827.9335h2.1117v-38.9787h4.5266s1.2766-6-5.1064-6-6,6-6,6h4.7553l-.2872,38.9787Z"/>
      <path class="cls-12" d="M181.9929,773.1463l44.8023.3191s-.0426,5.1064-4.5319,5.3092l-37.0851.0233c-3.9512,0-3.1852-5.6517-3.1852-5.6517Z"/>
      <path class="cls-12" d="M366.6046,21.2314s-2.8617,1.2332-2.9264,6.3617l-4.126,327.5106c.2962,10.4043-8.1293,31.0266-8.1293,31.0266l-10.383,39.867-.6512,21.3191h2.5661v13.0213h-26.5532v42.5426h-6.383v-5.1383h-1.4043v6.6383l32.1148.4794c3.4322-.138,6.167-2.918,6.2489-6.352l.4236-58.1274c1.4113-21.4051,10.9063-49.4602,19.203-67.4043V21.2314Z"/>
      <path class="cls-12" d="M.125,596.6782l16.8368-5.2132c2.767-.7211,5.6353.7455,6.6708,3.4108l12.6413,23.079c15.0638,21.9574,28.4681,61.5319,28.4681,86.7234v262.4255l-3.383,3.383H.125v-373.8085Z"/>
      <path class="cls-12" d="M.125,984.6782l61.5532,1.1064,3.9575,3.9575s.1702,14.5106,1.1489,18.7659c.9788,4.2553,3.6596,13.2766,3.6596,13.2766l-3.5745,79.3546H.125v-116.461Z"/>
      <path class="cls-12" d="M82.508,989.1888c-.2766,5.5532-.2766,29.5532-7.0851,33.5745-2.4255,10.7872-3.9574,78.3759-3.9574,78.3759h296.1383v-7.9717h-29.649c-27.1064-1.6383-56.7234-7.8936-83.5106-24.0213-8.6407-5.2023-59.3815-39.2249-65.867-44.1915-7.1085-5.4437-36.1968-28.3191-86.5585-38.234-4.7638-.9379-19.1925-3.9191-19.5106,2.4681Z"/>
      <path class="cls-12" d="M.125,584.6356l14.0851-6.2128-2.9787-30.0426v-114.0426h-6.5532v-8.1702h6.6383l2-249.4468-2.7234-54.4681s.1869-92.2171,0-92.9362C8.6356,21.7846.125,23.8915.125,23.8915v560.7441Z"/>
    </g>
    <g class="cls-13">
      <path id="Walkable" class="cls-12" d="M350.9282,197.5346c3.234,0,5.3617-1.2553,5.3617-3.4894l.6463-86.7499c0-1.3518-1.0718-2.4601-2.4229-2.5054l-36.0845-.2384c-1.0326.1427-2.0858,1.2916-2.0858,2.4512h-4.1489c.0319-1.3085-.9894-2.4539-1.883-2.453l-151.5.2722v-1.7129h-2.4681v2.9895h2.0426v36.383h-7.0213v-2.4255h-3.0957v-34.117h3.1915c-.0319-1.4043-.766-2.2979-1.5979-2.329l-6.8915-.0009c-.766.032-1.5682,1.5479-1.5638,2.3299h3.9415v34.1702h-4.4096s.3351,1.3586,1.0771,1.9399,3.4761.3579,3.4761.3579v6h-3.383v15.8936h-8.5532v-47.234h-21.0957v-13.9576l-27.234.7768v5.0638h4.0851v29.7872h-27.7447v-31.5745l17.1915.0851c.8511,0,.4224-4.1672-.2979-4.1385,0,0-17.8942-.1397-25.4255.181-1.8003.0767-3.0783,1.9399-2.7379,6.025l3.9293-.0426v102.4857h-4.3404v5.8723l4.766,9.1064-.1702,330.9787c1.0761,1.9216,4.953,7.1472,7.1489,6.9787l72.5106-.0423c7.4526-.7832,19.5478-9.3078,22.4043-17.213,2.7447-7.5957,3.8941-14.6845,3.5111-16.2802s-4.2771-2.9964-4.2771-2.9964v-3.5745h2.1383c2.6199-.0836,2.6869-4.8737,0-4.7553h-13.8192s0-24.3298,0-24.3298h11.8936v7.5319h9.4468s.3085,35.9184-1.234,40.766c-1.4296,4.4927-6.5166,12.0202-9.1116,15.2272-.5099.6301-.3344,1.4383.3888,1.8043l1.2223.6186c1.1958.8559,2.0218,3.9954,1.5962,5.403,0,0-7.6216,19.4795-10.0321,27.7561s7.1597,51.8822,9.6917,58.2439c2.1858,5.4921,1.3077,29.9212,1.2909,39.8509-.0044,2.5897,1.3386,4.992,3.547,6.3446l3.8467,1.588c1.5387.8309,1.5314,3.041-.0128,3.8617l-4.4844.3863c-1.2023.1036-2.3343.6102-3.2125,1.4378l-2.6558,2.2115h-3.1277l.5532-37.9787c.1086-2.6788-.138-5.3603-.7333-7.9743l-6.1656-31.3618-4.9309-33.7916c-.178-1.4582.033-2.932.6151-4.2807,2.3077-5.3468,8.9839-20.684,9.087-23.2193.1277-3.1383-.7331-5.1698-2.5532-5.1809s-6.956,2.023-10.5816,3.5558c-4.3599,1.8432-77.5992,1.6251-77.5992,1.6251-1.6489.0319-1.3936,5.9043.5638,6.3298l5.1064.3404,23.9149,54.1277-3.0638,1.5319,2.5532,7.7603,2.6695-.7816-1.3929-3.5745,22.383-4.4425,7.8298,21.5489.3404,8.0851-22.6968,3.33-.7856-3.2188-2.3048.1441,2.1607,9.7232,2.185-.6168-.6011-4.1702,23.1489-2.8936,4.5337,28.8936-22.938,2.8723-.0638-3.3777h-2.5798v10.3989l3.3457-.2553-.3191-4.2128,22.0851-1.0213.4699,4.2766h1.6365v17.6809h2.4894v5.2979h-1.4043v1.9149h-22.9787v51.2658c.0213,2.1598,4.5663,1.9679,4.7193,0v-46.5637h14.0414v45.165c0,1.2602,1.0216,2.2818,2.2818,2.2818h7.9149c.8409-.079,1.4836-1.4372,1.4836-2.2818l-.0173-2.6969h-10.1897l.0231-42.4681h34.445v46.8587h16.5106v-16.7097h52.5623v13.5957c-.0201,2.4622.9149,4.0851,4.5806,4.0851h94.1125c3.9043,0,7.1383-3.7128,7.1383-6.6064l-.2128-31.5745c-.0276-.7893-2.8723-2.5851-5.1383-2.617v-4.4681c1.4362.0319,5.0802-1.8225,5.1064-3.0638l-.0511-43.125c-.0683-2.0833-1.7643-3.7439-3.8486-3.7682l-18.5791-.0642-4.7446.2128c-1.2841.0967-3.4256,1.3617-3.7235,3.5745h-7.3678v-14.0426h-4.462l-2.5106-1.4468c-.7506-.247-1.9819.1523-2.7234.4255l-1.7553,1.3511c-.9324.5328-2.1009-.0937-2.1732-1.1652l-2.3906-48.0157h-3.5745l-1.1277-104.8085,48.383-.6375v71.3609h-41.3617v8.8085h41.3191v1.5638c6.1064.3404,10.7872-.8511,10.7234-6.6383h-4.0851v-70.9787h3.4043l-.1064-7.4894c-.3339-1.15-2.9727-3.3939-4.1702-3.4043l-57.8511-.1702c-2.7234-.1915-7.1489-2.617-7.1489-6.4043,0,0-.0645-7.2341,0-8.2341v-49.5106h-2.4681v21h-13.2128v-46.0213h12.8936v18.5622h3.4468v-23.0942l-1.5904-2.3617v4.4681h-13.0267l.2137-4.2287c0-.8892-.9063-1.491-1.7259-1.146l-2.5195,1.7742c-.7705.4011-.9551,1.4214-.374,2.0671l2.044,1.2143-9.7021,9.7021-1.3648-2.1083c-.5341-.5526-1.4701-.1997-1.5065.5679l.0629,3.3276h-39.2553v-6h3.8298v-1.0851h7.7234v.766h3.766v-5.4894h7.7234l.8936,2.5532,15,.0638.4468-3.9574v-5.9362h6.9574v-9.2553h-1.4681v-1.4681h-4.7234v-4.7872h3.766v-5.2979h-32.2979v4.2766h-9.7021v-4.8496h-13.4681v-5.0426h75.7021l.5106,1.4028h3.4468v-24.1915h-2.5884v19.8989h-38.7094v-4.0053h-3.8936v4.0053h-21.1277v-4.5798h-3.8936v-16.0851h3.6383v-4.0851h2.5532v-4.9149h19.2766v5.0426h3.9574v-4.7872h38.1988v4.4043h3.4821v-4.3404s13.4043,0,13.2128,0,0-3.766,0-3.766h-4.8511s-.383-29.1064,0-29.1064h4.3404v-3.1277h-6.5745v-4.9787h5.617v-11.9362h4.1489v12.8936h6.2553v36.383h-4.7234v3.766h12.8298l1.7553,1.7553h15.9894v-60.0957h-3.766v-15.5745l4.4681-4.4681v-21.8989h-37.1862c-3.9717,0-7.1915,3.2197-7.1915,7.1915v78.0711h-5.0479v-90.1296h44.0851v-44.5957h17.7872v-1.5319h22.1277l.1702-4.5106Z"/>
    </g>
    <g id="Parks">
      <path id="Park2" class="cls-1" d="M90.109,624.5612c2.1277,4.1702,17.1913,3.4043,14.8124-5.1911-2.4027-8.6812,5.3578-11.8302,7.0599-10.3833,2.8444,2.4177,2.9787,2.7234,4.5957,2.4681s11.9999-10.2978,14.0426-12.3404c2.5957-2.5957,6.4096,5.1383,10.016,1.5319,2.8322-2.8322-4.1799-10.8203-.8245-13.1064,7.7447-5.2766,5.5091-15.7447.8245-17.6814l-13.4202.4899-62.979-.4733,25.8726,54.686Z"/>
      <path id="Park1" class="cls-1" d="M173.1676,788.9335h4.2553c0-5.3617-5.0213-5.9787-5.0213-5.9787l-30.2766.266s-1.4787.3511-1.5957,3.0319h6.3191s.9574,54.6809-2.2024,69.516c-.753,3.5354-3.5008,7.8191-7.8191,7.8191l-11.6806.9262c-1.0638,2.5897-1.1915,71.3344-1.1915,71.3344,0,0-5.4255,1.9787-4.5957,7.7872s4.9149,12.5106,9.7447,15.4043c0,0,41.8528,18.9115,45.617,20.8511,11.1489,5.7447,46.5745,30.3019,50.5319,33.1277,3.9574,2.8257,8.3729,5.1011,11.1064,1.5957l10.5106-14.5319c5-7.1728,7.3404-17.4894,7.617-27.2766l-.8936-68.5532.8936-15.7021-7.7872-1.6292s1.024-10.6383,5.4894-14.8388l9.5745-45.2553,5.2285-38.859c.2667-2.6042-1.7119-4.8966-4.3272-5.0133h-33.7098l-.18,44.7535c-.1294,5.2063-2.5634,10.0864-6.6443,13.3219l-30.7076,22.882h-18.2553v-74.9787Z"/>
      <path class="cls-1" d="M240.2473,532.4548l-.2543,1.3268,1.5735,7.0695,2.1025,3.1812,1.6881,1.9917.986,4.6082v2.4397l1.1245,4.3223s4.4393,16.0288,4.5244,16.2947,9.9574-2.7128,9.9574-2.7128l-.3404-6.1277-3.3191-13.4149v-4.9043l4.8511-7.4043,7.4043.6383s-.6383-18.2087-.766-18.9341-5.4894-13.2361-5.4894-13.2361l-1.0213-6.8936-9.4468.5106-1.1489,5.4894-5.6968,6.2553-4.0798,5.7447-4.7872,5.8723-1.0106,2.5532,5.1348.6784-.357,4.6514h-1.6289Z"/>
      <path class="cls-1" d="M262.6303,575.4016l6.1277,13.2553v8.5106c0,.6809,4.5957,7.3191,4.5957,7.3191l3.5745,22.2979,3.5745,3.0638v10.8936l1.0213,18.8936,1.5319,19.4043v14.2979l-6.0027,10.7234-7.1036,10.2128.8511,58.8723-3.4255,4.7517-20.5745-.8155,1.1702-33.5319,4.9574-11.0638-1.1915-20.5957,1.0213-8.6809-5.9574-14.9574,4.2979-2.1915,5.25,1.6596,3.6223,3.766,2.9362-5.3617s2.5669-14.2571,3.1239-13.8945-1.0813-19.3608-1.0813-19.3608l2.2766-7.9681-2.7965-3.4846-2.5216-.8588-1.299-2.8161,3.1915-2.8085v-8.8085h-4.9787l-1.6596-4.0851,4.1915-6.1277-7.5319-25.0213v-13.4043l8.8085-2.0851Z"/>
      <polygon class="cls-1" points="283.9335 698.125 288.5293 699.5505 288.5293 707.7633 293.5718 723.6569 295.0984 746.6356 297.0149 753.7846 318.5878 765.5293 333.3963 765.5293 333.3963 773.1463 324.2048 775.9721 307.4393 771.6569 272.6303 756.0825 272.6303 714.4654 283.9335 698.125"/>
      <polygon class="cls-1" points="247.9707 696.1888 250.6729 703.9973 249.3218 710.6356 250.6729 732.5931 245.3218 742.8059 245.3218 759.9122 241.4814 765.0186 230.4692 765.0186 230.4692 760.2171 193.1443 760.2171 193.2079 735.5931 197.3112 726.7208 200.1197 712.6782 204.117 698.6356 229.1835 696.1888 247.9707 696.1888"/>
      <polygon class="cls-1" points="187.6004 735.5931 191.5239 737.4442 189.5622 760.2171 177.9069 760.2171 177.9069 776.9268 171.2261 776.9268 174.9282 769.2314 174.9282 761.3165 173.7367 752.2527 187.6004 735.5931"/>
      <polygon class="cls-1" points="181.9929 738.4654 173.7367 737.6995 166.2473 736.4229 162.1622 734.6356 160.875 756.26 168.6729 753.5293 181.9929 738.4654"/>
      <polygon class="cls-1" points="171.434 753.9122 172.8856 767.8271 169.1835 776.9268 161.3963 776.9268 161.3963 759.1463 171.434 753.9122"/>
    </g>
  </g>
  <g id="buildings">
    <g id="SW">
      <g id="SW05">
        <g id="SW05_Outline">
          <polygon class="cls-3" points="117.7261 416.665 119.4378 416.3803 120.0944 418.3728 118.5267 418.8461 117.7261 416.665"/>
          <polygon class="cls-3" points="106.5137 416.665 104.802 416.3803 104.1454 418.3728 105.7131 418.8461 106.5137 416.665"/>
          <rect class="cls-3" x="123.0744" y="415.1044" width=".5106" height="3.5583"/>
          <rect class="cls-3" x="100.5998" y="415.1044" width=".5106" height="3.5583"/>
          <g id="outerWalls">
            <polyline class="cls-7" points="112.0946 408.9123 115.2955 408.9129 123.4243 410.2533 123.4243 415.1044 126.6796 415.1044 126.6796 420.115 123.6657 420.115 119.3523 421.5724 122.6774 431.4634 121.7204 431.7777 120.2546 431.9159 118.8909 432.4986 117.371 432.4986 116.0433 432.9672 114.4994 432.841 113.0756 433.1774 112.0946 433.1778"/>
            <polyline class="cls-7" points="112.0945 408.9123 108.8935 408.9129 100.7648 410.2533 100.7648 415.1044 97.5095 415.1044 97.5095 420.115 100.5234 420.115 104.8368 421.5724 101.5117 431.4634 102.4687 431.7777 103.9345 431.9159 105.2982 432.4986 106.8181 432.4986 108.1457 432.9672 109.6897 432.841 111.1135 433.1774 112.0945 433.1778"/>
          </g>
          <line class="cls-3" x1="125.1224" y1="416.6441" x2="125.1224" y2="418.6068"/>
          <line class="cls-3" x1="99.0759" y1="416.6999" x2="99.0759" y2="418.6627"/>
        </g>
        <g id="SW05_1">
          <polygon class="cls-7" points="117.6648 416.6999 118.3989 418.8382 120.0106 418.3435 119.3085 416.4127 117.6648 416.6999"/>
          <line class="cls-7" x1="120.5691" y1="419.9871" x2="120.9089" y2="421.045"/>
          <polygon class="cls-7" points="106.5201 416.6999 105.786 418.8382 104.1743 418.3435 104.8764 416.4127 106.5201 416.6999"/>
          <polyline class="cls-7" points="105.2115 415.0723 105.6903 413.684 112.07 414.8489 112.1149 414.8489 118.4946 413.684 118.9733 415.0723"/>
          <polyline class="cls-7" points="117.5181 416.0349 117.6648 416.6999 112.1149 417.5457 112.07 417.5457 106.5201 416.6999"/>
          <line class="cls-7" x1="103.6158" y1="419.9871" x2="103.276" y2="421.045"/>
          <line class="cls-7" x1="112.1149" y1="415.9064" x2="112.1152" y2="433.1778"/>
          <polyline class="cls-7" points="117.1791 413.9242 117.3559 415.1638 117.9386 415.0723"/>
          <line class="cls-7" x1="119.1341" y1="415.8847" x2="119.3085" y2="416.4127"/>
        </g>
        <g id="SW05_2">
          <line class="cls-7" x1="115.6964" y1="414.9367" x2="115.4445" y2="408.9123"/>
          <polyline class="cls-7" points="116.6352 414.7745 116.7948 415.3649 121.949 414.5192 122.0288 414.8224"/>
          <line class="cls-7" x1="123.2236" y1="420.2815" x2="123.0341" y2="419.9447"/>
          <line class="cls-7" x1="119.4378" y1="416.3803" x2="120.5403" y2="416.2527"/>
          <line class="cls-7" x1="123.0613" y1="415.8485" x2="122.0288" y2="416.0186"/>
          <line class="cls-7" x1="120.0944" y1="418.3728" x2="120.7294" y2="420.1131"/>
          <line class="cls-7" x1="118.5267" y1="418.8461" x2="119.0509" y2="420.5505"/>
          <polyline class="cls-7" points="109.5221 415.1122 109.4343 415.6708 112.0992 416.1176 114.8055 415.6708 114.7177 415.1122"/>
          <line class="cls-7" x1="108.5434" y1="414.9367" x2="108.7953" y2="408.9123"/>
          <polyline class="cls-7" points="107.6046 414.7745 107.445 415.3649 102.2907 414.5192 102.211 414.8224"/>
          <line class="cls-7" x1="101.0162" y1="420.2815" x2="101.2056" y2="419.9447"/>
          <line class="cls-7" x1="104.802" y1="416.3803" x2="103.6995" y2="416.2527"/>
          <line class="cls-7" x1="101.1785" y1="415.8485" x2="102.211" y2="416.0186"/>
          <polyline class="cls-7" points="106.5137 416.665 112.0945 417.5293 117.7261 416.665"/>
          <line class="cls-7" x1="104.1454" y1="418.3728" x2="103.5104" y2="420.1131"/>
          <line class="cls-7" x1="105.7131" y1="418.8461" x2="105.1888" y2="420.5505"/>
        </g>
        <g id="SW05_Roof">
          <g>
            <polyline class="cls-11" points="112.0946 408.9123 115.2955 408.9129 123.4243 410.2533 123.4243 415.1044 126.6796 415.1044 126.6796 420.115 123.6657 420.115 119.3523 421.5724 122.6774 431.4634 121.7204 431.7777 120.2546 431.9159 118.8909 432.4986 117.371 432.4986 116.0433 432.9672 114.4994 432.841 113.0756 433.1774 112.0946 433.1778"/>
            <polyline class="cls-7" points="112.0946 408.9123 115.2955 408.9129 123.4243 410.2533 123.4243 415.1044 126.6796 415.1044 126.6796 420.115 123.6657 420.115 119.3523 421.5724 122.6774 431.4634 121.7204 431.7777 120.2546 431.9159 118.8909 432.4986 117.371 432.4986 116.0433 432.9672 114.4994 432.841 113.0756 433.1774 112.0946 433.1778"/>
          </g>
          <g>
            <polyline class="cls-11" points="112.0945 408.9123 108.8935 408.9129 100.7648 410.2533 100.7648 415.1044 97.5095 415.1044 97.5095 420.115 100.5234 420.115 104.8368 421.5724 101.5117 431.4634 102.4687 431.7777 103.9345 431.9159 105.2982 432.4986 106.8181 432.4986 108.1457 432.9672 109.6897 432.841 111.1135 433.1774 112.0945 433.1778"/>
            <polyline class="cls-7" points="112.0945 408.9123 108.8935 408.9129 100.7648 410.2533 100.7648 415.1044 97.5095 415.1044 97.5095 420.115 100.5234 420.115 104.8368 421.5724 101.5117 431.4634 102.4687 431.7777 103.9345 431.9159 105.2982 432.4986 106.8181 432.4986 108.1457 432.9672 109.6897 432.841 111.1135 433.1774 112.0945 433.1778"/>
          </g>
        </g>
      </g>
      <g id="SW03">
        <polygon id="SW03_Outline" class="cls-7" points="156.0718 395.7155 156.0718 404.1463 115.4445 404.1463 115.4445 408.9123 108.8935 408.9129 108.7553 401.6782 80.1144 401.6782 79.8165 422.6569 64.1464 422.6569 64.5399 392.4429 69.5399 392.4229 69.5399 387.5399 75.8366 387.5399 75.8366 384.8571 109.0927 385.2397 109.0927 383.3649 107.1161 383.3649 107.1161 364.7168 111.4305 364.7168 111.4305 362.5505 113.6727 362.5505 113.6727 364.7168 118.0826 364.7168 118.0826 383.3649 115.8196 383.3649 115.8196 385.0965 152.2582 385.5212 152.2582 392.0253 156.0718 392.0825 156.0718 394.0679 158.1011 394.0679 158.1011 395.7155 156.0718 395.7155"/>
        <polygon id="SW03_Roof" class="cls-6" points="156.0718 395.7155 156.0718 404.1463 115.4445 404.1463 115.4445 408.9123 108.8935 408.9129 108.7553 401.6782 80.1144 401.6782 79.8165 422.6569 64.1464 422.6569 64.5399 392.4429 69.5399 392.4229 69.5399 387.5399 75.8366 387.5399 75.8366 384.8571 109.0927 385.2397 109.0927 383.3649 107.1161 383.3649 107.1161 364.7168 111.4305 364.7168 111.4305 362.5505 113.6727 362.5505 113.6727 364.7168 118.0826 364.7168 118.0826 383.3649 115.8196 383.3649 115.8196 385.0965 152.2582 385.5212 152.2582 392.0253 156.0718 392.0825 156.0718 394.0679 158.1011 394.0679 158.1011 395.7155 156.0718 395.7155"/>
      </g>
      <g id="SW02">
        <path id="SW02_Outline" class="cls-7" d="M87.3963,361.1516l-6.1915-6.1915c-2.1383,2.1382-4.2128-1.4681-4.2128-1.4681v-4.9787h-1.2128v5.0425l-2.8723-2.8723-12.8105,12.1489c2.2882,2.2882,1.7669,6.382,0,8.1489l12.2137,12.2137,3.501-3.501v5.163h2.7766v-3.1523c-3.0745-1.3883.7979-4.3085.7979-4.3085l1.4362,1.4362,6.1596-6.1596c0-3.6276,3.2872-5.7766,3.2872-5.7766,0,0-2.8723-2.1489-2.8723-5.7447ZM75.6888,373.1197l-3.2234-3.2234,3.4067-3.4067-3.3989-3.3989,3.088-2.5765,6.3666,6.3666-6.239,6.239Z"/>
        <path id="SW02_Roof" class="cls-6" d="M87.3963,361.1516l-6.1915-6.1915c-2.1383,2.1382-4.2128-1.4681-4.2128-1.4681v-4.9787h-1.2128v5.0425l-2.8723-2.8723-12.8105,12.1489c2.2882,2.2882,1.7669,6.382,0,8.1489l12.2137,12.2137,3.501-3.501v5.163h2.7766v-3.1523c-3.0745-1.3883.7979-4.3085.7979-4.3085l1.4362,1.4362,6.1596-6.1596c0-3.6276,3.2872-5.7766,3.2872-5.7766,0,0-2.8723-2.1489-2.8723-5.7447ZM75.6888,373.1197l-3.2234-3.2234,3.4067-3.4067-3.3989-3.3989,3.088-2.5765,6.3666,6.3666-6.239,6.239Z"/>
      </g>
      <g id="SW01">
        <path id="SW01_Outline" class="cls-6" d="M111.1238,362.5505v-2.4309h-6.8179v-11.6064h-28.5266v-1.7979h-3.133v2.383h-11.4894v-42.4255c-1.3841-4.7629-2.6105-13.117-2.5344-16.6264.022-1.0176.7634-1.8683,1.7693-2.0234,2.8036-.4323,9.032-.4151,12.68,2.1818h31.4681v-11.617h7.5957v-2.2979h5.6809v2.1702h3.8936v20.5532h13.0851v-3.0638h13.4043v43.9149l-23.8085.0319c-.4172,0-.7553.3382-.7553.7553v1.5532c0,.4172.3382.7553.7553.7553l.766-.0319v-1.8511h10.3404v8.1064h-10.3404v-1.5319h-3.8298v3.8298h18.1915v-4.7234h8.6809v9.2553h-27.3191v4.4043h-3.3191v2.133h-6.4374Z"/>
        <path id="SW01_Roof" class="cls-7" d="M111.1238,362.5505v-2.4309h-6.8179v-11.6064h-28.5266v-1.7979h-3.133v2.383h-11.4894v-42.4255c-1.3841-4.7629-2.6105-13.117-2.5344-16.6264.022-1.0176.7634-1.8683,1.7693-2.0234,2.8036-.4323,9.032-.4151,12.68,2.1818h31.4681v-11.617h7.5957v-2.2979h5.6809v2.1702h3.8936v20.5532h13.0851v-3.0638h13.4043v43.9149l-23.8085.0319c-.4172,0-.7553.3382-.7553.7553v1.5532c0,.4172.3382.7553.7553.7553l.766-.0319v-1.8511h10.3404v8.1064h-10.3404v-1.5319h-3.8298v3.8298h18.1915v-4.7234h8.6809v9.2553h-27.3191v4.4043h-3.3191v2.133h-6.4374Z"/>
      </g>
      <g id="SW09">
        <polygon id="SW09_Outline" class="cls-7" points="143.5612 494.9282 143.5612 537.6942 98.4973 537.6942 98.4973 533.2261 86.3697 533.2261 86.3697 537.0559 65.4335 537.0559 65.4335 494.9282 83.1782 494.9282 83.1782 493.5239 100.9229 493.5239 100.9229 494.9282 143.5612 494.9282"/>
        <polygon id="SW09_Roof" class="cls-6" points="143.5612 494.9282 143.5612 537.6942 98.4973 537.6942 98.4973 533.2261 86.3697 533.2261 86.3697 537.0559 65.4335 537.0559 65.4335 494.9282 83.1782 494.9282 83.1782 493.5239 100.9229 493.5239 100.9229 494.9282 143.5612 494.9282"/>
      </g>
      <g id="SW10">
        <path id="SW10_Outline" class="cls-7" d="M149.8165,591.8005h8.7447v1.4681h2.4255v-2.2979h5.234v9.766h-3.3191v2.7447h2.3617v5.0426h3.0638v9.6383h-11.8936l-.0783-3.5109c-.289-.289-.7487-.3156-1.069-.0618l-1.4528,1.5754c-.4089.2785-.9653.0045-.9939-.4894l.1046-10.5984h4.3404c2.3404-.0426,1.9582-1.8718,1.4383-2.4029-.4596-.4694-2.2042-1.3205-2.2042,1.0199h-6.7021v-11.8936Z"/>
        <path id="SW10_Roof" class="cls-6" d="M149.8165,591.8005h8.7447v1.4681h2.4255v-2.2979h5.234v9.766h-3.3191v2.7447h2.3617v5.0426h3.0638v9.6383h-11.8936l-.0783-3.5109c-.289-.289-.7487-.3156-1.069-.0618l-1.4528,1.5754c-.4089.2785-.9653.0045-.9939-.4894l.1046-10.5984-3.1277-1.383v-11.8936Z"/>
      </g>
      <g id="SW11">
        <path id="SW11_Outline_S" class="cls-7" d="M126.6356,633.4654h5.7021v2.2979h1.0213v-1.4043h5.5745v1.8723h3.7021v7.9149s-1.4468,3.4582-3.9574,3.4525c-2.1394-.0048-1.9574-4.0482-1.9574-4.0482h-2.0426c0,1.7021-1.2766,2.5957-3.2766,2.3404s-2.1702-.8085-2-2.9362h-2.766l-1.4468-1.6596v-3.5319h1.4894l-.0426-4.2979Z"/>
        <path id="SW11_Roof_S" class="cls-6" d="M126.6356,633.4654h5.7021v2.2979h1.0213v-1.4043h5.5745v1.8723h3.7021v7.9149s-1.4468,3.4582-3.9574,3.4525c-2.1394-.0048-1.9574-4.0482-1.9574-4.0482h-2.0426c0,1.7021-1.2766,2.5957-3.2766,2.3404s-2.1702-.8085-2-2.9362h-2.766l-1.4468-1.6596v-3.5319h1.4894l-.0426-4.2979Z"/>
        <path id="SW11_Outline_N" class="cls-7" d="M130.2952,631.8112v-1.7755c0-.4444.4771-.7255.8658-.5101,0,0,2.0012,1.9984,2.8874,2.0145h2.8v-3.2608h3.7872v-6.7447s-.5953-2.2983-2.9357-3.4047c-1.9814-.1963-2.7345-.1059-2.7345,1.3834s-1.4787,2.0213-1.4787,2.0213h-9.234v4.3191h-1.4043v6.1277l7.4468-.1702Z"/>
        <path id="SW11_Roof_N" class="cls-6" d="M130.2952,631.8112v-1.7755c0-.4444.4771-.7255.8658-.5101,0,0,2.0012,1.9984,2.8874,2.0145h2.8v-3.2608h3.7872v-6.7447s-.5953-2.2983-2.9357-3.4047c-1.9814-.1963-2.7345-.1059-2.7345,1.3834s-1.4787,2.0213-1.4787,2.0213h-9.234v4.3191h-1.4043v6.1277l7.4468-.1702Z"/>
      </g>
      <g id="SW12">
        <polygon id="SW12_Outline" class="cls-7" points="157.125 631.9814 159.5505 631.9814 159.5505 630.3803 165.359 630.3803 165.359 631.9814 167.2739 631.9814 167.2739 629.742 172.7633 629.742 172.7633 639.5236 169.6356 639.5236 169.6356 641.9973 171.6782 641.9973 171.6782 644.9335 174.5824 647.8378 174.5824 655.9122 172.5718 657.6995 169.7633 657.6995 169.7633 654.7633 167.4016 654.7633 167.4016 656.1676 161.9122 656.1676 158.4654 652.7208 158.4654 645.8271 159.7739 644.5186 164.9761 644.5186 164.9761 646.2101 165.8537 646.2101 165.8537 644.6782 169.9548 644.6782 170.2739 641.9973 166.2527 641.9973 162.9973 640.5321 162.9973 642.891 157.125 642.891 157.125 631.9814"/>
        <polygon id="SW12_Roof" class="cls-6" points="157.125 631.9814 159.5505 631.9814 159.5505 630.3803 165.359 630.3803 165.359 631.9814 167.2739 631.9814 167.2739 629.742 172.7633 629.742 172.7633 639.5236 169.6356 639.5236 169.6356 641.9973 171.6782 641.9973 171.6782 644.9335 174.5824 647.8378 174.5824 655.9122 172.5718 657.6995 169.7633 657.6995 169.7633 654.7633 167.4016 654.7633 167.4016 656.1676 161.9122 656.1676 158.4654 652.7208 158.4654 645.8271 159.7739 644.5186 164.9761 644.5186 164.9761 646.2101 165.8537 646.2101 165.8537 644.6782 169.9548 644.6782 170.2739 641.9973 166.2527 641.9973 162.9973 640.5321 162.9973 642.891 157.125 642.891 157.125 631.9814"/>
      </g>
      <g id="SW13">
        <polygon id="SW13_Outline_S" class="cls-7" points="140.9654 673.5505 140.9654 675.9335 142.2154 675.9335 142.2154 674.0612 147.641 674.0612 147.641 676.5718 150.6197 676.5718 151.3644 677.4016 151.3644 683.8271 150.6835 686.6569 145.641 686.6569 145.641 683.6569 143.4707 683.6569 143.4707 685.891 138.2793 685.891 138.2793 682.9973 136.8324 682.9973 136.8324 683.7633 134.9654 683.7633 134.9654 673.5505 140.9654 673.5505"/>
        <path id="SW13_Outline_N" class="cls-7" d="M143.2739,662.2314v-3.5106c3.6489-.4309,5.6277,1.5957,5.6277,3.1277l.0957,6.367h-3.0745v2.8245h-3.9788c-.1335,0-.2658-.0251-.39-.074l-1.2283-.4839c-.416-.1639-.89-.0554-1.1933.2732l-.6382.6914c-.249.2697-.5993.4231-.9664.4231h-4.5944v-11.4255h6.383l3.9574,1.7872Z"/>
        <polygon id="SW13_Roof_S" class="cls-6" points="140.9654 673.5505 140.9654 675.9335 142.2154 675.9335 142.2154 674.0612 147.641 674.0612 147.641 676.5718 150.6197 676.5718 151.3644 677.4016 151.3644 683.8271 150.6835 686.6569 145.641 686.6569 145.641 683.6569 143.4707 683.6569 143.4707 685.891 138.2793 685.891 138.2793 682.9973 136.8324 682.9973 136.8324 683.7633 134.9654 683.7633 134.9654 673.5505 140.9654 673.5505"/>
        <path id="SW13_Roof_N" class="cls-6" d="M143.2739,662.2314v-3.5106c3.6489-.4309,5.6277,1.5957,5.6277,3.1277l.0957,6.367h-3.0745v2.8245h-3.9788c-.1335,0-.2658-.0251-.39-.074l-1.2283-.4839c-.416-.1639-.89-.0554-1.1933.2732l-.6382.6914c-.249.2697-.5993.4231-.9664.4231h-4.5944v-11.4255h6.383l3.9574,1.7872Z"/>
      </g>
      <g id="SW14">
        <path id="SW14_Outline" class="cls-7" d="M160.875,670.5718v11.0213h5.8723v-2.383l3.234,1.5319h4v3.0638h-5.1489v-1.0213h-6.0851v10.9787l2.7872.3617.4043,1.4681,7.4894.5957h5.3191v-9.5319h-3.1915v-5.8298l-2.1277-.0851v-2.2553h3.617l-.2361-7.3861c0-.6673-.2104-1.3177-.6014-1.8585l-.9427-.8593c-.4973-.4533-1.146-.7046-1.8189-.7046h-2.103v3.7021h-2.383v-2.0851h-5.2766v3.4468h-1.3617v-2.1702h-1.4468Z"/>
        <path id="SW14_Roof" class="cls-6" d="M160.875,670.5718v11.0213h5.8723v-2.383l3.234,1.5319h4v3.0638h-5.1489v-1.0213h-6.0851v10.9787l2.7872.3617.4043,1.4681,7.4894.5957h5.3191v-9.5319h-3.1915v-5.8298l-2.1277-.0851v-2.2553h3.617l-.2361-7.3861c0-.6673-.2104-1.3177-.6014-1.8585l-.9427-.8593c-.4973-.4533-1.146-.7046-1.8189-.7046h-2.103v3.7021h-2.383v-2.0851h-5.2766v3.4468h-1.3617v-2.1702h-1.4468Z"/>
      </g>
      <g id="SW15">
        <path id="SW15_Outline" class="cls-7" d="M144.8324,702.7739v-3.2234h3.0638l2.8404,2.8404v7.6277h-3.8298v2.9362h-3.4468c-.7979-1.9043-3.2447-2.1915-3.1915,0v1.9787h8.8404v3.1596h3.8936v7.883l-1.5319,2.234h-4.8351l-1.3644-1.3644h-2.258v.8218h-3.2234v-3.2872h-1.7872v1.0532h-1.6277v-11.6809h-1.5957v-11.0745h2.7447v-2.2979h3v.8936h2.1383v1.5h2.1702Z"/>
        <path id="SW15_Roof" class="cls-6" d="M144.8324,702.7739v-3.2234h3.0638l2.8404,2.8404v7.6277h-3.8298v2.9362h-3.4468c-.7979-1.9043-3.2447-2.1915-3.1915,0v1.9787h8.8404v3.1596h3.8936v7.883l-1.5319,2.234h-4.8351l-1.3644-1.3644h-2.258v.8218h-3.2234v-3.2872h-1.7872v1.0532h-1.6277v-11.6809h-1.5957v-11.0745h2.7447v-2.2979h3v.8936h2.1383v1.5h2.1702Z"/>
      </g>
      <g id="SW16">
        <path id="SW16_Outline" class="cls-7" d="M164.2048,708.5718h3.1064v-.8085h3.3191v1.1064h4.2553v-1.1064h5.617l.7234,1.8723v7.7447h-4.5532s.2979,2.8936,0,2.8936h-3.9574v2.383h6.5106v2.4681h4.0426v7.7447l-2.7234,2.7234h-3.4043v-3.234h-2.2979v2.2128h-5.1915v-2h-3.234v-12.2979h-2.2128v-11.7021Z"/>
        <path id="SW16_Roof" class="cls-6" d="M164.2048,708.5718h3.1064v-.8085h3.3191v1.1064h4.2553v-1.1064h5.617l.7234,1.8723v7.7447h-4.5532s.2979,2.8936,0,2.8936h-3.9574v2.383h6.5106v2.4681h4.0426v7.7447l-2.7234,2.7234h-3.4043v-3.234h-2.2979v2.2128h-5.1915v-2h-3.234v-12.2979h-2.2128v-11.7021Z"/>
      </g>
    </g>
    <g id="SE">
      <g id="SE12">
        <g id="SE12_3">
          <line class="cls-7" x1="171.0742" y1="361.8126" x2="171.0742" y2="367.536"/>
          <line class="cls-7" x1="175.9465" y1="367.536" x2="175.9465" y2="371.4935"/>
          <line class="cls-7" x1="175.9465" y1="379.2807" x2="175.9465" y2="384.7488"/>
          <line class="cls-7" x1="175.9465" y1="386.8339" x2="175.9465" y2="390.0254"/>
          <line class="cls-7" x1="169.8908" y1="391.0892" x2="169.8908" y2="394.0679"/>
          <line class="cls-7" x1="168.9133" y1="397.0689" x2="175.8708" y2="397.0689"/>
          <line class="cls-7" x1="175.8708" y1="397.9466" x2="175.8708" y2="403.7232"/>
          <line class="cls-7" x1="175.8708" y1="404.4253" x2="175.8708" y2="405.4785"/>
          <line class="cls-7" x1="170.9559" y1="397.0689" x2="170.9559" y2="405.2232"/>
          <line class="cls-7" x1="175.8708" y1="406.1966" x2="175.8708" y2="409.1168"/>
          <line class="cls-7" x1="175.8708" y1="409.787" x2="175.8708" y2="410.904"/>
          <line class="cls-7" x1="175.8708" y1="411.5583" x2="175.8708" y2="416.1859"/>
          <line class="cls-7" x1="175.8708" y1="416.9998" x2="175.8708" y2="419.1221"/>
          <polyline class="cls-7" points="176.0535 440.2435 176.0535 442.5626 168.5434 442.5626"/>
          <polyline class="cls-7" points="172.752 440.2435 171.2201 440.2435 171.2201 442.5626"/>
          <polyline class="cls-7" points="175.245 440.2435 173.5428 440.2435 173.5428 442.5626"/>
          <polyline class="cls-7" points="161.1403 365.7488 161.1403 361.8126 168.5434 361.8126 168.5434 361.8126 175.9465 361.8126 175.9465 365.7488"/>
          <polyline class="cls-7" points="161.1403 366.4722 161.1403 367.536 168.5434 367.536 168.5434 367.536 175.9465 367.536 175.9465 366.4722"/>
          <line class="cls-7" x1="166.0126" y1="361.8126" x2="166.0126" y2="367.536"/>
          <line class="cls-7" x1="161.1403" y1="367.536" x2="161.1403" y2="371.4935"/>
          <polyline class="cls-7" points="161.1403 372.8977 168.5434 372.8977 168.5434 372.8977 175.9465 372.8977"/>
          <polyline class="cls-7" points="161.1403 373.7701 161.1403 378.302 168.5434 378.302 168.5434 378.302 175.9465 378.302 175.9465 373.7701"/>
          <polyline class="cls-7" points="161.1403 385.7701 168.5434 385.7701 168.5434 385.7701 175.9465 385.7701"/>
          <line class="cls-7" x1="161.1403" y1="379.2807" x2="161.1403" y2="384.7488"/>
          <line class="cls-7" x1="161.1403" y1="386.8339" x2="161.1403" y2="390.0254"/>
          <polyline class="cls-7" points="161.1403 390.8126 161.1403 391.0892 168.5434 391.0892 168.5434 391.0892 175.9465 391.0892 175.9465 390.8126"/>
          <polyline class="cls-7" points="161.1403 391.919 161.1403 394.0679 168.5434 394.0679 168.5434 394.0679 175.9465 394.0679 175.9465 391.919"/>
          <line class="cls-7" x1="167.724" y1="391.0892" x2="167.724" y2="394.0679"/>
          <line class="cls-7" x1="168.1735" y1="397.0689" x2="161.2161" y2="397.0689"/>
          <line class="cls-7" x1="161.2161" y1="397.9466" x2="161.2161" y2="403.7232"/>
          <line class="cls-7" x1="161.2161" y1="404.4253" x2="161.2161" y2="405.4785"/>
          <polyline class="cls-7" points="161.2161 405.2232 168.5434 405.2228 168.5434 405.2228 175.8708 405.2232"/>
          <line class="cls-7" x1="166.1309" y1="397.0689" x2="166.1309" y2="405.2232"/>
          <polyline class="cls-7" points="166.1309 404.7444 168.5434 404.7444 168.5434 404.7444 170.9559 404.7444"/>
          <line class="cls-7" x1="161.2161" y1="406.1966" x2="161.2161" y2="409.1168"/>
          <line class="cls-7" x1="161.2161" y1="409.787" x2="161.2161" y2="410.904"/>
          <line class="cls-7" x1="161.2161" y1="411.5583" x2="161.2161" y2="414.3189"/>
          <line class="cls-7" x1="161.2161" y1="415.0529" x2="161.2161" y2="416.1859"/>
          <line class="cls-7" x1="161.2161" y1="416.9998" x2="161.2161" y2="419.1221"/>
          <polyline class="cls-7" points="161.2161 419.8242 161.2161 421.3561 168.5434 421.3561 168.5434 421.3561 175.8708 421.3561 175.8708 419.8242"/>
          <polyline class="cls-7" points="161.2161 410.2341 168.5434 410.2341 168.5434 410.2341 175.8708 410.2341"/>
          <polyline class="cls-7" points="161.0333 440.2435 161.0333 442.5626 168.5434 442.5626"/>
          <polyline class="cls-7" points="164.4376 440.2435 166.3312 440.2435 166.3312 442.5626"/>
          <polyline class="cls-7" points="161.8418 440.2435 163.544 440.2435 163.544 442.5626"/>
          <polyline class="cls-7" points="167.1397 440.2435 168.5434 440.2435 168.5434 440.2435 170.4116 440.2435"/>
          <line class="cls-7" x1="168.5434" y1="367.536" x2="168.5434" y2="391.0892"/>
          <line class="cls-7" x1="169.4653" y1="392.6558" x2="169.8908" y2="392.6558"/>
          <line class="cls-7" x1="168.7951" y1="392.6558" x2="167.724" y2="392.6558"/>
          <line class="cls-7" x1="167.5865" y1="416.0041" x2="161.2161" y2="416.0041"/>
          <polyline class="cls-7" points="163.6184 428.2328 161.012 428.2328 161.012 426.0201 166.6929 426.0201 166.6929 426.7754"/>
          <polyline class="cls-7" points="164.6503 430.0307 164.5014 430.0307 164.5014 427.6584 166.6929 427.6584 166.6929 430.0307 165.2886 430.0307"/>
          <line class="cls-7" x1="164.5014" y1="426.0201" x2="164.5014" y2="427.6584"/>
          <line class="cls-7" x1="174.9014" y1="391.0892" x2="174.9014" y2="392.9218"/>
          <line class="cls-7" x1="168.5434" y1="405.2228" x2="168.5434" y2="414.5823"/>
          <line class="cls-7" x1="168.5434" y1="415.2206" x2="168.5434" y2="421.3561"/>
          <line class="cls-7" x1="168.3052" y1="416.0041" x2="175.8708" y2="416.0041"/>
          <line class="cls-7" x1="168.5434" y1="440.2435" x2="168.5434" y2="442.5626"/>
          <line class="cls-7" x1="170.4116" y1="444.3751" x2="170.4116" y2="442.5626"/>
          <line class="cls-7" x1="163.4813" y1="442.5626" x2="163.4813" y2="443.2449"/>
          <line class="cls-7" x1="164.4376" y1="442.5626" x2="164.4376" y2="443.2209"/>
          <line class="cls-7" x1="165.9865" y1="442.5626" x2="165.9865" y2="443.6654"/>
          <g>
            <line class="cls-7" x1="159.7394" y1="427.2824" x2="159.7394" y2="428.0723"/>
            <polyline class="cls-7" points="159.7394 431.6852 159.7394 430.5138 159.2416 430.5138"/>
            <polyline class="cls-7" points="159.7394 427.7771 159.2416 427.7771 159.2416 430.5776 158.1208 431.6852"/>
            <line class="cls-7" x1="157.7921" y1="427.7771" x2="157.7921" y2="430.2345"/>
          </g>
          <g>
            <line class="cls-7" x1="177.2252" y1="389.5754" x2="177.2252" y2="390.3652"/>
            <polyline class="cls-7" points="177.2252 393.9872 177.2252 392.8067 177.723 392.8067"/>
            <polyline class="cls-7" points="177.2252 390.07 177.723 390.07 177.723 392.8706 178.8438 393.9914"/>
            <line class="cls-7" x1="179.3187" y1="390.07" x2="179.3187" y2="392.6558"/>
          </g>
          <g>
            <g>
              <line class="cls-7" x1="162.2288" y1="359.7793" x2="163.2717" y2="359.7727"/>
              <polyline class="cls-7" points="162.2368 358.7132 163.2079 359.7727 166.0714 359.7727 166.0714 360.1335 166.582 360.1335"/>
            </g>
            <line class="cls-7" x1="163.6698" y1="358.3622" x2="166.1273" y2="358.3622"/>
          </g>
          <polyline class="cls-7" points="167.6299 426.9553 167.6299 426.0201 172.7257 426.0201 172.7257 426.9553"/>
          <polyline class="cls-7" points="170.1086 430.0307 171.1831 430.0307 171.1831 426.0201"/>
          <line class="cls-7" x1="172.7257" y1="427.8569" x2="171.1831" y2="427.8569"/>
          <polyline class="cls-7" points="172.7257 428.7079 172.7257 429.6866 171.1831 429.6866"/>
          <line class="cls-7" x1="169.2789" y1="426.0201" x2="169.2789" y2="430.0909"/>
          <line class="cls-7" x1="167.5235" y1="427.8569" x2="169.2789" y2="427.8569"/>
          <polyline class="cls-7" points="167.6299 428.7079 167.6299 429.6866 169.2789 429.6866"/>
          <polyline class="cls-7" points="173.5874 426.8249 173.5874 426.0201 175.9171 426.0201 175.9171 427.676 173.6406 427.676 173.6406 430.0307 175.1299 430.0307"/>
          <polyline class="cls-7" points="175.9703 430.0909 175.9703 427.676 176.215 427.676"/>
          <line class="cls-7" x1="176.832" y1="427.676" x2="177.2288" y2="427.676"/>
          <polyline class="cls-7" points="167.6299 431.4154 167.1884 431.4154 167.1884 439.0749 167.7416 439.0749"/>
          <polyline class="cls-7" points="168.3799 439.1281 169.7948 439.1281 169.7948 431.4154 168.3054 431.4154 168.3054 432.3303 169.7948 432.3303"/>
          <polyline class="cls-7" points="174.4863 422.543 168.7416 422.543 168.7416 424.3941 174.4863 424.3941"/>
        </g>
        <polygon id="SE12_Outline" class="cls-5" points="159.7394 359.7793 162.2288 359.7793 162.25 356.9495 167.4202 356.9495 167.4202 359.7793 177.2288 359.7793 177.2288 376.3111 178.5692 376.3111 178.5692 379.5666 177.2288 379.5666 177.2288 388.758 180.8032 388.758 180.8032 393.9708 177.2288 393.9708 177.2288 414.0666 178.6117 414.0666 178.6117 417.3538 177.2288 417.3538 177.2288 444.3751 159.7394 444.3751 159.7394 431.6852 156.3245 431.6852 156.3245 426.4815 159.7394 426.5027 159.7394 417.3112 158.4841 417.3112 158.4841 413.8857 159.7394 413.8857 159.7394 395.7155 158.1011 395.7155 158.1011 393.9708 159.7394 393.9708 159.7394 379.6518 158.5479 379.6518 158.5479 376.2474 159.7394 376.2474 159.7394 359.7793"/>
        <polygon id="SE12_Roof" class="cls-6" points="159.7394 359.7793 162.2288 359.7793 162.25 356.9495 167.4202 356.9495 167.4202 359.7793 177.2288 359.7793 177.2288 376.3111 178.5692 376.3111 178.5692 379.5666 177.2288 379.5666 177.2288 388.758 180.8032 388.758 180.8032 393.9708 177.2288 393.9708 177.2288 414.0666 178.6117 414.0666 178.6117 417.3538 177.2288 417.3538 177.2288 444.3751 159.7394 444.3751 159.7394 431.6852 156.3245 431.6852 156.3245 426.4815 159.7394 426.5027 159.7394 417.3112 158.4841 417.3112 158.4841 413.8857 159.7394 413.8857 159.7394 395.7155 158.1011 395.7155 158.1011 393.9708 159.7394 393.9708 159.7394 379.6518 158.5479 379.6518 158.5479 376.2474 159.7394 376.2474 159.7394 359.7793"/>
      </g>
      <g id="SE10">
        <polygon id="SE10_Outline" class="cls-7" points="194.1144 403.0718 211.9867 403.0718 211.9867 398.5612 214.1995 399.7952 235.1782 399.7952 235.1782 398.9016 237.6037 398.9016 237.6037 402.8165 244.9229 402.8165 244.9229 411.7952 237.4761 411.7952 237.4761 418.1303 232.9229 418.1303 232.9229 419.625 213.4601 419.625 213.4601 425.1569 209.3059 425.1569 209.3059 424.1942 201.9707 424.1942 201.9707 424.9867 198.1995 424.9867 198.1995 421.8803 194.1144 421.8803 194.1144 419.7101 196.0718 419.7101 196.0718 405.3697 194.1144 405.3697 194.1144 403.0718"/>
        <polygon id="SE10_Roof" class="cls-6" points="194.1144 403.0718 211.9867 403.0718 211.9867 398.5612 214.1995 399.7952 235.1782 399.7952 235.1782 398.9016 237.6037 398.9016 237.6037 402.8165 244.9229 402.8165 244.9229 411.7952 237.4761 411.7952 237.4761 418.1303 232.9229 418.1303 232.9229 419.625 213.4601 419.625 213.4601 425.1569 209.3059 425.1569 209.3059 424.1942 201.9707 424.1942 201.9707 424.9867 198.1995 424.9867 198.1995 421.8803 194.1144 421.8803 194.1144 419.7101 196.0718 419.7101 196.0718 405.3697 194.1144 405.3697 194.1144 403.0718"/>
      </g>
      <g id="SE14">
        <path id="SE14_Outline" class="cls-7" d="M177.2288,421.9229h4.5877v-1.3327h4.2128v1.3327h12.1702v9.3564h42.7234v2.3457h4s-.0851,6.2979,0,6.2979-4.2979,0-4.2979,0v12.5106h-48.1702v3.4468h-7.1489v-14.4773h1.7021v-3.1678h-5.3191v-1.0358h-4.4601v-15.2766Z"/>
        <path id="SE14_Roof" class="cls-6" d="M177.2288,421.9229h4.5877v-1.3327h4.2128v1.3327h12.1702v9.3564h42.7234v2.3457h4s-.0851,6.2979,0,6.2979-4.2979,0-4.2979,0v12.5106h-48.1702v3.4468h-7.1489v-14.4773h1.7021v-3.1678h-5.3191v-1.0358h-4.4601v-15.2766Z"/>
      </g>
      <g id="SE09">
        <polygon id="SE09_Outline" class="cls-7" points="176.2101 359.776 176.2101 357.7899 179.3165 357.7899 179.3165 359.5771 187.8697 359.5771 187.8697 366.4722 183.2739 366.4722 183.2739 367.536 177.2288 367.536 177.2288 359.776 176.2101 359.776"/>
        <polygon id="SE09_Roof" class="cls-6" points="176.2101 359.776 176.2101 357.7899 179.3165 357.7899 179.3165 359.5771 187.8697 359.5771 187.8697 366.4722 183.2739 366.4722 183.2739 367.536 177.2288 367.536 177.2288 359.776 176.2101 359.776"/>
      </g>
      <g id="SE08">
        <polygon id="SE08_Outline" class="cls-7" points="162.2288 356.0978 192.0749 356.0978 192.0749 322.3106 184.3303 322.3106 184.3303 311.1616 173.1813 311.1616 173.1813 322.1403 162.2288 322.1403 162.2288 356.0978"/>
        <polygon id="SE08_Roof" class="cls-6" points="162.2288 356.0978 192.0749 356.0978 192.0749 322.3106 184.3303 322.3106 184.3303 311.1616 173.1813 311.1616 173.1813 322.1403 162.2288 322.1403 162.2288 356.0978"/>
      </g>
      <g id="SE06">
        <polygon id="SE06_Outline" class="cls-7" points="198.2239 314.9595 198.2239 319.268 198.8622 319.268 198.8622 328.0765 198.2239 328.0765 198.2239 334.3318 203.0705 337.4595 211.8835 337.4595 211.8835 333.1191 260.5856 333.1191 260.5856 325.3318 262.7558 325.3318 262.7558 322.9701 260.5856 322.9701 260.5856 314.9595 198.2239 314.9595"/>
        <polygon id="SE06_Roof" class="cls-6" points="198.2239 314.9595 198.2239 319.268 198.8622 319.268 198.8622 328.0765 198.2239 328.0765 198.2239 334.3318 203.0705 337.4595 211.8835 337.4595 211.8835 333.1191 260.5856 333.1191 260.5856 325.3318 262.7558 325.3318 262.7558 322.9701 260.5856 322.9701 260.5856 314.9595 198.2239 314.9595"/>
      </g>
      <g id="SE22">
        <path id="SE22_Outline" class="cls-7" d="M217.926,314.9595v-6.7766h6.3404v-23.8723h-1.2766v-14.9787h-11.5745v1.1915h-3.8298v-3.1064h-5.8723v-.9362h-16.1277v-3.4894h-10.2128l-1.5957,1.6596-1.2766-2.8723h-14.5532v4.2128l-1.4681,2.1064v15.5745l.6383.6383v20.2979h15.4225v-5.0418c0-1.4688,2.2158-1.617,2.2158,0l8.0851-.0646v4.9787h18.8298v3.383h6.4468v7.0957h9.8085Z"/>
        <path id="SE22_Roof" class="cls-6" d="M217.926,314.9595v-6.7766h6.3404v-23.8723h-1.2766v-14.9787h-11.5745v1.1915h-3.8298v-3.1064h-5.8723v-.9362h-16.1277v-3.4894h-10.2128l-1.5957,1.6596-1.2766-2.8723h-14.5532v4.2128l-1.4681,2.1064v15.5745l.6383.6383v20.2979h15.4225v-5.0418c0-1.4688,2.2158-1.617,2.2158,0l8.0851-.0646v4.9787h18.8298v3.383h6.4468v7.0957h9.8085Z"/>
      </g>
      <g id="SE04">
        <path id="SE04_Outline" class="cls-7" d="M258.0111,276.9702v-4.7872h-8.2979v4.7872h-15.3192l-.6383,25.4681h13.1489v-2.0426h4.2128v5.8085h4.6962v-9.6476c0-1.1105.6815-1.9262,1.7919-1.9262h3.2778v-17.6602h-2.8723ZM251.9473,294.268h-5.1064v-9.8936h5.1064v9.8936Z"/>
        <path id="SE04_Roof" class="cls-6" d="M258.0111,276.9702v-4.7872h-8.2979v4.7872h-15.3192l-.6383,25.4681h13.1489v-2.0426h4.2128v5.8085h4.6962v-9.6476c0-1.1105.6815-1.9262,1.7919-1.9262h3.2778v-17.6602h-2.8723ZM251.9473,294.268h-5.1064v-9.8936h5.1064v9.8936Z"/>
      </g>
      <g id="SE01">
        <polygon id="SE01_Outline" class="cls-7" points="280.9047 276.3106 287.2026 282.6084 284.5643 285.2467 286.4792 287.1616 294.2664 279.3744 296.0537 279.3744 296.0537 258.0978 303.2026 258.0978 307.0749 261.9701 307.0749 263.3744 309.8409 263.3744 309.8409 279.1191 311.688 279.1191 311.688 294.8637 315.543 294.8637 315.543 355.4176 303.6281 355.4176 303.6281 351.2042 301.5856 351.2042 298.6707 348.2893 298.6707 346.0978 292.9898 346.0978 292.9898 316.9914 290.3515 316.9914 290.3515 311.9701 283.8835 311.9701 283.8835 308.7361 283.0346 308.7361 283.0346 302.0127 281.6987 300.6768 278.0962 300.6768 278.0962 295.5446 275.2452 292.6935 280.1813 287.7574 277.4154 284.9914 280.1813 282.2254 277.543 279.5871 280.9047 276.3106"/>
        <polygon id="SE01_Roof" class="cls-6" points="280.9047 276.3106 287.2026 282.6084 284.5643 285.2467 286.4792 287.1616 294.2664 279.3744 296.0537 279.3744 296.0537 258.0978 303.2026 258.0978 307.0749 261.9701 307.0749 263.3744 309.8409 263.3744 309.8409 279.1191 311.688 279.1191 311.688 294.8637 315.543 294.8637 315.543 355.4176 303.6281 355.4176 303.6281 351.2042 301.5856 351.2042 298.6707 348.2893 298.6707 346.0978 292.9898 346.0978 292.9898 316.9914 290.3515 316.9914 290.3515 311.9701 283.8835 311.9701 283.8835 308.7361 283.0346 308.7361 283.0346 302.0127 281.6987 300.6768 278.0962 300.6768 278.0962 295.5446 275.2452 292.6935 280.1813 287.7574 277.4154 284.9914 280.1813 282.2254 277.543 279.5871 280.9047 276.3106"/>
      </g>
      <g id="SE19">
        <polygon id="SE19_Outline" class="cls-7" points="317.4579 465.0978 317.4579 469.6723 320.5217 469.6723 320.5217 492.1403 319.7558 492.1403 319.7558 498.0127 327.0749 498.0127 327.0749 496.9914 337.8633 496.9914 337.8633 493.0765 339.004 493.0765 339.004 491.3744 337.8633 491.3744 337.8633 488.5659 339.004 488.5659 339.004 486.8637 337.8633 486.8637 337.8633 483.7148 339.004 483.7148 339.004 482.0978 337.8633 482.0978 337.8633 479.3744 339.004 479.3744 339.004 477.8425 337.8633 477.8425 337.8633 474.7786 339.004 474.7786 339.004 473.6723 337.8633 473.6723 337.8633 470.6935 339.004 470.6935 339.004 469.2467 337.8633 469.2467 337.8633 465.0978 334.4792 465.0978 334.4792 461.6723 329.8835 461.6723 329.8835 462.6935 325.7983 462.6935 325.7983 465.0978 317.4579 465.0978"/>
        <polygon id="SE19_Roof" class="cls-6" points="317.4579 465.0978 317.4579 469.6723 320.5217 469.6723 320.5217 492.1403 319.7558 492.1403 319.7558 498.0127 327.0749 498.0127 327.0749 496.9914 337.8633 496.9914 337.8633 493.0765 339.004 493.0765 339.004 491.3744 337.8633 491.3744 337.8633 488.5659 339.004 488.5659 339.004 486.8637 337.8633 486.8637 337.8633 483.7148 339.004 483.7148 339.004 482.0978 337.8633 482.0978 337.8633 479.3744 339.004 479.3744 339.004 477.8425 337.8633 477.8425 337.8633 474.7786 339.004 474.7786 339.004 473.6723 337.8633 473.6723 337.8633 470.6935 339.004 470.6935 339.004 469.2467 337.8633 469.2467 337.8633 465.0978 334.4792 465.0978 334.4792 461.6723 329.8835 461.6723 329.8835 462.6935 325.7983 462.6935 325.7983 465.0978 317.4579 465.0978"/>
      </g>
      <g id="SE16">
        <polygon id="SE16_Outline" class="cls-4" points="183.8378 468.7846 206.8059 468.7846 206.8059 478.2314 212.2527 483.6782 212.2527 486.9973 219.0612 486.9973 219.0612 484.9548 223.5718 484.9548 223.5718 487.6782 246.9761 487.6782 246.9761 493.891 246.0399 493.891 246.0399 502.4016 230.4654 502.4016 230.4654 505.0399 228.508 505.0399 228.508 521.4654 213.359 521.4654 213.359 514.9973 203.5718 514.9973 203.5718 531.0825 194.9761 531.0825 194.9761 535.5931 187.0612 535.5931 187.0612 529.2101 183.4867 529.2101 183.4867 527.5931 176.5931 527.5931 176.5931 513.4654 174.3803 513.4654 174.3803 502.1888 171.4867 502.1888 171.4867 492.4442 175.0612 492.4442 175.0612 484.1037 174.0399 484.1037 174.0399 474.3165 177.2739 474.3165 177.2739 471.4229 183.8378 471.4229 183.8378 468.7846"/>
        <polygon id="SE16_Roof" class="cls-6" points="183.8378 468.7846 206.8059 468.7846 206.8059 478.2314 212.2527 483.6782 212.2527 486.9973 219.0612 486.9973 219.0612 484.9548 223.5718 484.9548 223.5718 487.6782 246.9761 487.6782 246.9761 493.891 246.0399 493.891 246.0399 502.4016 230.4654 502.4016 230.4654 505.0399 228.508 505.0399 228.508 521.4654 213.359 521.4654 213.359 514.9973 203.5718 514.9973 203.5718 531.0825 194.9761 531.0825 194.9761 535.5931 187.0612 535.5931 187.0612 529.2101 183.4867 529.2101 183.4867 527.5931 176.5931 527.5931 176.5931 513.4654 174.3803 513.4654 174.3803 502.1888 171.4867 502.1888 171.4867 492.4442 175.0612 492.4442 175.0612 484.1037 174.0399 484.1037 174.0399 474.3165 177.2739 474.3165 177.2739 471.4229 183.8378 471.4229 183.8378 468.7846"/>
      </g>
      <g id="SE30">
        <rect id="SE30_Outline" class="cls-4" x="311.1037" y="687.2527" width="21.1489" height="33.7021"/>
        <rect id="SE30_Roof" class="cls-6" x="311.1037" y="687.2527" width="21.1489" height="33.7021"/>
      </g>
      <g id="SE41">
        <path id="SE41_Outline" class="cls-4" d="M271.2739,905.891v2.2128h-1.8723v6.2979l2.383,2.383c3.3617,1.4468,17.0638,2.6383,19.4894,0h2.7234c2.0426,1.5632,11.9149,1.5632,13.4468,0v-9.8723l-3.3191-1.0213h-32.8511Z"/>
        <path id="SE41_Roof" class="cls-6" d="M271.2739,905.891v2.2128h-1.8723v6.2979l2.383,2.383c3.3617,1.4468,17.0638,2.6383,19.4894,0h2.7234c2.0426,1.5632,11.9149,1.5632,13.4468,0v-9.8723l-3.3191-1.0213h-32.8511Z"/>
      </g>
      <g id="SE42">
        <polygon id="SE42_Outline" class="cls-4" points="267.0159 925.125 277.8271 925.125 277.8271 927.1676 278.7633 927.1676 278.7633 936.8697 277.4867 936.8697 277.4867 941.7208 279.0612 943.2952 280.1463 942.2101 282.7633 944.8271 281.6782 945.9122 283.7846 948.0186 288.2527 948.0186 288.2527 947.0825 297.5718 947.0825 299.6144 949.125 299.6144 958.7846 296.7633 958.7846 296.7633 960.4867 286.7207 960.4867 278.5505 958.2739 266.1888 945.9122 266.1888 927.1676 267.0159 925.125"/>
        <polygon id="SE42_Roof" class="cls-6" points="267.0159 925.125 277.8271 925.125 277.8271 927.1676 278.7633 927.1676 278.7633 936.8697 277.4867 936.8697 277.4867 941.7208 279.0612 943.2952 280.1463 942.2101 282.7633 944.8271 281.6782 945.9122 283.7846 948.0186 288.2527 948.0186 288.2527 947.0825 297.5718 947.0825 299.6144 949.125 299.6144 958.7846 296.7633 958.7846 296.7633 960.4867 286.7207 960.4867 278.5505 958.2739 266.1888 945.9122 266.1888 927.1676 267.0159 925.125"/>
      </g>
      <g id="SE40">
        <polygon id="SE40_Outline" class="cls-4" points="303.8271 937.6782 303.8271 941.6782 305.5293 941.6782 305.5293 946.8697 313.1888 946.8697 313.1888 949.0825 327.9973 949.0825 327.9973 948.0612 332.9335 948.0612 332.9335 944.2314 334.0168 944.2314 334.0168 937.6782 334.0168 934.8697 332.5931 934.8697 332.5931 931.7208 328.1676 931.7208 328.1676 930.3591 313.359 930.3591 310.8059 932.9122 305.4442 932.9122 305.4442 937.5931 303.8271 937.6782"/>
        <polygon id="SE40_Roof" class="cls-6" points="303.8271 937.6782 303.8271 941.6782 305.5293 941.6782 305.5293 946.8697 313.1888 946.8697 313.1888 949.0825 327.9973 949.0825 327.9973 948.0612 332.9335 948.0612 332.9335 944.2314 334.0168 944.2314 334.0168 937.6782 334.0168 934.8697 332.5931 934.8697 332.5931 931.7208 328.1676 931.7208 328.1676 930.3591 313.359 930.3591 310.8059 932.9122 305.4442 932.9122 305.4442 937.5931 303.8271 937.6782"/>
      </g>
      <g id="SE50">
        <polygon id="SE50_Outline" class="cls-4" points="291.9973 977.6782 291.9973 1002.9548 288.4016 1002.9548 288.4016 1012.8807 292.4652 1016.9443 292.4652 1025.6676 309.1676 1025.6676 309.1676 1011.8059 311.3803 1011.8059 311.3803 1017.4229 315.891 1017.4229 315.891 1019.891 320.6569 1019.891 320.6569 1017.2527 325.2527 1017.2527 325.2527 1011.9761 328.1463 1011.9761 328.1463 986.9109 308.2739 986.9109 308.2739 977.6782 291.9973 977.6782"/>
        <polygon id="SE50_Roof" class="cls-6" points="291.9973 977.6782 291.9973 1002.9548 288.4016 1002.9548 288.4016 1012.8807 292.4652 1016.9443 292.4652 1025.6676 309.1676 1025.6676 309.1676 1011.8059 311.3803 1011.8059 311.3803 1017.4229 315.891 1017.4229 315.891 1019.891 320.6569 1019.891 320.6569 1017.2527 325.2527 1017.2527 325.2527 1011.9761 328.1463 1011.9761 328.1463 986.9109 308.2739 986.9109 308.2739 977.6782 291.9973 977.6782"/>
      </g>
    </g>
    <g id="NW">
      <g id="NW04">
        <polygon id="NW04_Outline" class="cls-7" points="95.8644 244.3165 95.8644 200.3165 59.5239 200.3165 59.5239 202.6144 56.7154 202.6144 56.7154 224.5718 59.609 224.5718 59.609 227.7208 54.6729 227.7208 54.6729 244.3165 95.8644 244.3165"/>
        <polygon id="NW04_Roof" class="cls-6" points="95.8644 244.3165 95.8644 200.3165 59.5239 200.3165 59.5239 202.6144 56.7154 202.6144 56.7154 224.5718 59.609 224.5718 59.609 227.7208 54.6729 227.7208 54.6729 244.3165 95.8644 244.3165"/>
      </g>
      <g id="NW01">
        <polygon id="NW01_Outline" class="cls-7" points="60.9707 182.0186 60.9707 190.1463 85.2261 190.1463 85.2261 182.0186 83.8218 182.0186 83.8218 159.125 85.2261 159.125 85.2261 151.7208 60.9707 151.7208 60.9707 159.125 72.5878 159.125 72.5878 162.6995 60.9707 162.6995 60.9707 177.7633 72.4814 177.7633 72.4814 182.0186 60.9707 182.0186"/>
        <polygon id="NW01_Roof" class="cls-6" points="60.9707 182.0186 60.9707 190.1463 85.2261 190.1463 85.2261 182.0186 83.8218 182.0186 83.8218 159.125 85.2261 159.125 85.2261 151.7208 60.9707 151.7208 60.9707 159.125 72.5878 159.125 72.5878 162.6995 60.9707 162.6995 60.9707 177.7633 72.4814 177.7633 72.4814 182.0186 60.9707 182.0186"/>
      </g>
      <g id="NW03">
        <polygon id="NW03_Outline" class="cls-7" points="93.8431 115.2101 105.0771 115.2101 105.0771 117.5931 133.2154 117.5931 133.2154 142.9548 105.4176 142.9548 105.4176 145.3378 93.8431 145.3378 93.8431 115.2101"/>
        <polygon id="NW03_Roof" class="cls-6" points="93.8431 115.2101 105.0771 115.2101 105.0771 117.5931 133.2154 117.5931 133.2154 142.9548 105.4176 142.9548 105.4176 145.3378 93.8431 145.3378 93.8431 115.2101"/>
      </g>
      <g id="NW05">
        <path id="NW05_Outline" class="cls-7" d="M117.758,183.5931v4.8511h2.5532v7.6702c1.734-.7447,9.8404-1.9787,9.9574.5h5.1064v-1.9574h-.7195v-4.5532c0-1.3317.4277-2.6356,1.145-3.7575l1.2766-2.7531h-19.3191Z"/>
        <path id="NW05_Roof" class="cls-6" d="M117.758,183.5931v4.8511h2.5532v7.6702c1.734-.7447,9.8404-1.9787,9.9574.5h5.1064v-1.9574h-.7195v-4.5532c0-1.3317.4277-2.6356,1.145-3.7575l1.2766-2.7531h-19.3191Z"/>
      </g>
      <g id="NW06">
        <polygon id="NW06_Outline" class="cls-7" points="107.7154 202.9335 137.5878 202.9335 137.5878 214.4229 135.5452 214.4229 135.5452 234.7846 137.5878 234.7846 137.5878 246.3803 107.7154 246.3803 107.7154 234.7846 110.1082 234.7846 110.1082 214.4229 107.7154 214.4229 107.7154 202.9335"/>
        <polygon id="NW06_Roof" class="cls-6" points="107.7154 202.9335 137.5878 202.9335 137.5878 214.4229 135.5452 214.4229 135.5452 234.7846 137.5878 234.7846 137.5878 246.3803 107.7154 246.3803 107.7154 234.7846 110.1082 234.7846 110.1082 214.4229 107.7154 214.4229 107.7154 202.9335"/>
      </g>
    </g>
    <g id="NE">
      <g id="NE22">
        <polygon id="NE22_Outline" class="cls-7" points="154.141 199.9973 156.8644 199.9973 156.8644 202.0399 173.5452 202.0399 173.5452 199.9973 176.2686 199.9973 176.2686 187.9973 154.141 187.9973 154.141 199.9973"/>
        <polygon id="NE22_Roof" class="cls-6" points="154.141 199.9973 156.8644 199.9973 156.8644 202.0399 173.5452 202.0399 173.5452 199.9973 176.2686 199.9973 176.2686 187.9973 154.141 187.9973 154.141 199.9973"/>
      </g>
      <g id="NE24">
        <rect id="NE24_Outline" class="cls-7" x="181.2899" y="187.4016" width="24.766" height="14.6383"/>
        <rect id="NE24_Roof" class="cls-6" x="181.2899" y="187.4016" width="24.766" height="14.6383"/>
      </g>
      <g id="NE23">
        <rect id="NE23_Outline" class="cls-7" x="181.2899" y="150.7846" width="24.766" height="14.4894"/>
        <rect id="NE23_Outline-2" data-name="NE23_Outline" class="cls-6" x="181.2899" y="150.7846" width="24.766" height="14.4894"/>
      </g>
      <g id="NE08">
        <polygon id="NE08_Outline" class="cls-7" points="281.0027 140.6144 286.2367 140.6144 286.2367 149.9973 302.5771 149.9973 302.5771 148.6569 308.0665 148.6569 308.0665 106.5931 285.4707 106.5931 285.4707 109.7846 283.6197 109.7846 283.6197 108.6995 281.0027 108.6995 281.0027 140.6144"/>
        <polygon id="NE08_Roof" class="cls-6" points="281.0027 140.6144 286.2367 140.6144 286.2367 149.9973 302.5771 149.9973 302.5771 148.6569 308.0665 148.6569 308.0665 106.5931 285.4707 106.5931 285.4707 109.7846 283.6197 109.7846 283.6197 108.6995 281.0027 108.6995 281.0027 140.6144"/>
      </g>
      <g id="NE25">
        <path id="NE25_Outline" class="cls-7" d="M219.9176,164.7431h-3.6297c-1.3613-.2212-2.3774-1.3723-2.4279-2.7505v-9.3995c.0323-.8444,1.4084-2.0457,2.1823-1.7066l1.8032,1.004c.55.1546,1.1394.0762,1.6299-.2167l.6336-.8892h23.8085v4.234h2.5532v4.5957h-2.2979v8.234h-24.2553v-3.1053Z"/>
        <path id="NE25_Roof" class="cls-6" d="M219.9176,164.7431h-3.6297c-1.3613-.2212-2.3774-1.3723-2.4279-2.7505v-9.3995c.0323-.8444,1.4084-2.0457,2.1823-1.7066l1.8032,1.004c.55.1546,1.1394.0762,1.6299-.2167l.6336-.8892h23.8085v4.234h2.5532v4.5957h-2.2979v8.234h-24.2553v-3.1053Z"/>
      </g>
      <g id="NE20">
        <polygon id="NE20_Outline" class="cls-7" points="151.4814 246.3803 157.5346 246.3803 157.5346 245.508 182.8537 245.508 182.8537 235.5931 195.9176 235.5931 195.9176 220.4867 182.6197 220.4867 182.6197 209.508 157.7686 209.508 157.7686 214.2739 149.8537 214.2739 149.8537 231.6356 158.0239 231.6356 158.0239 239.2101 151.4814 239.2101 151.4814 246.3803"/>
        <polygon id="NE20_Roof" class="cls-6" points="151.4814 246.3803 157.5346 246.3803 157.5346 245.508 182.8537 245.508 182.8537 235.5931 195.9176 235.5931 195.9176 220.4867 182.6197 220.4867 182.6197 209.508 157.7686 209.508 157.7686 214.2739 149.8537 214.2739 149.8537 231.6356 158.0239 231.6356 158.0239 239.2101 151.4814 239.2101 151.4814 246.3803"/>
      </g>
      <g id="NE18">
        <polygon id="NE18_Outline" class="cls-7" points="198.3644 220.5718 205.3431 220.5718 205.3431 209.508 234.7048 209.508 234.7048 238.2739 229.7686 238.2739 229.7686 245.6782 198.3644 245.6782 198.3644 220.5718"/>
        <polygon id="NE18_Roof" class="cls-6" points="198.3644 220.5718 205.3431 220.5718 205.3431 209.508 234.7048 209.508 234.7048 238.2739 229.7686 238.2739 229.7686 245.6782 198.3644 245.6782 198.3644 220.5718"/>
      </g>
      <g id="NE16">
        <path id="NE16_Outline" class="cls-7" d="M242.8963,210.7952v11.7128h1.117v17.4894h2.3298v6.2553h37.7872l5.2021-3.5745v-28.5319l-11.0106.1277v-1.2128h-18.9574v-2.266h-6.6702v2.8404c-.3387.8145-2.2647.8725-2.617.0638v-2.9043h-7.1809Z"/>
        <path id="NE16_Roof" class="cls-6" d="M242.8963,210.7952v11.7128h1.117v17.4894h2.3298v6.2553h37.7872l5.2021-3.5745v-28.5319l-11.0106.1277v-1.2128h-18.9574v-2.266h-6.6702v2.8404c-.3387.8145-2.2647.8725-2.617.0638v-2.9043h-7.1809Z"/>
      </g>
      <g id="NE10">
        <polygon id="NE10_Outline" class="cls-7" points="320.5984 151.6569 351.0452 151.6569 351.0452 147.3165 352.0452 147.3165 352.0452 113.6144 351.0452 113.6144 351.0452 107.6144 320.5984 107.6144 320.5984 114.508 319.6197 114.508 319.6197 121.7846 315.1516 121.7846 315.1516 139.4016 319.7048 139.4016 319.7048 146.9548 320.5984 146.9548 320.5984 151.6569"/>
        <polygon id="NE10_Roof" class="cls-6" points="320.5984 151.6569 351.0452 151.6569 351.0452 147.3165 352.0452 147.3165 352.0452 113.6144 351.0452 113.6144 351.0452 107.6144 320.5984 107.6144 320.5984 114.508 319.6197 114.508 319.6197 121.7846 315.1516 121.7846 315.1516 139.4016 319.7048 139.4016 319.7048 146.9548 320.5984 146.9548 320.5984 151.6569"/>
      </g>
      <g id="NE01">
        <polygon id="NE01_Outline" class="cls-7" points="168.1729 87.4335 168.1729 56.0612 165.0452 54.2739 165.0452 44.891 167.8537 44.891 167.8537 37.5505 200.8537 37.5505 200.8537 36.1463 204.875 36.1463 204.875 37.3591 234.1729 37.3591 234.1729 45.8484 238.0665 45.8484 238.0665 44.125 248.4707 44.125 248.4707 52.6144 241.1303 52.6144 241.1303 54.0186 236.7952 54.0186 236.7952 54.742 233.7899 54.742 233.7899 87.4335 168.1729 87.4335"/>
        <polygon id="NE01_Roof" class="cls-6" points="168.1729 87.4335 168.1729 56.0612 165.0452 54.2739 165.0452 44.891 167.8537 44.891 167.8537 37.5505 200.8537 37.5505 200.8537 36.1463 204.875 36.1463 204.875 37.3591 234.1729 37.3591 234.1729 45.8484 238.0665 45.8484 238.0665 44.125 248.4707 44.125 248.4707 52.6144 241.1303 52.6144 241.1303 54.0186 236.7952 54.0186 236.7952 54.742 233.7899 54.742 233.7899 87.4335 168.1729 87.4335"/>
      </g>
      <g id="NE02">
        <polygon id="NE02_Outline" class="cls-7" points="155.6197 142.8218 155.6197 146.625 165.4495 146.625 165.4495 142.6037 182.7473 142.6037 182.7473 136.9548 181.2899 136.9548 181.2899 106.5931 158.0452 106.5931 158.0452 142.8218 155.6197 142.8218"/>
        <polygon id="NE02_Outline-2" data-name="NE02_Outline" class="cls-6" points="155.6197 142.8218 155.6197 146.625 165.4495 146.625 165.4495 142.6037 182.7473 142.6037 182.7473 136.9548 181.2899 136.9548 181.2899 106.5931 158.0452 106.5931 158.0452 142.8218 155.6197 142.8218"/>
      </g>
      <g id="NE04">
        <polygon id="NE04_Outline" class="cls-7" points="205.2872 142.8218 205.2154 106.5931 236.5771 106.5931 236.5771 122.0825 229.4282 122.0825 229.4282 142.8218 205.2872 142.8218"/>
        <polygon id="NE04_Roof" class="cls-6" points="205.2872 142.8218 205.2154 106.5931 236.5771 106.5931 236.5771 122.0825 229.4282 122.0825 229.4282 142.8218 205.2872 142.8218"/>
      </g>
      <g id="NE28">
        <rect id="NE28_Outline" class="cls-7" x="245.5346" y="187.4016" width="25.0213" height="14.6383"/>
        <rect id="NE28_Roof" class="cls-6" x="245.5346" y="187.4016" width="25.0213" height="14.6383"/>
      </g>
      <g id="NE12">
        <polygon id="NE12_Outline" class="cls-7" points="310.1942 190.7208 310.1942 196.8484 320.9176 196.8484 320.9176 195.0612 351.0452 195.0612 351.0452 158.5505 320.5984 158.5505 320.5984 159.8271 317.5984 159.8271 317.5984 175.5931 320.5346 175.5931 320.5346 181.6569 317.6622 181.6569 317.6622 190.7208 310.1942 190.7208"/>
        <polygon id="NE12_Roof" class="cls-6" points="310.1942 190.7208 310.1942 196.8484 320.9176 196.8484 320.9176 195.0612 351.0452 195.0612 351.0452 158.5505 320.5984 158.5505 320.5984 159.8271 317.5984 159.8271 317.5984 175.5931 320.5346 175.5931 320.5346 181.6569 317.6622 181.6569 317.6622 190.7208 310.1942 190.7208"/>
      </g>
      <g id="NE06">
        <polygon id="NE06_Outline" class="cls-7" points="253.5133 106.5931 253.5133 116.508 243.3005 116.508 243.3005 123.9122 253.5133 123.9122 253.5133 144.4229 276.5771 144.4229 276.5771 106.5931 253.5133 106.5931"/>
        <polygon id="NE06_Roof" class="cls-6" points="253.5133 106.5931 253.5133 116.508 243.3005 116.508 243.3005 123.9122 253.5133 123.9122 253.5133 144.4229 276.5771 144.4229 276.5771 106.5931 253.5133 106.5931"/>
      </g>
      <g id="NE3">
        <path id="NE3_Outline_N" class="cls-7" d="M261.609,94.0931v-3.0638h-3.8298v-5.8723h-3.6596s.6809-10.0426,3.8298-10.0426h10.7234c2.234-.2128,4.6809,6.6383,4.6809,6.6383h-1.7021v2.8511h-5.9574v9.4894h-4.0851Z"/>
        <path id="NE3_Roof_N" class="cls-6" d="M261.609,94.0931v-3.0638h-3.8298v-5.8723h-3.6596s.6809-10.0426,3.8298-10.0426h10.7234c2.234-.2128,4.6809,6.6383,4.6809,6.6383h-1.7021v2.8511h-5.9574v9.4894h-4.0851Z"/>
        <polygon id="NE3_Outline_S" class="cls-7" points="247.8218 96.9867 255.7367 96.9867 255.7367 86.7739 253.2686 86.7739 253.2686 86.008 249.1835 86.008 249.1835 90.6888 247.8218 90.6888 247.8218 96.9867"/>
        <polygon id="NE3_Roof_S" class="cls-6" points="247.8218 96.9867 255.7367 96.9867 255.7367 86.7739 253.2686 86.7739 253.2686 86.008 249.1835 86.008 249.1835 90.6888 247.8218 90.6888 247.8218 96.9867"/>
      </g>
      <g id="NE9">
        <polygon id="NE9_Outline" class="cls-7" points="343.2473 38.7314 343.2473 43.7527 344.609 43.7527 344.609 49.0293 342.8644 50.7739 332.2686 50.7739 332.2686 71.9229 342.9069 71.9229 342.9069 86.6463 311.6729 86.6463 311.6729 79.5825 310.141 79.5825 310.141 44.8591 312.0984 44.8591 312.0984 38.7314 343.2473 38.7314"/>
        <polygon id="NE9_Roof" class="cls-6" points="343.2473 38.7314 343.2473 43.7527 344.609 43.7527 344.609 49.0293 342.8644 50.7739 332.2686 50.7739 332.2686 71.9229 342.9069 71.9229 342.9069 86.6463 311.6729 86.6463 311.6729 79.5825 310.141 79.5825 310.141 44.8591 312.0984 44.8591 312.0984 38.7314 343.2473 38.7314"/>
      </g>
      <g id="NE7">
        <rect id="NE7_Outline" class="cls-7" x="309.6144" y="90.9442" width="38.1011" height="6.5691"/>
        <rect id="NE7_Roof" class="cls-6" x="309.6144" y="90.9442" width="38.1011" height="6.5691"/>
      </g>
    </g>
    <g id="Extras">
      <polygon id="Extra01_Roof" class="cls-6" points="205.2872 136.9761 205.1729 107.1463 181.2899 106.5931 181.2899 136.9761 183.8378 136.9761 183.8378 139.9548 190.7048 139.9548 190.7048 136.9761 205.2872 136.9761"/>
      <rect id="Extra02_Roof" class="cls-6" x="232.6622" y="128.9335" width="10.0426" height="6.1277"/>
      <polygon id="Extra03_Roof" class="cls-6" points="230.6197 135.0612 240.4069 135.0612 240.3218 142.0399 230.5346 142.0399 230.6197 135.0612"/>
      <rect id="Extra04_Roof" class="cls-6" x="249.0239" y="150.7846" width="5.2979" height="7.5532"/>
      <rect id="Extra05_Roof" class="cls-6" x="114.8537" y="146.625" width="10.2128" height="18.0957"/>
      <rect id="Extra06_Roof" class="cls-6" x="107.6197" y="149.5718" width="4.4255" height="15.1489"/>
      <polygon id="ICBC" class="cls-2" points="293.5718 820.2314 299.7633 820.2314 305.4442 825.8484 320.508 825.8484 326.125 820.2314 332.0002 820.2314 331.773 866.0607 321.2739 866.0607 321.2739 869.9548 325.6144 874.2952 325.6144 880.3803 300.1463 880.3803 300.1463 874.4229 304.4548 870.1144 304.4548 866.0607 293.5718 866.0607 293.5718 820.2314"/>
    </g>
  </g>
</svg>