<?xml version="1.0" encoding="UTF-8"?>
<svg id="Layer_2" data-name="Layer 2" xmlns="http://www.w3.org/2000/svg" viewBox="0 0 405.35 1099.8">
  <defs>
    <style>
      .cls-1 {
        fill: none;
        stroke: #000;
        stroke-miterlimit: 10;
      }
    </style>
  </defs>
  <g id="VectorTrace">
      <path class="cls-1" d="M1.99,130c5.21.79,18.46-1.83,21.5,1.5.9,95.8.71,191.67,0,287.5-.17,24-.37,48-.49,72,.55,32.13-4.42,66.07,12.84,95.08,9.64,16.97,18.75,34.3,26.93,52.02,10.36,22.08,14.23,47.07,15.31,71.4,2.45,53.15,1.75,106.31.91,159.5.55,55.71-2.65,111.37-3.07,167,1.05,11.19-6.38,38.88,2.07,45"/>
      <path class="cls-1" d="M33.74,258c-2.08,66.76-.34,133.69.21,200.5,3.09,39.63-8.35,82.71,9.9,119.58,16.76,32.01,34.62,64.22,40.23,100.41,8,56.72,2.33,114.4,3.92,171.52.43,74.87-.9,149.73-5,224.5"/>
      <path class="cls-1" d="M404.49,1094c-16.42-2.44-32.98-3.5-49.5-5.04-69.15-.66-122.3-45.96-176.63-82.77-30.42-17.27-65.82-27.5-100.88-28.7"/>
      <path class="cls-1" d="M285.49,679.5c-11.54,34.6-1.28,70.66-6.32,106.04-3.61,31.51-9.71,62.95-13.07,94.46-.41,30.16-.2,60.34.44,90.5.3,10.51-1.96,20.03-8.47,28.56-3.15,4.13-5.81,8.76-7.98,13.48-9.45,13.84-22.53-6.88-33.1-9.05"/>
      <path class="cls-1" d="M111.99,728c14.89-.66,14.59,1.77,14.34,13,1.11,70.97.78,142.07-.84,213"/>
      <path class="cls-1" d="M1.99,5c134.14-1.9,268.28-1.89,402.5-2v2.5"/>
      <path class="cls-1" d="M290.99,197.25c0-14.83-.98-21.35-4.14-26.99-53.12-2.21-107.41,1.81-160.86-1.21-11.65-.7-16.41,9.45-14.97,19.45.67,18.79-.12,37.85,1.47,56.5"/>
      <path class="cls-1" d="M77.99,970.5c68.09-1.31,124.17,41.7,177.99,78.01,31.43,22.14,62.35,30.7,106.77,33.06"/>
      <path class="cls-1" d="M347.24,598c.91,59.52,3.93,119.54.46,179-73.49,1.32-146.73,1.44-220.21,2"/>
      <path class="cls-1" d="M233.49,568c-15.02-1.13-27.72,5.5-35.71,18.35-4.89,6.76-4.66,13.17-3.43,20.67,2.02,12.41,3,25,4.7,37.47,1.58,15.95,4.19,34.24,21.02,40.86,14.51,8.47,32.33,2.85,40.97-11.3,7.01-6.54,6.52-14.6,5.5-23.06-2.01-16.65-3.79-33.32-5.53-50-1.35-16.89-11.62-26.28-26.52-32.5"/>
      <path class="cls-1" d="M318.99,244.25v-33.75c0-7-3.51-10.06-10.5-9.54-5.78.43-11.61.59-16.53-3.32-44.28,2.51-88.64.91-132.97,1.36"/>
      <path class="cls-1" d="M404.49,12c-79.14.33-158.55-4.44-237.5,1.37-43.52,1.07-87.8-3.06-131,1.13"/>
      <path class="cls-1" d="M370.49,918.5h-20.39l-6.06-6.49c-.98-.95-2.26-1.52-3.62-1.61l-16.43-.9"/>
      <path class="cls-1" d="M58.49,271.5c3.5,62.56-.64,126.11.52,189-.08,29.33-.15,58.67.1,88,.05,5.68,1.31,11.15,4.15,16.62,13.52,29.27,27.36,58.72,37.23,89.38"/>
      <path class="cls-1" d="M52.99,95c2.81,38.06-.79,76.4,2.17,114.49,4.33,10.68,4.78,22.01,4.83,33.51"/>
      <path class="cls-1" d="M280.49,516.5c.07,21.84-3.78,43.89.44,65.51,5.11,31.8,1.11,64.68,4.06,96.49"/>
      <path class="cls-1" d="M.99,131.5c-.44,36.93-.89,73.9,2,110.75"/>
      <path class="cls-1" d="M370.49,12c-3.19,81.57.96,163.46-3.15,245,1.19,28.67.63,86,.63,86-.74,16.47-8.02,36.75-8.02,36.75"/>
      <path class="cls-1" d="M262.49,927.5c-2.71,12.95-4.87,25.82-7.99,38.71-10.01,2.02-20.79,3.13-29.92,7.93-5.57,3.2-11.66,3.29-17.59,4.29-6,1.92-16.07-.48-19.99,4.57"/>
      <path class="cls-1" d="M34.49,15c-3.92,25.97,3.08,52.93-.24,78.94-.9,20.34-2.71,40.33-.37,60.56-.94,34.16-1.54,68.44-.49,102.6,7.32,4.49,17.94,5.35,22.1,13.4"/>
      <path class="cls-1" d="M325.99,246c.17,34.67.5,104.8.5,104.8"/>
      <path class="cls-1" d="M159.99,247c.49,33.18.85,66.35,2.5,99.5"/>
      <path class="cls-1" d="M367.49,94c-72.14-1.58-146.43,3.41-217.5-2.5"/>
      <path class="cls-1" d="M171.49,501.5c-.79,23.05,3.66,55.82-27.02,60.37-26.49,3.09-53.34,2.8-79.98,4.13"/>
      <path class="cls-1" d="M121.99,635c.58,7.46,4.42,16.74-6.01,16.97-4.99.89-10.03,1.47-16.21,2.35,11.99,45.72,12.55,92.74,10.29,139.68,1.07,25.97-1.2,52.45,3.89,78,1.19,26.12-2.35,51.41,1.24,77.41,34.4,17.61,70.54,30.44,102.13,53.14-3.1,4.54-5.97,8.75-8.83,12.95"/>
      <path class="cls-1" d="M348.49,505.5c-1.3,30.62-.11,61.21-.5,91.91-18.22,4.01-36.02,3.86-54.5,5.09"/>
      <path class="cls-1" d="M20.49,5c-1.13,41.67,1,83.48,2,125"/>
      <path class="cls-1" d="M27.99,979c-.17,29.17-.33,58.33-.5,87.5"/>
      <path class="cls-1" d="M155.49,614.5c3.17,14,6.54,27.96,9.39,42.02,2.21,16.47.72,33.37,1.11,49.98"/>
      <path class="cls-1" d="M366.49,245c-80.99.02-161.94,1.93-243,.94-40.59.4-80.95-5.77-121.5-3.19"/>
      <path class="cls-1" d="M186.99,779.5c.89,24.33-2.48,48.69-.37,72.63,5.95,3.62,10.45,3.96,15.48-.5,7.72-6.24,16.01-12.53,25.4-16.09,6.42-2.38,9.36-6.55,9.5-13.54.61-14.31.05-28.78,1.48-43"/>
      <path class="cls-1" d="M368.49,46h-18.68c1.08,7.2,12.47,36.38-.32,35.48-18.89-.49-37.72-.96-56.5,1.52"/>
      <path class="cls-1" d="M292.49,579.5c12.38-.36,24.16.25,36.5-2.06-.01-17.34.03-33.77-.01-50.94-.02-4.49-1-5.47-5.49-5.49-8.83-.03-17.67-.03-26.5,0-4.54.02-5.96,1.36-5.98,5.99-1.33,39.21,5.4,134.51,5.4,134.51.14,2.01,2.14,6.42,3.57,7.83l7.16,5.35c1.42,1.16,3.21,1.78,5.04,1.75l49.24-.72"/>
      <path class="cls-1" d="M75.49,1026.5c-14.5,4.9-26.13,14.05-37.49,24.01-4.45,3.6-4.52,9.33-5.2,14.03-.92,12.09-9.92,19.1-16.81,27.96"/>
      <path class="cls-1" d="M1.99,300h6.39c1.53,14.47-.02,28.96.67,43.5,1.04,18.05,1.24,36.11.44,54"/>
      <path class="cls-1" d="M404.49,702.5v-61c-5.78-2.65-11.92-1.49-18-1"/>
      <path class="cls-1" d="M216.49,684.5c-6.02,9.84-7.6,21.15-10.44,32.01-2.99,15.29-8.12,30.28-7.06,45.99"/>
      <path class="cls-1" d="M153.99,94v151.25"/>
      <path class="cls-1" d="M76.99,971H1.99"/>
      <path class="cls-1" d="M286.15,421h62.83l-.48,10.31c-.07,1.49-1.29,2.68-2.78,2.7l-59.53.99"/>
      <path class="cls-1" d="M359.94,379.75s-53.62-.27-79.96-.75"/>
      <path class="cls-1" d="M267.49,496.5c-.55,13.98-12.07,25.38-7.21,39.56,6.68,23.18,9.27,47.78,21.71,68.94"/>
      <path class="cls-1" d="M328.99,602c-1.22,77.14,16.1,60.57-30.5,63"/>
      <path class="cls-1" d="M203.49,1076.5c-40.32-.22-80.34-.67-120.66-1.5-1.47,2.07-3.4,4.78-4.84,6.81v16.19"/>
      <path class="cls-1" d="M352.54,407.5l3.39-12.99s-45.49.29-68.94-1.01"/>
      <path class="cls-1" d="M321.99,791v5.58c-6.13,5.96-11.79,11.47-16.81,16.36.46,16.9.88,32.73,1.31,48.57"/>
      <path class="cls-1" d="M348.99,421l3.55-13.5-53.05-.5-41.7-.14c.47-4.45.88-8.43,1.4-13.36h18.3"/>
      <path class="cls-1" d="M277.49,384c-25.49-.98-50.99-1.91-76.5-1.98-14.67-.27-9.04,18.08-9.5,27.48"/>
      <path class="cls-1" d="M20.49,844.5c-.88,10.5-1.75,20.99-2.64,31.65-7.83,9.16-14.36,19.27-17.36,31.35"/>
      <path class="cls-1" d="M137.99,70.5c4.41,4.41,8.83,8.83,13.46,13.46-.34,3.38-.42,7.35-4.67,9.16-.43,21.39-.86,42.39-1.28,63.39"/>
      <path class="cls-1" d="M304.99,603c.67,20.42,1.33,40.83,2,61.25"/>
      <path class="cls-1" d="M368.99,973.5c-23.92-1.66-48.4-.71-72.5-1.52-4.47-.34-6.93,1.17-8.5,5.52-8.32,10.81-1.98,12.96,3.84,20.84,1.83,9.41-1.67,25.86,11.65,27.74,2.08.31,4.02,1.57,6.01,2.4,1.12,32.32-34.16,11.23-31.56-10.48.63-11.65.76-23.33,1.06-35,.16-6.12,4.08-9.67,9.51-8.5"/>
      <path class="cls-1" d="M369.94,799.39s-8.4-6.01-8.44-6.05c0,0,0-1.36-.02-1.36-17.44-.97-34.88-1.93-52.32-2.9-12.94,0-19.18,4.98-19.18,17.92-.08,25.33.35,50.68-.51,76-.14,5.04,3.9,9.74,9.52,9.92,20.86.84,63.15-1.67,63.15-1.67h0"/>
      <path class="cls-1" d="M404.99,330.23c-10.5,9.32-42.87,57.57-46.1,106.5l-1.32,66.77,3.87,172.22.06,116.91,1.49,125.86-.23,163.07,7.73,2.43v-165.89l-.53-118.35-3.75-295.27.89-68.17c2.43-26.81,14.94-68.81,37.89-93.32"/>
      <path class="cls-1" d="M110.99,717c7.95-1.77,16.53-.18,24.26-3.86-.77-22.32-11.31-10.62-26.26-12.64"/>
      <path class="cls-1" d="M357.99,45.25c1.15-18.7-1.76-16.48-18.5-16.21-18.32,1.96-35.05,1.66-53.69,2.91.74,20.81,1.47,41.05,2.19,61.3"/>
      <path class="cls-1" d="M222.99,779c.33,18.99-.72,38.06.5,57"/>
      <path class="cls-1" d="M9.99,243.5c-.94,18.9,2.08,38.46-1.5,57"/>
      <path class="cls-1" d="M404.49,609.5v-40.5c-5.63-.66-11.31-1.33-17-2"/>
      <path class="cls-1" d="M141.99,992c-19.45,7.85-37.2,19.31-56.5,27.5"/>
      <path class="cls-1" d="M282.99,26.5c-32.87-3.25-66.07.79-98.97-1.87-15.96-.54-20.21,13.67-31.65,22.49v22.87h19.12"/>
      <path class="cls-1" d="M303.99,522v56.25"/>
      <path class="cls-1" d="M314.99,522c.33,18.5.67,37,1,55.5"/>
      <path class="cls-1" d="M45.99,979c-.58,25.51,12.13,8.99,13,23-1.23,13.43,5.33,15.38,15.5,15"/>
      <path class="cls-1" d="M89.49,125c7.18,4.89,5.23,13.56,8.1,20.43,6.94,14.66-4.54,18.7,14.4,31.07"/>
      <path class="cls-1" d="M288.49,884.5c-10.37,15.47-11.9,35.32-20.5,51.5"/>
      <path class="cls-1" d="M341.49,973.5c-1.82,16.77,1.55,33.98-2,50.5"/>
      <path class="cls-1" d="M404.49,1071.5v16.5c-11.33-1.33-22.67-2.67-34-4"/>
      <path class="cls-1" d="M367.49,203c-12.58.59-25.18-1.65-37.5,1.66.2,13.98-.07,26.05-1,39.59"/>
      <path class="cls-1" d="M186.99,778.5c.54-4.68,1.09-9.37,1.67-14.39,14.75-2.22,29.32-.68,43.83-1.08,7.52.45,5.16,9.89,5.5,14.97"/>
      <path class="cls-1" d="M321.99,797.5c5.25,6.51,14.56,11.54,15.39,20.5.23,13.16.11,26.33.11,39.5,0,10.92.19,11.29,8.23,16.5h14.77"/>
      <path class="cls-1" d="M158.49,557c9.34,7.42-3.48,23.09-3.83,33.04-.4,5.71-2.5,13.66,1.33,18.46"/>
      <path class="cls-1" d="M290.62,350l.52-36.62c0-4.33-12.45-3.38-12.16-3.38"/>
      <path class="cls-1" d="M316.49,602.5c.9,20.68,2.6,41.32,3.5,62"/>
      <path class="cls-1" d="M56.49,32c.3,13.15-2.13,25.87-.94,39,14.56.04,28.14.11,42.44-.5"/>
      <path class="cls-1" d="M278.99,247v85.26c-10.68,2.37-20.74,1.14-31.04,4.6-4.67.84-9.86-.62-14.46,1.64"/>
      <path class="cls-1" d="M148.99,612h-16.54c-1.9,1.9-3.56,3.56-4.96,4.96v15.85c-9.84,1.81-20.42,3.75-31,5.69"/>
      <path class="cls-1" d="M181.99,544c5.4-3.41,9.11-9.43,16.52-8.11,1.39.22,3.53-.44,4.39-1.47,3.42-4.29,8.63-4.8,13.08-6.93,4.76-7.07,12.92-5.38,19.57-7.31,4.62-1.34,7.09.8,6.41,5.82-.86,6.39.11,11.88,3.77,17.67,5.02,8.3,6.89,18.54,11.26,27.33"/>
      <path class="cls-1" d="M400.49,255.5c-12.98,9.53-3.52,21.64,2.83,31.12.35-.21.7-.41,1.05-.62v6.16c-1.55,1.85-2.99,3.57-4.38,5.23,0,16.34-1.3,19.2-9.5,21.11-4.46-4.45-4.78-21.63.03-27.1,3.05,1.64,6.26,3.37,9.47,5.1"/>
      <path class="cls-1" d="M299.49,735.5c7.27,23.22,11.04,47.66,9.5,72"/>
      <path class="cls-1" d="M41.49,841.5c-3.85-10.55-30.18-4.6-40-6"/>
      <path class="cls-1" d="M231.49,305c15.23-1.97,30.67-.66,46-1"/>
      <line class="cls-1" x1="279.99" y1="350" x2="367.1" y2="351.5"/>
      <path class="cls-1" d="M104.49,671.5c12.67-2.3,29.72-10.27,27.5,10.7-8.09,1.09-16.3,2.19-24.5,3.3"/>
      <path class="cls-1" d="M97.99,32c0,10.17-.07,20.33.04,30.5.04,3.47-1.33,7.41,2.46,10-1.78,11.66,8.53,13.21,10,20"/>
      <path class="cls-1" d="M110.99,32c-.33,12.75-.67,25.5-1,38.25"/>
      <path class="cls-1" d="M124.99,32v38.25"/>
      <path class="cls-1" d="M83.99,32c-.33,12.75-.67,25.5-1,38.25"/>
      <path class="cls-1" d="M69.99,32c.33,12.75.67,25.5,1,38.25"/>
      <path class="cls-1" d="M1.99,13c34.32.17,26.74-4.31,52.64,18.38h82.86v38.63c-11.55,2.33-24.49-.02-36.5,1.75"/>
      <path class="cls-1" d="M302.99,830c-3.06,12.52-6.92,24.88-9.5,37.5"/>
      <line class="cls-1" x1="362.75" y1="954.5" x2="311.49" y2="954.5"/>
      <path class="cls-1" d="M59.99,387h7.5c.14,10.28-.27,19.51.06,29.5-.09,8.16,8.71,6.22,14.43,6.54,10.05.97,14.78-9.89,21.82-15.35.5.99.84,1.66,1.18,2.32l-.5,3.5c.24,4.5.47,8.99.74,14h27.82c1.97,4.53,4.63,7.8,9.45,8.5"/>
      <path class="cls-1" d="M367.49,218c-12.17.17-24.33.33-36.5.5"/>
      <path class="cls-1" d="M367.49,231c-12.17-.33-24.33-.67-36.5-1"/>
      <path class="cls-1" d="M277.49,265.5c-12.64-5.92-27.53-4.76-38.5,3.5"/>
      <path class="cls-1" d="M146.49,93c-37.18.79-74.3,1.56-111.5,1"/>
      <path class="cls-1" d="M284.99,41.5h-24v13.75"/>
      <path class="cls-1" d="M306.99,202c-.17,11.83-.33,23.67-.5,35.5"/>
      <path class="cls-1" d="M233.49,355.5h-21.03c-.62,5.26-1.13,9.59-1.71,14.5,18.26-.33,36.09.71,54.24-.5"/>
      <path class="cls-1" d="M350.09,918.5c-3.38,1.31-2.79,36-2.79,36"/>
      <path class="cls-1" d="M233.99,533.5v34.5"/>
      <path class="cls-1" d="M404.24,981.5c-.84-3.67-6.25-3.34-9.26-4.43-10.25-2.98-6.44,12.36-7.99,18.43"/>
      <path class="cls-1" d="M288.49,699.5c3.33,11.33,6.67,22.67,10,34"/>
      <line class="cls-1" x1="404.49" y1="750" x2="360.89" y2="750"/>
      <path class="cls-1" d="M190.99,537.5c.81,18.34-2.17,36.92,2,55"/>
      <path class="cls-1" d="M402.49,501.5l1.5,12"/>
      <path class="cls-1" d="M166.99,778.25v-15.56c-6.68.37-12.84.71-19,1.06"/>
      <line class="cls-1" x1="368" y1="338.25" x2="334.49" y2="338.25"/>
      <path class="cls-1" d="M284.7,502.54c-12.25,11.02-1.58,13.35,7.53,19.46"/>
      <polyline class="cls-1" points="364.13 364.1 287.49 365 286.15 421 286.28 489.55 325.49 490.5"/>
      <line class="cls-1" x1="368.07" y1="324.25" x2="335.49" y2="324.5"/>
      <path class="cls-1" d="M277.49,355c-14.33.17-28.67.33-43,.5"/>
      <path class="cls-1" d="M265.49,408.5c.52,15.76.32,44.99.39,51.05,0,.69.37,1.34.95,1.71l5.99,3.7"/>
      <path class="cls-1" d="M324.34,463.76l-18.91.13c-.88,0-17.57.46-18.45.54l-14.17.54s-75.77-1.37-112.66-1.37c-1.49,0-2.74-1.12-2.91-2.6l-2.26-22.5s3.29-.22,5.5-.6c.76-.13,1.32-.79,1.36-1.55.33-5.62.63-10.75.94-16.1,4.95-1.54,5.75-5.23,5.22-9.75-1.41-11.3-2.5-22.6-2.03-34"/>
      <path class="cls-1" d="M347.49,448.5c-20.09,1.25-60.5.5-60.5.5"/>
      <line class="cls-1" x1="321.49" y1="477.5" x2="286.99" y2="477"/>
      <path class="cls-1" d="M76.49,978H1.99"/>
      <path class="cls-1" d="M30.99,578.5c-9.83,3.33-19.67,6.67-29.5,10"/>
      <path class="cls-1" d="M233.99,382.25v-44.37c-5.09-.43-9.78-.82-14.97-1.25-1.99-5.58-7.22-3.23-11.55-3.63-5.71,5.37-2.75,21.1,5.02,23.51"/>
      <path class="cls-1" d="M404.49,234.5v-3c-9.37,4.67-10.64,18.17,0,27v4"/>
      <path class="cls-1" d="M237.49,269.5c5.37,6.12,3.04,14.93,1.05,22.01-.69,3.83-3.94,7.21-2.05,11.49"/>
      <line class="cls-1" x1="368.05" y1="296.97" x2="338.49" y2="297.5"/>
      <path class="cls-1" d="M60.49,244c-.42,8.87.18,18.12-1.31,26.85-9.92,1.06-16.52-5.59-25.19-6.85"/>
      <path class="cls-1" d="M129.99,72c-1.65,13.03,10.16,12.83,18.5,19.5"/>
      <path class="cls-1" d="M285.49,56c-9,0-18.01-.19-27,.06-11.59-1.22-7.94,11.36-8.5,18.94"/>
      <path class="cls-1" d="M240.99,527c-8.17,7.64-17.34,8.71-24,.5"/>
      <path class="cls-1" d="M404.49,992.5v24"/>
      <path class="cls-1" d="M116.49,949.5c-17.89,12.89-4.28,4.88-15,21"/>
      <line class="cls-1" x1="367.33" y1="257" x2="343.49" y2="257"/>
      <path class="cls-1" d="M360.49,1032c-19.52.17-15.67-10.33-31.06-6.63-2.29,7.17-1.84,15.19-1.94,23.13"/>
      <path class="cls-1" d="M88.49,103h-12.75v11h-20.75"/>
      <path class="cls-1" d="M258.49,406.5c-3.98,3.69-7.95,7.39-11.86,11.02-3.47.51-6.81.99-10.14,1.48"/>
      <path class="cls-1" d="M312.49,45h-22"/>
      <path class="cls-1" d="M312.49,59c-7.33.17-14.67.33-22,.5"/>
      <path class="cls-1" d="M35.49,465.5c7.33.17,14.67.33,22,.5"/>
      <path class="cls-1" d="M165.99,14c1.6,10.35-5.85,13.85-13.5,18.5"/>
      <line class="cls-1" x1="367.73" y1="270.03" x2="345.49" y2="269.5"/>
      <path class="cls-1" d="M75.99,125.5c-5.36,6.08-13.83,4.21-21,4.5"/>
      <path class="cls-1" d="M89.99,95v29.79c-4.79.51-9.11.97-13.44,1.43-.49-4.55-.9-8.38-1.31-12.22"/>
      <path class="cls-1" d="M404.49,81c-7-.33-14-.67-21-1"/>
      <path class="cls-1" d="M329.49,1025.5c-1.85-1.67-3.7-3.34-6.07-5.46-4.88,2.79-9.41,5.37-13.93,7.96"/>
      <path class="cls-1" d="M109.49,856h-20.5"/>
      <path class="cls-1" d="M1.49,417.5c6.64,2.77,12.49,9.27,20,8.5"/>
      <path class="cls-1" d="M312.49,70c-6.67-.17-13.33-.33-20-.5"/>
      <path class="cls-1" d="M299.99,12c.31,6-12.44,9.85-17.2,14.28,1.27,2.14,2.49,4.18,3.7,6.22"/>
      <path class="cls-1" d="M54.49,40c-6.5.33-13,.67-19.5,1"/>
      <path class="cls-1" d="M170.49,84.5c-6.17-.17-12.33-.33-18.5-.5"/>
      <path class="cls-1" d="M174.99,543.5c-2.8,6.38-4.63,13.45-12,16.5"/>
      <path class="cls-1" d="M254.99,761c-5.81.75-11.79.73-17.5,2"/>
      <path class="cls-1" d="M170.49,52.5c-5.83-.17-11.67-.33-17.5-.5"/>
      <path class="cls-1" d="M404.49,500.5c-6.33-.17-12.67-.33-19-.5"/>
      <path class="cls-1" d="M134.99,1077c1.09,5.5-1.11,12.45,3.5,16.5"/>
      <path class="cls-1" d="M278.24,333c2.33,24.92.07,49.99.75,75v1.5c.42,17.5.6,35,.49,52.5l-.53,32.5c.31,4.77,4.16,8.54,8.93,8.75l78.32,1.24"/>
      <path class="cls-1" d="M178.49,982c-5.67,1.67-11.33,3.33-17,5"/>
      <path class="cls-1" d="M404.49,185.5c1.65,3.02-11.36,7.87,0,14"/>
      <path class="cls-1" d="M346.49,875c-1.17,5.42-2.33,10.83-3.5,16.25"/>
      <path class="cls-1" d="M284.99,613.5c.96,5.58,3.24,12.51,9,14.5"/>
      <path class="cls-1" d="M151.99,1098c-1.59-6.1-7.47-7.84-13.36-4.09-.4,1.6-.77,3.1-1.14,4.59"/>
      <path class="cls-1" d="M126.49,779h-15.5"/>
      <polyline class="cls-1" points="375.12 377.01 370.68 376.17 368.11 380.4 359.94 379.75 355.92 394.51"/>
      <path class="cls-1" d="M177.99,539c3.88,6.57,7.87,13.08,12,19.5"/>
      <path class="cls-1" d="M153.49,44c-.31-3.67-.61-7.34-1-11.95-4.8-.1-9.65-.2-14.5-.3"/>
      <line class="cls-1" x1="170.99" y1="463.63" x2="170.49" y2="478.5"/>
      <line class="cls-1" x1="317.57" y1="449.09" x2="317.57" y2="503.72"/>
      <path class="cls-1" d="M312.99,32c.33,20.42.67,40.83,1,61.25"/>
      <path class="cls-1" d="M218.49,337c-3.87,4.13-7.59,8.41-12,12"/>
      <path class="cls-1" d="M137.49,763.5c3.15-.21,6.31-.42,10.5-.69v15.44"/>
      <path class="cls-1" d="M306.49,865.5c-3.33,4.56-10.12,1.8-15,3"/>
      <path class="cls-1" d="M264.99,356c.08,11.98-2.42,18.22,12.5,19"/>
      <path class="cls-1" d="M295.99,666c-3.33,4.17-6.67,8.33-10,12.5"/>
      <path class="cls-1" d="M243.99,12v12.5"/>
      <path class="cls-1" d="M124.49,185.5c-4.17-.17-8.33-.33-12.5-.5"/>
      <path class="cls-1" d="M209.99,11.5v12.75"/>
      <path class="cls-1" d="M284.49,686c1,3.83,2,7.67,3,11.5"/>
      <path class="cls-1" d="M243.99,247c.81,3.64-1.15,5.81-4.45,7.52.49,4.02.97,8,1.45,11.98"/>
      <path class="cls-1" d="M152.49,70c-.83,3.83-1.67,7.67-2.5,11.5"/>
      <path class="cls-1" d="M22.49,380h-11.5"/>
      <path class="cls-1" d="M404.49,133c-3.67.17-7.33.33-11,.5"/>
      <path class="cls-1" d="M293.99,1095c-2.17-.2-4.33-.41-6.5-.61v3.71c2.38-.95,4.44-1.78,6.5-2.6"/>
      <line class="cls-1" x1="278.97" y1="439.08" x2="265.85" y2="439"/>
      <path class="cls-1" d="M248.99,1097.5c1.36-.17,2.72-.34,4.08-.5-.12-.53-.24-1.07-.35-1.6-1.8.47-3.61.94-5.61,1.46-.67-.29-1.89-.82-3.11-1.36"/>
      <path class="cls-1" d="M267.49,568.5c-6.38,1.39-12.66,2.95-16.5,9"/>
      <path class="cls-1" d="M308.49,1094.5c-.74.32-1.48.64-2.22.96.09.58.18,1.16.27,1.74,3.32-.23,6.63-.46,9.95-.7"/>
      <path class="cls-1" d="M277.99,566.5c-3.17.67-6.33,1.33-9.5,2"/>
      <path class="cls-1" d="M23.49,1095.5c-2.83-.17-5.67-.33-8.5-.5"/>
      <path class="cls-1" d="M369.99,0v11"/>
      <path class="cls-1" d="M31.49,1095.5c2.23-.47,5.16.25,7-1-.17-.17-.33-.33-.5-.5"/>
      <path class="cls-1" d="M84.49,1021.5c-2.5.83-5,1.67-7.5,2.5"/>
      <path class="cls-1" d="M255.49,770.5c.17,2.33.33,4.67.5,7"/>
      <path class="cls-1" d="M45.49,564.5l-6,3"/>
      <path class="cls-1" d="M153.99,607c.46,2-3.61,4,0,6"/>
      <path class="cls-1" d="M341.99,1095.5c1.33.11,2.66.23,3.99.34l-.03,1.16c-.82-.17-1.65-.33-2.47-.5"/>
      <path class="cls-1" d="M382.49,1096c-1.62-.26-3.93-2.38-4,1.5"/>
      <path class="cls-1" d="M255.49,746.5v5"/>
      <path class="cls-1" d="M258.49,693.5c1,1.33,2,2.67,3,4"/>
      <path class="cls-1" d="M254.99,754v4.5"/>
      <path class="cls-1" d="M383.49,1096.5c1.34.44,2.69.89,4.25,1.4.25-.48.6-1.14,1.44-2.71-1.47.44-2.08.63-2.7.81"/>
      <path class="cls-1" d="M400.99,1095v2.03c-.83.15-1.66.31-2.5.47"/>
      <path class="cls-1" d="M254.99,763.5v4.5"/>
      <path class="cls-1" d="M37.49,1090.5c1.03,2.13.23,3.04-2,3"/>
      <path class="cls-1" d="M261.99,1094.5c2.16,3.24,5.38,2.07,9.25,2.79,1.09-1.04.79-1.72-1.75-1.29"/>
      <path class="cls-1" d="M279.49,1096.5c-1.5-.33-3-.65-4.5-.98-.18.32-.35.65-.53.97l2.03.51"/>
      <path class="cls-1" d="M233.49,1095.5c2.33.34,4.67,5.03,6.32.65,1.63.16,2.66.26,3.68.35"/>
      <path class="cls-1" d="M176.99,505.5h-4.5"/>
      <path class="cls-1" d="M259.99,723c-.17,1.5-.33,3-.5,4.5"/>
      <path class="cls-1" d="M260.49,715.5c-.17,1.33-.33,2.67-.5,4"/>
      <path class="cls-1" d="M260.99,708.5v4"/>
      <path class="cls-1" d="M166.99,698h22.5c.37,11.44,3.15,22.89,1.93,34.26-.49,2.84-2.61,5.71-4.43,7.83-2.99,3.36-6.34,8.31-6.47,12.85,0,0-.42,25.95-.42,25.95"/>
      <path class="cls-1" d="M302.99,1095c.21.65.41,1.31.85,2.71-1.12-.34-1.74-.52-2.35-.71"/>
      <path class="cls-1" d="M257.99,733c-.33,1.33-.67,2.67-1,4"/>
      <path class="cls-1" d="M215.99,1096c-5.35-2.08-2.98,2.57-6,2"/>
      <path class="cls-1" d="M359.49,1096.5c3.69,1.69,7.19,1.35,10.5-1"/>
      <path class="cls-1" d="M154.99,438.5c-4.53-2.5-7.6-2.5-12.5-2.5,0,15.12.75,28.17.75,42.5h34.75c.57,43.75-3.66,86.59,2.5,130,1.77,14.65,3.63,29.45,6,44,.25,14.85,1.64,30.73,3,45.5"/>
      <path class="cls-1" d="M252.99,684.5c1.33,2,2.67,4,4,6"/>
      <path class="cls-1" d="M15.99,1091c-2.17,2.83-4.33,5.67-6.5,8.5"/>
      <path class="cls-1" d="M153.99,988c-1,.67-2,1.33-3,2"/>
      <path class="cls-1" d="M367.99,1096h-6.5"/>
      <path class="cls-1" d="M24.49,1090.5c.67,2.33,1.33,4.67,2,7"/>
      <path class="cls-1" d="M293.49,1097c1.17.17,2.33.33,3.5.5"/>
      <path class="cls-1" d="M322.49,1096.5c-4.17-.17-8.33-.33-12.5-.5"/>
      <path class="cls-1" d="M300.49,1095.5c-2-.17-4-.33-6-.5"/>
      <path class="cls-1" d="M227.49,1093.5c-.94,1.2,1.7,4.18-2,4"/>
      <path class="cls-1" d="M212.99,1096.5c2.19.12,4.34-.12,6.5-.5"/>
      <path class="cls-1" d="M11.49,1093.5c-.17-.33-.33-.67-.59-1.18-.49.41-.95.79-1.41,1.18"/>
      <path class="cls-1" d="M10.49,1090.5c1.33.17,2.67.33,4,.5"/>
      <path class="cls-1" d="M332.49,1097.5v-3.67c1.27.85,1.89,1.26,2.5,1.67"/>
      <path class="cls-1" d="M341.49,1097.5c.03-1.43.11-2.92-2-1.5"/>
      <path class="cls-1" d="M259.49,729.5c-.33.33-.67.67-1,1"/>
      <path class="cls-1" d="M256.49,739.5c-.33.33-.67.67-1,1"/>
      <path class="cls-1" d="M210.99,1096h-1.5"/>
      <path class="cls-1" d="M355.49,1096.5c1,.17,2,.33,3,.5"/>
      <path class="cls-1" d="M207.49,1097h-1.5"/>
      <path class="cls-1" d="M20.49,1090.5c-.5.17-1,.33-1.5.5"/>
      <path class="cls-1" d="M299.99,1096v1.5c.33-.5.67-1,1-1.5"/>
    <line class="cls-1" x1="362.75" y1="1081.57" x2="362.75" y2="1089.7"/>
    <line class="cls-1" x1="370.49" y1="1084" x2="370.49" y2="1090.32"/>
  </g>
</svg>